<svg width="76" height="76" viewBox="0 0 76 76" fill="none" xmlns="http://www.w3.org/2000/svg">
<path d="M29.0488 2.92285H73.5801V33.3916H29.0488V2.92285Z" fill="#FFA463"/>
<path d="M56.002 16.9854H29.0488V33.3916H57.1738V18.1572C57.1738 17.8464 57.0504 17.5484 56.8306 17.3286C56.6108 17.1088 56.3128 16.9854 56.002 16.9854Z" fill="black"/>
<path d="M16.1582 20.501H53.6582V46.2822H16.1582V20.501Z" fill="#A79AFB"/>
<path d="M38.4238 31.0479H16.1582V46.2822H39.5957V32.2197C39.5957 31.9089 39.4722 31.6109 39.2525 31.3911C39.0327 31.1713 38.7346 31.0479 38.4238 31.0479Z" fill="black"/>
<path d="M3.26758 34.5635H36.0801V58.001H3.26758V34.5635Z" fill="#C0E5FE"/>
<path d="M73.1111 66.0682L72.5662 65.767C72.4079 65.6863 72.278 65.559 72.1942 65.4023C72.1104 65.2456 72.0766 65.067 72.0975 64.8905C72.1959 64.2073 72.1959 63.5135 72.0975 62.8303C72.0766 62.6538 72.1104 62.4752 72.1942 62.3184C72.278 62.1617 72.4079 62.0344 72.5662 61.9537L73.1111 61.6526C73.2169 61.5969 73.3101 61.5203 73.3852 61.4273C73.4603 61.3344 73.5157 61.2271 73.5479 61.1121C73.5802 60.997 73.5886 60.8766 73.5728 60.7582C73.5569 60.6397 73.5171 60.5258 73.4557 60.4233L71.9393 57.9225C71.8074 57.713 71.6002 57.5621 71.3604 57.5008C71.1206 57.4396 70.8664 57.4726 70.6502 57.5932L70.0982 57.8979C69.9298 57.9871 69.7393 58.0263 69.5493 58.0107C69.3592 57.9951 69.1777 57.9255 69.026 57.81C68.4832 57.4118 67.8926 57.083 67.2682 56.8315C67.0928 56.7692 66.9404 56.6555 66.8308 56.5051C66.7213 56.3548 66.6597 56.1749 66.6541 55.9889V55.3854C66.6486 55.1419 66.5468 54.9105 66.3711 54.7419C66.1954 54.5732 65.9601 54.481 65.7166 54.4854H62.6943C62.4508 54.481 62.2155 54.5732 62.0398 54.7419C61.8641 54.9105 61.7624 55.1419 61.7568 55.3854V55.9889C61.7513 56.1749 61.6897 56.3548 61.5801 56.5051C61.4705 56.6555 61.3181 56.7692 61.1428 56.8315C60.5183 57.083 59.9278 57.4118 59.385 57.81C59.2333 57.9255 59.0517 57.9951 58.8617 58.0107C58.6717 58.0263 58.4812 57.9871 58.3127 57.8979L57.7607 57.5932C57.5446 57.4726 57.2904 57.4396 57.0506 57.5008C56.8107 57.5621 56.6035 57.713 56.4717 57.9225L54.9623 60.4233C54.9009 60.5258 54.8611 60.6397 54.8452 60.7582C54.8293 60.8766 54.8378 60.997 54.87 61.1121C54.9023 61.2271 54.9576 61.3344 55.0327 61.4273C55.1078 61.5203 55.2011 61.5969 55.3068 61.6526L55.8518 61.9537C56.0101 62.0344 56.1399 62.1617 56.2237 62.3184C56.3075 62.4752 56.3413 62.6538 56.3205 62.8303C56.2221 63.5135 56.2221 64.2073 56.3205 64.8905C56.3413 65.067 56.3075 65.2456 56.2237 65.4023C56.1399 65.559 56.0101 65.6863 55.8518 65.767L55.3068 66.0682C55.2011 66.1239 55.1078 66.2005 55.0327 66.2934C54.9576 66.3864 54.9023 66.4936 54.87 66.6087C54.8378 66.7238 54.8293 66.8442 54.8452 66.9626C54.8611 67.081 54.9009 67.195 54.9623 67.2975L56.4705 69.7983C56.6024 70.0077 56.8096 70.1587 57.0494 70.2199C57.2892 70.2812 57.5434 70.2481 57.7596 70.1276L58.3115 69.8229C58.48 69.7336 58.6705 69.6945 58.8605 69.7101C59.0505 69.7256 59.2321 69.7953 59.3838 69.9108C59.9266 70.309 60.5171 70.6377 61.1416 70.8893C61.3169 70.9515 61.4693 71.0653 61.5789 71.2156C61.6885 71.366 61.7501 71.5459 61.7557 71.7319V72.3354C61.7612 72.5789 61.8629 72.8102 62.0386 72.9789C62.2143 73.1476 62.4497 73.2398 62.6932 73.2354H65.7143C65.9578 73.2398 66.1931 73.1476 66.3688 72.9789C66.5445 72.8102 66.6462 72.5789 66.6518 72.3354V71.7319C66.6581 71.5458 66.7207 71.3659 66.8311 71.216C66.9415 71.066 67.0947 70.953 67.2705 70.8916C67.895 70.6401 68.4855 70.3114 69.0283 69.9131C69.18 69.7976 69.3616 69.728 69.5516 69.7124C69.7416 69.6968 69.9321 69.736 70.1006 69.8252L70.6525 70.1299C70.8687 70.2505 71.1229 70.2835 71.3627 70.2223C71.6025 70.161 71.8097 70.0101 71.9416 69.8006L73.451 67.2998C73.5129 67.1975 73.5534 67.0836 73.5698 66.9652C73.5862 66.8467 73.5782 66.7261 73.5464 66.6108C73.5146 66.4955 73.4596 66.3879 73.3847 66.2946C73.3099 66.2013 73.2168 66.1243 73.1111 66.0682ZM64.2049 67.376C63.5096 67.376 62.8298 67.1698 62.2517 66.7835C61.6736 66.3972 61.223 65.8481 60.9569 65.2057C60.6908 64.5634 60.6212 63.8565 60.7568 63.1745C60.8925 62.4926 61.2273 61.8661 61.719 61.3745C62.2106 60.8828 62.8371 60.548 63.519 60.4123C64.201 60.2767 64.9079 60.3463 65.5502 60.6124C66.1926 60.8785 66.7417 61.3291 67.128 61.9072C67.5143 62.4853 67.7205 63.1651 67.7205 63.8604C67.7205 64.7928 67.3501 65.687 66.6908 66.3463C66.0315 67.0056 65.1373 67.376 64.2049 67.376Z" fill="#DFFE3E"/>
<path d="M74.6818 61.3994C74.754 61.1341 74.7713 60.8569 74.7326 60.5846C74.6939 60.3124 74.6001 60.0509 74.4568 59.8162L72.9474 57.319C72.6576 56.8521 72.2 56.514 71.6687 56.374C71.1373 56.2341 70.5725 56.303 70.0904 56.5666L69.6509 56.8104C69.0837 56.4039 68.4724 56.0627 67.8287 55.7932V55.3865C67.8228 54.8316 67.597 54.3017 67.2009 53.9131C66.8048 53.5244 66.2707 53.3088 65.7158 53.3135H62.6947C62.1404 53.3097 61.6072 53.5258 61.2118 53.9143C60.8165 54.3029 60.5912 54.8323 60.5853 55.3865V55.7932C59.9417 56.0629 59.3305 56.4041 58.763 56.8104L58.3248 56.5678C57.8431 56.3036 57.2785 56.234 56.7471 56.3733C56.2157 56.5125 55.7579 56.8501 55.4677 57.3166L53.9537 59.8174C53.8104 60.0519 53.7165 60.3131 53.6778 60.5852C53.6391 60.8572 53.6564 61.1343 53.7287 61.3994C53.802 61.6694 53.9289 61.9218 54.1018 62.1417C54.2748 62.3615 54.4902 62.5443 54.7353 62.6791L55.122 62.8924C55.0455 63.5354 55.0455 64.1853 55.122 64.8283L54.7353 65.0416C54.4902 65.1764 54.2748 65.3592 54.1018 65.5791C53.9289 65.7989 53.802 66.0513 53.7287 66.3213C53.6565 66.5866 53.6392 66.8639 53.6779 67.1361C53.7166 67.4083 53.8104 67.6698 53.9537 67.9045L55.4631 70.4018C55.7528 70.8686 56.2104 71.2068 56.7418 71.3467C57.2732 71.4866 57.8379 71.4177 58.3201 71.1541L58.7595 70.9104C59.3268 71.3168 59.9381 71.658 60.5818 71.9276V72.3342C60.5877 72.8891 60.8134 73.419 61.2096 73.8076C61.6057 74.1963 62.1398 74.4119 62.6947 74.4072H65.7158C66.2701 74.411 66.8033 74.1949 67.1986 73.8064C67.594 73.4179 67.8193 72.8885 67.8252 72.3342V71.9276C68.4688 71.6578 69.08 71.3166 69.6474 70.9104L70.0857 71.1529C70.5672 71.4177 71.132 71.4876 71.6636 71.3483C72.1951 71.209 72.653 70.871 72.9427 70.4041L74.4533 67.9033C74.5966 67.6689 74.6905 67.4076 74.7292 67.1356C74.7678 66.8635 74.7505 66.5864 74.6783 66.3213C74.605 66.0513 74.4781 65.7989 74.3051 65.5791C74.1322 65.3592 73.9167 65.1764 73.6716 65.0416L73.2849 64.8283C73.3615 64.1853 73.3615 63.5354 73.2849 62.8924L73.6716 62.6791C73.9174 62.5447 74.1335 62.362 74.3071 62.1422C74.4806 61.9223 74.6081 61.6697 74.6818 61.3994ZM71.0021 63.8604C71.0016 64.1494 70.9809 64.438 70.94 64.724C70.8869 65.1351 70.9592 65.5526 71.1474 65.9218C71.3356 66.2911 71.6309 66.5949 71.9947 66.7936L72.2888 66.9553L71.0502 69.0072L70.6681 68.7963C70.3037 68.6009 69.8913 68.513 69.4788 68.5429C69.0664 68.5728 68.6709 68.7192 68.3384 68.9651C67.874 69.3057 67.3684 69.5864 66.8338 69.8006C66.4407 69.9497 66.1017 70.2136 65.8607 70.5581C65.6197 70.9025 65.4879 71.3115 65.4826 71.7318V72.0635H62.9255V71.7318C62.9202 71.3118 62.7886 70.9031 62.5478 70.5589C62.3071 70.2147 61.9683 69.9509 61.5755 69.8018C61.0403 69.587 60.5344 69.3055 60.0697 68.9639C59.7363 68.7189 59.3405 68.5732 58.9279 68.5435C58.5152 68.5139 58.1026 68.6015 57.7377 68.7963L57.358 69.0072L56.1193 66.9553L56.4146 66.7924C56.7783 66.594 57.0735 66.2903 57.2617 65.9213C57.4499 65.5522 57.5223 65.1349 57.4693 64.724C57.3865 64.1512 57.3865 63.5695 57.4693 62.9967C57.5224 62.5856 57.4501 62.1682 57.2619 61.7989C57.0737 61.4296 56.7784 61.1258 56.4146 60.9272L56.1205 60.7654L57.3591 58.7135L57.7412 58.9244C58.1055 59.1204 58.518 59.2086 58.9305 59.1787C59.3431 59.1488 59.7386 59.0021 60.0709 58.7557C60.5353 58.4151 61.0409 58.1344 61.5755 57.9201C61.9686 57.771 62.3077 57.5071 62.5486 57.1626C62.7896 56.8182 62.9214 56.4092 62.9267 55.9889V55.6572H65.4861V55.9889C65.4914 56.4089 65.6231 56.8176 65.8638 57.1618C66.1046 57.5061 66.4434 57.7699 66.8361 57.919C67.3713 58.1337 67.8773 58.4153 68.342 58.7569C68.675 59.0026 69.0709 59.1488 69.4837 59.1785C69.8965 59.2081 70.3093 59.12 70.674 58.9244L71.0537 58.7135L72.2912 60.7654L71.9959 60.9283C71.6322 61.1268 71.3369 61.4304 71.1487 61.7995C70.9606 62.1685 70.8882 62.5858 70.9412 62.9967C70.9817 63.2828 71.002 63.5714 71.0021 63.8604Z" fill="#595579"/>
<path d="M64.2051 59.1729C63.278 59.1729 62.3717 59.4478 61.6008 59.9628C60.83 60.4779 60.2292 61.21 59.8744 62.0665C59.5196 62.9231 59.4268 63.8656 59.6076 64.7748C59.7885 65.6841 60.235 66.5194 60.8905 67.1749C61.5461 67.8305 62.3813 68.2769 63.2906 68.4578C64.1999 68.6387 65.1424 68.5458 65.9989 68.191C66.8554 67.8363 67.5875 67.2354 68.1026 66.4646C68.6177 65.6937 68.8926 64.7875 68.8926 63.8604C68.8926 62.6171 68.3987 61.4249 67.5196 60.5458C66.6406 59.6667 65.4483 59.1729 64.2051 59.1729ZM64.2051 66.2041C63.7415 66.2041 63.2884 66.0666 62.903 65.8091C62.5175 65.5516 62.2171 65.1855 62.0397 64.7573C61.8623 64.329 61.8159 63.8577 61.9064 63.4031C61.9968 62.9485 62.22 62.5308 62.5478 62.2031C62.8756 61.8753 63.2932 61.6521 63.7478 61.5616C64.2025 61.4712 64.6737 61.5176 65.102 61.695C65.5303 61.8724 65.8963 62.1728 66.1538 62.5582C66.4114 62.9437 66.5488 63.3968 66.5488 63.8604C66.5488 64.482 66.3019 65.0781 65.8624 65.5176C65.4228 65.9572 64.8267 66.2041 64.2051 66.2041Z" fill="#595579"/>
<path d="M73.5801 1.75098H29.0488C28.738 1.75098 28.44 1.87444 28.2202 2.09421C28.0004 2.31398 27.877 2.61205 27.877 2.92285V19.3291H16.1582C15.8474 19.3291 15.5493 19.4526 15.3296 19.6723C15.1098 19.8921 14.9863 20.1902 14.9863 20.501V33.3916H3.26758C2.95678 33.3916 2.65871 33.5151 2.43894 33.7348C2.21917 33.9546 2.0957 34.2527 2.0957 34.5635V58.001C2.0957 58.3118 2.21917 58.6098 2.43894 58.8296C2.65871 59.0494 2.95678 59.1729 3.26758 59.1729H36.0801C36.3909 59.1729 36.6889 59.0494 36.9087 58.8296C37.1285 58.6098 37.252 58.3118 37.252 58.001V47.4541H53.6582C53.969 47.4541 54.2671 47.3306 54.4868 47.1109C54.7066 46.8911 54.8301 46.593 54.8301 46.2822V34.5635H73.5801C73.8909 34.5635 74.1889 34.44 74.4087 34.2202C74.6285 34.0005 74.752 33.7024 74.752 33.3916V2.92285C74.752 2.61205 74.6285 2.31398 74.4087 2.09421C74.1889 1.87444 73.8909 1.75098 73.5801 1.75098ZM34.9082 56.8291H4.43945V35.7354H34.9082V56.8291ZM52.4863 45.1104H37.252V34.5635C37.252 34.2527 37.1285 33.9546 36.9087 33.7348C36.6889 33.5151 36.3909 33.3916 36.0801 33.3916H17.3301V21.6729H52.4863V45.1104ZM72.4082 32.2197H54.8301V20.501C54.8301 20.1902 54.7066 19.8921 54.4868 19.6723C54.2671 19.4526 53.969 19.3291 53.6582 19.3291H30.2207V4.09473H72.4082V32.2197Z" fill="#595579"/>
<path d="M22.0176 62.6885H19.6738V69.7197C19.6738 70.0305 19.7973 70.3286 20.0171 70.5484C20.2368 70.7681 20.5349 70.8916 20.8457 70.8916H50.1426V68.5479H22.0176V62.6885Z" fill="#595579"/>
<path d="M45.4551 50.9697H43.1113V60.3447C43.1113 60.6555 43.2348 60.9536 43.4546 61.1734C43.6743 61.3931 43.9724 61.5166 44.2832 61.5166H50.1426V59.1729H45.4551V50.9697Z" fill="#595579"/>
<path d="M64.2051 38.0791H66.5488V49.7979H64.2051V38.0791Z" fill="#595579"/>
<path d="M67.7207 6.43848H70.0645V8.78223H67.7207V6.43848Z" fill="#595579"/>
<path d="M63.0332 6.43848H65.377V8.78223H63.0332V6.43848Z" fill="#595579"/>
<path d="M47.7988 24.0166H50.1426V26.3604H47.7988V24.0166Z" fill="#595579"/>
<path d="M43.1113 24.0166H45.4551V26.3604H43.1113V24.0166Z" fill="#595579"/>
<path d="M30.2207 38.0791H32.5645V40.4229H30.2207V38.0791Z" fill="#595579"/>
<path d="M25.5332 38.0791H27.877V40.4229H25.5332V38.0791Z" fill="#595579"/>
</svg>
