<svg width="76" height="76" viewBox="0 0 76 76" fill="none" xmlns="http://www.w3.org/2000/svg">
<g clip-path="url(#clip0_138_984)">
<path d="M45.4551 1.30566C29.275 1.30566 16.1582 14.4225 16.1582 30.6025C16.1582 32.6111 16.3727 34.5682 16.7594 36.4619H4.43945C3.15039 36.4619 2.0957 37.5166 2.0957 38.8057V66.9307C2.0957 68.2197 3.15039 69.2744 4.43945 69.2744H30.2207L33.7363 73.9619L37.252 69.2744H43.1113C44.4004 69.2744 45.4551 68.2197 45.4551 66.9307V59.8994C61.6352 59.8994 74.752 46.7826 74.752 30.6025C74.752 14.4225 61.6352 1.30566 45.4551 1.30566Z" fill="#D7D1FA"/>
<path d="M43.1113 36.4619H4.43945C3.15039 36.4619 2.0957 37.5166 2.0957 38.8057V66.9307C2.0957 68.2197 3.15039 69.2744 4.43945 69.2744H30.2207L33.7363 73.9619L37.252 69.2744H43.1113C44.4004 69.2744 45.4551 68.2197 45.4551 66.9307V38.8057C45.4551 37.5166 44.4004 36.4619 43.1113 36.4619Z" fill="#CFC9F2"/>
<path d="M45.4551 5.99316C31.8848 5.99316 20.8457 17.0334 20.8457 30.6025C20.8457 32.624 21.1059 34.5822 21.5699 36.4619H43.1113C44.4004 36.4619 45.4551 37.5166 45.4551 38.8057V55.2119C59.0254 55.2119 70.0645 44.1717 70.0645 30.6025C70.0645 17.0334 59.0254 5.99316 45.4551 5.99316Z" fill="#DFFE3E"/>
<path d="M45.4551 32.9463C46.7495 32.9463 47.7988 31.897 47.7988 30.6025C47.7988 29.3081 46.7495 28.2588 45.4551 28.2588C44.1607 28.2588 43.1113 29.3081 43.1113 30.6025C43.1113 31.897 44.1607 32.9463 45.4551 32.9463Z" fill="#CFC9F2"/>
<path d="M37.252 42.3213C35.9582 42.3213 34.9082 43.3713 34.9082 44.665V50.5244H30.2207V44.665C30.2207 43.3713 29.1707 42.3213 27.877 42.3213C26.5832 42.3213 25.5332 43.3713 25.5332 44.665V52.8682C25.5332 54.1619 26.5832 55.2119 27.877 55.2119H34.9082V61.0713C34.9082 62.365 35.9582 63.415 37.252 63.415C38.5457 63.415 39.5957 62.365 39.5957 61.0713V44.665C39.5957 43.3713 38.5457 42.3213 37.252 42.3213Z" fill="#5FFE7E"/>
<path d="M18.502 63.415H10.2988C9.00508 63.415 7.95508 62.365 7.95508 61.0713V52.8682C7.95508 51.5744 9.00508 50.5244 10.2988 50.5244H16.1582V47.0088H10.2988C9.00508 47.0088 7.95508 45.9588 7.95508 44.665C7.95508 43.3713 9.00508 42.3213 10.2988 42.3213H18.502C19.7957 42.3213 20.8457 43.3713 20.8457 44.665V52.8682C20.8457 54.1619 19.7957 55.2119 18.502 55.2119H12.6426V58.7275H18.502C19.7957 58.7275 20.8457 59.7775 20.8457 61.0713C20.8457 62.365 19.7957 63.415 18.502 63.415Z" fill="#5FFE7E"/>
<path d="M45.4551 14.1963C46.102 14.1963 46.627 13.6725 46.627 13.0244V10.6807C46.627 10.0326 46.102 9.50879 45.4551 9.50879C44.8082 9.50879 44.2832 10.0326 44.2832 10.6807V13.0244C44.2832 13.6725 44.8082 14.1963 45.4551 14.1963Z" fill="#595579"/>
<path d="M27.877 29.4307H25.5332C24.8863 29.4307 24.3613 29.9545 24.3613 30.6025C24.3613 31.2506 24.8863 31.7744 25.5332 31.7744H27.877C28.5238 31.7744 29.0488 31.2506 29.0488 30.6025C29.0488 29.9545 28.5238 29.4307 27.877 29.4307Z" fill="#595579"/>
<path d="M61.8613 30.6025C61.8613 31.2506 62.3863 31.7744 63.0332 31.7744H65.377C66.0238 31.7744 66.5488 31.2506 66.5488 30.6025C66.5488 29.9545 66.0238 29.4307 65.377 29.4307H63.0332C62.3863 29.4307 61.8613 29.9545 61.8613 30.6025Z" fill="#595579"/>
<path d="M36.509 12.7631C36.1856 12.2041 35.4696 12.0096 34.9082 12.3342C34.3481 12.6576 34.1559 13.3748 34.4793 13.935L35.6512 15.9658C35.868 16.3408 36.2617 16.5518 36.6672 16.5518C36.8653 16.5518 37.0668 16.5014 37.252 16.3947C37.8121 16.0713 38.0043 15.3541 37.6809 14.794L36.509 12.7631Z" fill="#595579"/>
<path d="M54.0871 45.2393C53.7625 44.6791 53.0465 44.4857 52.4864 44.8103C51.9262 45.1338 51.734 45.851 52.0574 46.4111L53.2293 48.4408C53.4473 48.8158 53.8399 49.0268 54.2453 49.0268C54.4434 49.0268 54.6449 48.9764 54.8301 48.8697C55.3903 48.5463 55.5824 47.8291 55.259 47.2689L54.0871 45.2393Z" fill="#595579"/>
<path d="M60.6802 22.9854C60.8782 22.9854 61.0809 22.935 61.2649 22.8283L63.2934 21.6565C63.8548 21.333 64.0458 20.6158 63.7224 20.0557C63.3989 19.4943 62.6817 19.3022 62.1216 19.6268L60.0931 20.7986C59.5317 21.1221 59.3407 21.8393 59.6641 22.3994C59.8821 22.7756 60.2747 22.9854 60.6802 22.9854Z" fill="#595579"/>
<path d="M30.8185 20.7986L28.7876 19.6268C28.2251 19.3033 27.5103 19.4967 27.1868 20.0557C26.8634 20.617 27.0556 21.333 27.6157 21.6565L29.6466 22.8283C29.8318 22.935 30.0333 22.9854 30.2314 22.9854C30.6368 22.9854 31.0306 22.7744 31.2474 22.3994C31.5708 21.8381 31.3786 21.1221 30.8185 20.7986Z" fill="#595579"/>
<path d="M58.9199 40.4064L60.9496 41.5783C61.1348 41.6849 61.3364 41.7353 61.5344 41.7353C61.9399 41.7353 62.3336 41.5244 62.5504 41.1494C62.8739 40.5881 62.6817 39.8721 62.1215 39.5486L60.0918 38.3767C59.5293 38.0521 58.8145 38.2467 58.491 38.8056C58.1676 39.367 58.3598 40.083 58.9199 40.4064Z" fill="#595579"/>
<path d="M53.6605 16.3947C53.8445 16.5014 54.0461 16.5518 54.2453 16.5518C54.6508 16.5518 55.0445 16.3408 55.2613 15.9658L56.432 13.935C56.7555 13.3748 56.5633 12.6565 56.0019 12.3342C55.4406 12.0096 54.7246 12.2041 54.4012 12.7631L53.2305 14.794C52.9082 15.3541 53.1004 16.0725 53.6605 16.3947Z" fill="#595579"/>
<path d="M48.7551 31.7744H54.8301C55.477 31.7744 56.002 31.2506 56.002 30.6025C56.002 29.9545 55.477 29.4307 54.8301 29.4307H48.7551C48.4012 28.4369 47.6195 27.6564 46.627 27.3037V17.7119C46.627 17.0639 46.102 16.54 45.4551 16.54C44.8082 16.54 44.2832 17.0639 44.2832 17.7119V27.3037C42.9215 27.7889 41.9395 29.0779 41.9395 30.6025C41.9395 32.5408 43.5168 34.1182 45.4551 34.1182C46.9809 34.1182 48.2688 33.135 48.7551 31.7744ZM44.2832 30.6025C44.2832 29.9557 44.8094 29.4307 45.4551 29.4307C46.1008 29.4307 46.627 29.9557 46.627 30.6025C46.627 31.2494 46.1008 31.7744 45.4551 31.7744C44.8094 31.7744 44.2832 31.2494 44.2832 30.6025Z" fill="#595579"/>
<path d="M37.252 41.1494C35.3137 41.1494 33.7363 42.7268 33.7363 44.665V49.3525H31.3926V44.665C31.3926 42.7268 29.8152 41.1494 27.877 41.1494C25.9387 41.1494 24.3613 42.7268 24.3613 44.665V52.8682C24.3613 54.8064 25.9387 56.3838 27.877 56.3838H33.7363V61.0713C33.7363 63.0096 35.3137 64.5869 37.252 64.5869C39.1902 64.5869 40.7676 63.0096 40.7676 61.0713V44.665C40.7676 42.7268 39.1902 41.1494 37.252 41.1494ZM38.4238 61.0713C38.4238 61.7182 37.8977 62.2432 37.252 62.2432C36.6062 62.2432 36.0801 61.7182 36.0801 61.0713V55.2119C36.0801 54.5639 35.5551 54.04 34.9082 54.04H27.877C27.2313 54.04 26.7051 53.515 26.7051 52.8682V44.665C26.7051 44.0182 27.2313 43.4932 27.877 43.4932C28.5227 43.4932 29.0488 44.0182 29.0488 44.665V50.5244C29.0488 51.1725 29.5738 51.6963 30.2207 51.6963H34.9082C35.5551 51.6963 36.0801 51.1725 36.0801 50.5244V44.665C36.0801 44.0182 36.6062 43.4932 37.252 43.4932C37.8977 43.4932 38.4238 44.0182 38.4238 44.665V61.0713Z" fill="#595579"/>
<path d="M18.502 41.1494H10.2988C8.36055 41.1494 6.7832 42.7268 6.7832 44.665C6.7832 46.6033 8.36055 48.1807 10.2988 48.1807H14.9863V49.3525H10.2988C8.36055 49.3525 6.7832 50.9299 6.7832 52.8682V61.0713C6.7832 63.0096 8.36055 64.5869 10.2988 64.5869H18.502C20.4402 64.5869 22.0176 63.0096 22.0176 61.0713C22.0176 59.133 20.4402 57.5557 18.502 57.5557H13.8145V56.3838H18.502C20.4402 56.3838 22.0176 54.8064 22.0176 52.8682V44.665C22.0176 42.7268 20.4402 41.1494 18.502 41.1494ZM19.6738 52.8682C19.6738 53.515 19.1477 54.04 18.502 54.04H12.6426C11.9957 54.04 11.4707 54.5639 11.4707 55.2119V58.7275C11.4707 59.3756 11.9957 59.8994 12.6426 59.8994H18.502C19.1477 59.8994 19.6738 60.4244 19.6738 61.0713C19.6738 61.7182 19.1477 62.2432 18.502 62.2432H10.2988C9.65313 62.2432 9.12695 61.7182 9.12695 61.0713V52.8682C9.12695 52.2213 9.65313 51.6963 10.2988 51.6963H16.1582C16.8051 51.6963 17.3301 51.1725 17.3301 50.5244V47.0088C17.3301 46.3607 16.8051 45.8369 16.1582 45.8369H10.2988C9.65313 45.8369 9.12695 45.3119 9.12695 44.665C9.12695 44.0182 9.65313 43.4932 10.2988 43.4932H18.502C19.1477 43.4932 19.6738 44.0182 19.6738 44.665V52.8682Z" fill="#595579"/>
<path d="M75.9238 30.6025C75.9238 13.8014 62.2551 0.133789 45.4551 0.133789C28.6551 0.133789 14.9863 13.8014 14.9863 30.6025C14.9863 32.1518 15.1141 33.7221 15.3602 35.29H4.43945C2.50117 35.29 0.923828 36.8674 0.923828 38.8057V66.9307C0.923828 68.8689 2.50117 70.4463 4.43945 70.4463H29.6348L32.7988 74.665C33.0203 74.9604 33.3672 75.1338 33.7363 75.1338C34.1055 75.1338 34.4523 74.9604 34.6738 74.665L37.8379 70.4463H43.1113C45.0496 70.4463 46.627 68.8689 46.627 66.9307V61.042C62.8855 60.4221 75.9238 47.0111 75.9238 30.6025ZM44.2832 66.9307C44.2832 67.5775 43.757 68.1025 43.1113 68.1025H37.252C36.8828 68.1025 36.5359 68.276 36.3145 68.5713L33.7363 72.0084L31.1582 68.5713C30.9367 68.276 30.5898 68.1025 30.2207 68.1025H4.43945C3.79375 68.1025 3.26758 67.5775 3.26758 66.9307V38.8057C3.26758 38.1588 3.79375 37.6338 4.43945 37.6338H43.1113C43.757 37.6338 44.2832 38.1588 44.2832 38.8057V66.9307ZM22.0176 30.6025C22.0176 17.6791 32.5316 7.16504 45.4551 7.16504C58.3785 7.16504 68.8926 17.6791 68.8926 30.6025C68.8926 43.1299 59.0043 53.3639 46.627 53.9803V38.8057C46.627 36.8674 45.0496 35.29 43.1113 35.29H22.5145C22.191 33.7279 22.0176 32.1553 22.0176 30.6025ZM46.627 58.6982V56.3545C60.3004 55.7381 71.2363 44.426 71.2363 30.6025C71.2363 16.3865 59.6711 4.82129 45.4551 4.82129C31.2391 4.82129 19.6738 16.3865 19.6738 30.6025C19.6738 32.1576 19.825 33.7279 20.118 35.29H17.7402C17.473 33.7221 17.3301 32.1494 17.3301 30.6025C17.3301 15.0951 29.9477 2.47754 45.4551 2.47754C60.9625 2.47754 73.5801 15.0951 73.5801 30.6025C73.5801 45.7174 61.593 58.0807 46.627 58.6982Z" fill="#595579"/>
</g>
<defs>
<clipPath id="clip0_138_984">
<rect width="75" height="75" fill="white" transform="translate(0.923828 0.133789)"/>
</clipPath>
</defs>
</svg>
