<svg width="76" height="76" viewBox="0 0 76 76" fill="none" xmlns="http://www.w3.org/2000/svg">
<path d="M70.2215 21.3445H19.2918C17.5457 21.3445 16.1304 22.7599 16.1304 24.506V56.7053C16.1304 58.4514 17.5457 59.8667 19.2918 59.8667H39.3795L43.3243 70.764C43.8092 72.1037 45.7041 72.1037 46.189 70.764L50.1338 59.8667H70.2215C71.9676 59.8667 73.3829 58.4514 73.3829 56.7053V24.506C73.3829 22.7599 71.9676 21.3445 70.2215 21.3445Z" fill="#8AFEA1"/>
<path d="M23.1483 59.867H19.2926C17.5447 59.867 16.1309 58.4505 16.1309 56.7053V24.5063C16.1309 22.7608 17.5447 21.3445 19.2926 21.3445H23.1483C21.4005 21.3445 19.9866 22.761 19.9866 24.5063V56.705C19.9866 58.4505 21.4005 59.867 23.1483 59.867Z" fill="#5FFE7E"/>
<path d="M73.3822 24.5063V56.705C73.3822 58.4505 71.9684 59.8667 70.2205 59.8667H66.3647C68.1126 59.8667 69.5265 58.4502 69.5265 56.705V24.5063C69.5265 22.7608 68.1126 21.3445 66.3647 21.3445H70.2205C71.9684 21.3445 73.3822 22.761 73.3822 24.5063Z" fill="#5FFE7E"/>
<path d="M23.4482 12.2262H15.8311V6.07385C15.8311 5.26497 16.487 4.60901 17.2959 4.60901H21.9834C22.7923 4.60901 23.4482 5.26497 23.4482 6.07385V12.2262Z" fill="#D7D1FA"/>
<path d="M35.5986 28.9824C37.0279 20.1654 31.039 11.8592 22.222 10.4299C13.405 9.00061 5.09881 14.9895 3.66951 23.8065C2.24022 32.6234 8.22911 40.9297 17.0461 42.359C25.863 43.7883 34.1693 37.7994 35.5986 28.9824Z" fill="#D7D1FA"/>
<path d="M30.4672 26.3974C30.4672 26.492 30.466 26.5858 30.4637 26.6792C30.3137 32.5281 25.5248 37.2243 19.6399 37.2243C13.6604 37.2243 8.81299 32.3769 8.81299 26.3974C8.81299 20.4179 13.6604 15.5704 19.6399 15.5704C25.6197 15.5704 30.4672 20.4179 30.4672 26.3974Z" fill="#DFFE3E"/>
<path d="M30.4669 26.3974C30.4669 26.492 30.4657 26.5858 30.4634 26.6792H19.6396V15.5704C25.6194 15.5704 30.4669 20.4179 30.4669 26.3974Z" fill="#C5E6FE"/>
<path d="M70.2227 20.1715H35.8311C34.9287 17.831 33.5315 15.7362 31.7708 14.0136L33.9133 11.8714L34.881 12.8391C35.3395 13.2973 36.0815 13.2958 36.538 12.8391C36.9959 12.3815 36.9959 11.6394 36.538 11.1817C33.4894 8.13312 35.7118 10.3556 32.9453 7.58907C32.4874 7.13146 31.7453 7.13146 31.2883 7.58907C30.8304 8.04669 30.8304 8.78878 31.2883 9.2464L32.256 10.2141L29.9863 12.4837C28.3867 11.2884 26.5732 10.3655 24.6191 9.7796V6.07355C24.6191 4.62042 23.4385 3.43683 21.9824 3.43683H17.2949C15.8418 3.43683 14.6582 4.62042 14.6582 6.07355V9.7796C7.5127 11.9241 2.29199 18.5628 2.29199 26.3968C2.29199 34.3392 7.65918 41.054 14.957 43.1019V56.7044C14.957 59.095 16.9023 61.0374 19.293 61.0374H38.5586L42.2236 71.1624C43.0762 73.5275 46.4295 73.5372 47.292 71.1624L50.957 61.0374H70.2227C72.6104 61.0374 74.5557 59.095 74.5557 56.7044V24.5071C74.5557 22.1168 72.6104 20.1715 70.2227 20.1715ZM17.002 6.07355C17.002 5.91241 17.1338 5.78058 17.2949 5.78058H21.9824C22.1436 5.78058 22.2754 5.91241 22.2754 6.07355V9.24933C20.5469 8.9839 18.7337 8.98331 17.002 9.24933V6.07355ZM4.63574 26.3971C4.63574 18.1333 11.3573 11.3942 19.6387 11.3942C27.886 11.3942 34.6416 18.0964 34.6416 26.3971C34.6416 34.6705 27.9121 41.4 19.6387 41.4C11.3421 41.4 4.63574 34.6447 4.63574 26.3971ZM72.2119 56.7047C72.2119 57.8033 71.3184 58.694 70.2227 58.694H50.1338C49.6416 58.694 49.1992 59.0045 49.0322 59.4674L45.0859 70.3658C44.9755 70.6775 44.5372 70.6778 44.4268 70.3658L40.4805 59.4674C40.3135 59.0045 39.874 58.694 39.3789 58.694H19.293C18.1943 58.694 17.3008 57.8033 17.3008 56.7047V43.5856C29.1771 45.2241 39.2813 34.4066 36.5459 22.5152H70.2227C71.3184 22.5152 72.2119 23.4088 72.2119 24.5074V56.7047Z" fill="#595579"/>
<path d="M42.1885 28.3333H59.7666C60.4141 28.3333 60.9385 27.806 60.9385 27.1614C60.9385 26.514 60.4141 25.9896 59.7666 25.9896H42.1885C41.541 25.9896 41.0166 26.514 41.0166 27.1614C41.0166 27.8063 41.541 28.3333 42.1885 28.3333Z" fill="#595579"/>
<path d="M66.792 25.9896H64.1611C63.5137 25.9896 62.9893 26.514 62.9893 27.1614C62.9893 27.806 63.5137 28.3333 64.1611 28.3333H66.792C67.4395 28.3333 67.9639 27.806 67.9639 27.1614C67.9639 26.514 67.4395 25.9896 66.792 25.9896Z" fill="#595579"/>
<path d="M66.7907 32.412H42.189C41.5418 32.412 41.0171 32.9367 41.0171 33.5839C41.0171 34.2311 41.5418 34.7558 42.189 34.7558H66.7907C67.4379 34.7558 67.9626 34.2311 67.9626 33.5839C67.9626 32.9367 67.4379 32.412 66.7907 32.412Z" fill="#595579"/>
<path d="M37.2417 41.1794H59.1777C59.8249 41.1794 60.3496 40.6547 60.3496 40.0075C60.3496 39.3604 59.8249 38.8357 59.1777 38.8357H37.2417C36.5945 38.8357 36.0698 39.3604 36.0698 40.0075C36.0698 40.6547 36.5945 41.1794 37.2417 41.1794Z" fill="#595579"/>
<path d="M54.4902 45.259H22.7222C22.075 45.259 21.5503 45.7837 21.5503 46.4309C21.5503 47.078 22.075 47.6028 22.7222 47.6028H54.4902C55.1374 47.6028 55.6621 47.078 55.6621 46.4309C55.6621 45.7837 55.1374 45.259 54.4902 45.259Z" fill="#595579"/>
<path d="M54.4902 51.6826H22.7222C22.075 51.6826 21.5503 52.2073 21.5503 52.8545C21.5503 53.5017 22.075 54.0264 22.7222 54.0264H54.4902C55.1374 54.0264 55.6621 53.5017 55.6621 52.8545C55.6621 52.2073 55.1374 51.6826 54.4902 51.6826Z" fill="#595579"/>
<path d="M67.6561 39.1272C67.2199 38.649 66.4784 38.6151 66.0008 39.0516L58.8638 45.5654C58.0755 46.285 58.5861 47.603 59.6537 47.603H63.7371L58.87 51.9838C58.3886 52.4168 58.35 53.1577 58.783 53.6388C59.2154 54.1198 59.9566 54.1588 60.4377 53.7258L67.5747 47.3022C68.3727 46.5841 67.8594 45.2593 66.7907 45.2593H62.6759L67.5805 40.7827C68.0587 40.3462 68.0926 39.605 67.6561 39.1272Z" fill="#595579"/>
<path d="M19.6387 38.3971C26.3336 38.3971 31.6387 33.0601 31.6387 26.3971C31.6387 19.7669 26.2425 14.4 19.6387 14.4C13.0234 14.4 7.6416 19.7819 7.6416 26.3971C7.6416 32.9936 13.0062 38.3971 19.6387 38.3971ZM29.2539 25.5065H20.8105C20.8105 22.6073 20.8105 19.7113 20.8105 16.817C25.31 17.3593 28.8411 21.0032 29.2539 25.5065ZM9.98535 26.3971C9.98535 21.4694 13.6943 17.3942 18.4668 16.817V26.6783C18.4668 27.3258 18.9912 27.8502 19.6387 27.8502H29.1895C28.4951 32.5377 24.5107 36.0533 19.6387 36.0533C14.338 36.0533 9.98535 31.7397 9.98535 26.3971Z" fill="#595579"/>
</svg>
