<svg width="61" height="66" viewBox="0 0 61 66" fill="none" xmlns="http://www.w3.org/2000/svg">
<g clip-path="url(#clip0_90_2)">
<path d="M31.3781 3.7854H29.4355V16.5309H31.3781V3.7854Z" fill="url(#paint0_linear_90_2)"/>
<path d="M37.1106 23.5718H23.6991C22.712 23.5718 21.9072 22.771 21.9072 21.7799V16.987C21.9072 15.9998 22.708 15.1951 23.6991 15.1951H37.1106C38.0978 15.1951 38.9025 15.9959 38.9025 16.987V21.7799C38.9025 22.767 38.1017 23.5718 37.1106 23.5718Z" fill="url(#paint1_linear_90_2)"/>
<path d="M60.8096 51.4254C60.8096 59.1679 54.534 65.4435 46.7916 65.4435H14.0181C6.30733 65.4474 0 59.1362 0 51.4254V44.1429C0 30.4261 11.2232 19.199 24.9439 19.199H35.8697C49.5904 19.199 60.8136 30.4221 60.8136 44.1429V51.4254H60.8096Z" fill="url(#paint2_linear_90_2)"/>
<path d="M51.2475 50.0975C50.4507 50.49 49.5587 50.6962 48.6548 50.6962H12.1587C11.2509 50.6962 10.3589 50.49 9.56602 50.0975C7.61158 49.1302 6.50948 47.1797 6.78302 45.1777L6.80285 45.0311C7.73844 38.252 13.8793 33.0388 21.4037 32.6503C24.5871 32.4838 27.929 32.4005 31.4177 32.4204C34.1491 32.4362 36.7894 32.5155 39.3306 32.6463C46.8867 33.0348 53.0711 38.2282 54.0107 45.0311C54.0186 45.0786 54.0226 45.1302 54.0305 45.1777C54.3041 47.1837 53.202 49.1342 51.2475 50.0975Z" fill="url(#paint3_linear_90_2)"/>
<path d="M20.7891 49.2055C24.5901 49.2055 27.6713 46.1242 27.6713 42.3233C27.6713 38.5224 24.5901 35.4412 20.7891 35.4412C16.9882 35.4412 13.907 38.5224 13.907 42.3233C13.907 46.1242 16.9882 49.2055 20.7891 49.2055Z" fill="url(#paint4_radial_90_2)"/>
<path d="M20.7892 47.263C23.5173 47.263 25.7288 45.0515 25.7288 42.3234C25.7288 39.5953 23.5173 37.3838 20.7892 37.3838C18.0612 37.3838 15.8496 39.5953 15.8496 42.3234C15.8496 45.0515 18.0612 47.263 20.7892 47.263Z" fill="#EEFDFF"/>
<path d="M20.7891 46.47C23.0793 46.47 24.9358 44.6134 24.9358 42.3233C24.9358 40.0331 23.0793 38.1765 20.7891 38.1765C18.4989 38.1765 16.6423 40.0331 16.6423 42.3233C16.6423 44.6134 18.4989 46.47 20.7891 46.47Z" fill="url(#paint5_linear_90_2)"/>
<path d="M23.4453 41.2489C23.4453 42.0972 22.7555 42.7871 21.9071 42.7871C21.0587 42.7871 20.3689 42.0972 20.3689 41.2489C20.3689 40.4005 21.0587 39.7107 21.9071 39.7107C22.7555 39.7107 23.4453 40.4005 23.4453 41.2489Z" fill="#EEFDFF"/>
<path d="M20.1748 46.1171C20.5141 46.1171 20.7893 45.842 20.7893 45.5027C20.7893 45.1633 20.5141 44.8882 20.1748 44.8882C19.8354 44.8882 19.5603 45.1633 19.5603 45.5027C19.5603 45.842 19.8354 46.1171 20.1748 46.1171Z" fill="#EEFDFF"/>
<path d="M18.6523 44.5831C18.6523 44.7536 18.5135 44.8883 18.347 44.8883C18.1765 44.8883 18.0417 44.7496 18.0417 44.5831C18.0417 44.4126 18.1805 44.2778 18.347 44.2778C18.5175 44.2778 18.6523 44.4166 18.6523 44.5831Z" fill="#EEFDFF"/>
<path d="M39.3783 49.2055C43.1792 49.2055 46.2604 46.1242 46.2604 42.3233C46.2604 38.5224 43.1792 35.4412 39.3783 35.4412C35.5773 35.4412 32.4961 38.5224 32.4961 42.3233C32.4961 46.1242 35.5773 49.2055 39.3783 49.2055Z" fill="url(#paint6_radial_90_2)"/>
<path d="M39.3783 47.263C42.1064 47.263 44.318 45.0515 44.318 42.3234C44.318 39.5953 42.1064 37.3838 39.3783 37.3838C36.6503 37.3838 34.4387 39.5953 34.4387 42.3234C34.4387 45.0515 36.6503 47.263 39.3783 47.263Z" fill="#EEFDFF"/>
<path d="M39.3782 46.47C41.6684 46.47 43.5249 44.6134 43.5249 42.3233C43.5249 40.0331 41.6684 38.1765 39.3782 38.1765C37.088 38.1765 35.2314 40.0331 35.2314 42.3233C35.2314 44.6134 37.088 46.47 39.3782 46.47Z" fill="url(#paint7_linear_90_2)"/>
<path d="M42.0344 41.2489C42.0344 42.0972 41.3446 42.7871 40.4962 42.7871C39.6478 42.7871 38.958 42.0972 38.958 41.2489C38.958 40.4005 39.6478 39.7107 40.4962 39.7107C41.3446 39.7107 42.0344 40.4005 42.0344 41.2489Z" fill="#EEFDFF"/>
<path d="M38.7639 46.1171C39.1033 46.1171 39.3784 45.842 39.3784 45.5027C39.3784 45.1633 39.1033 44.8882 38.7639 44.8882C38.4245 44.8882 38.1494 45.1633 38.1494 45.5027C38.1494 45.842 38.4245 46.1171 38.7639 46.1171Z" fill="#EEFDFF"/>
<path d="M37.2455 44.5831C37.2455 44.7536 37.1068 44.8883 36.9403 44.8883C36.7738 44.8883 36.635 44.7496 36.635 44.5831C36.635 44.4126 36.7738 44.2778 36.9403 44.2778C37.1068 44.2778 37.2455 44.4166 37.2455 44.5831Z" fill="#EEFDFF"/>
<path d="M32.8926 2.93714C32.8926 4.31278 31.7786 5.42677 30.403 5.42677C29.0273 5.42677 27.9133 4.31278 27.9133 2.93714C27.9173 1.5615 29.0313 0.44751 30.4069 0.44751C31.7786 0.44751 32.8926 1.5615 32.8926 2.93714Z" fill="url(#paint8_linear_90_2)"/>
<path d="M32.1352 1.96597C32.1352 2.3862 31.7943 2.72317 31.378 2.72317C30.9578 2.72317 30.6208 2.38223 30.6208 1.96597C30.6208 1.54575 30.9618 1.20877 31.378 1.20877C31.7943 1.20481 32.1352 1.54575 32.1352 1.96597Z" fill="white"/>
<path d="M51.8303 27.1793C51.862 28.3409 50.9145 29.7284 49.8282 29.8473C48.8094 29.9583 47.9967 28.9197 47.1602 27.8453C46.3356 26.7868 44.5279 24.0712 45.2454 23.3021C46.1929 22.2912 51.751 24.4399 51.8303 27.1793Z" fill="white"/>
<path d="M42.5298 22.7512C43.0071 22.7512 43.394 22.3642 43.394 21.8869C43.394 21.4096 43.0071 21.0227 42.5298 21.0227C42.0525 21.0227 41.6655 21.4096 41.6655 21.8869C41.6655 22.3642 42.0525 22.7512 42.5298 22.7512Z" fill="white"/>
<path d="M51.7075 43.2946C51.43 43.4889 49.4953 39.5483 44.302 36.135C42.4784 34.9337 40.6746 34.0774 40.7816 33.8277C40.8887 33.574 42.9184 34.0457 44.5438 34.799C49.7213 37.1974 52.0365 43.0607 51.7075 43.2946Z" fill="white"/>
<path d="M38.4109 17.6727C38.3475 17.6807 38.3078 17.3199 38.0065 16.757C38.0065 16.757 37.8638 16.4953 37.7013 16.2733C37.178 15.5557 35.4138 15.5716 35.2751 15.5716C32.5238 15.5954 30.7517 15.421 30.7517 15.4368C30.7517 15.4527 32.0441 15.4249 32.9876 15.4051C35.6556 15.3496 37.2454 15.2069 37.9272 15.9205C38.2087 16.2178 38.3514 16.6023 38.3514 16.6023C38.5496 17.1296 38.4862 17.6648 38.4109 17.6727Z" fill="white"/>
<path d="M37.84 53.6535C37.7726 54.3116 37.2255 54.819 36.5635 54.8824L27.4494 55.7625C26.7913 55.826 26.153 55.4335 25.9627 54.7992C25.8755 54.5177 25.8121 54.2283 25.7685 53.927C25.7566 53.8438 25.7764 53.7605 25.8279 53.6931C25.8795 53.6257 25.9548 53.5861 26.0381 53.5782L37.5387 52.4681C37.622 52.4602 37.7013 52.488 37.7647 52.5395C37.8281 52.595 37.8638 52.6703 37.8678 52.7536C37.8757 53.0588 37.8678 53.3562 37.84 53.6535Z" fill="#EEFDFF"/>
<path d="M37.8401 53.6536C37.5507 56.4802 35.3029 58.8033 32.3653 59.0848C29.4713 59.3662 26.8548 57.5704 25.9985 54.9103C26.2285 55.4772 26.8271 55.826 27.4495 55.7626L36.5676 54.8865C37.2217 54.8191 37.7688 54.3117 37.8401 53.6536Z" fill="url(#paint9_linear_90_2)"/>
</g>
<defs>
<linearGradient id="paint0_linear_90_2" x1="26.4474" y1="10.7349" x2="32.2736" y2="9.88527" gradientUnits="userSpaceOnUse">
<stop offset="0.0397" stop-color="#06CFF1"/>
<stop offset="1" stop-color="#DEFA8E"/>
</linearGradient>
<linearGradient id="paint1_linear_90_2" x1="24.9614" y1="25.5292" x2="35.3009" y2="13.8557" gradientUnits="userSpaceOnUse">
<stop offset="0.0397" stop-color="#06CFF1"/>
<stop offset="1" stop-color="#DEFA8E"/>
</linearGradient>
<linearGradient id="paint2_linear_90_2" x1="9.98564" y1="65.9639" x2="50.9569" y2="24.9926" gradientUnits="userSpaceOnUse">
<stop offset="0.0397" stop-color="#06CFF1"/>
<stop offset="1" stop-color="#DEFA8E"/>
</linearGradient>
<linearGradient id="paint3_linear_90_2" x1="30.2977" y1="50.6395" x2="30.6618" y2="34.2533" gradientUnits="userSpaceOnUse">
<stop stop-color="#030D14"/>
<stop offset="1" stop-color="#0B2F45"/>
</linearGradient>
<radialGradient id="paint4_radial_90_2" cx="0" cy="0" r="1" gradientUnits="userSpaceOnUse" gradientTransform="translate(20.7874 42.3233) scale(6.81017)">
<stop offset="0.1296" stop-color="#3280FC"/>
<stop offset="1"/>
</radialGradient>
<linearGradient id="paint5_linear_90_2" x1="16.6388" y1="42.3232" x2="24.9358" y2="42.3232" gradientUnits="userSpaceOnUse">
<stop stop-color="#030D14"/>
<stop offset="1" stop-color="#0B2F45"/>
</linearGradient>
<radialGradient id="paint6_radial_90_2" cx="0" cy="0" r="1" gradientUnits="userSpaceOnUse" gradientTransform="translate(39.3773 42.3233) scale(6.81017)">
<stop offset="0.1296" stop-color="#3280FC"/>
<stop offset="1"/>
</radialGradient>
<linearGradient id="paint7_linear_90_2" x1="35.2288" y1="42.3232" x2="43.5258" y2="42.3232" gradientUnits="userSpaceOnUse">
<stop stop-color="#030D14"/>
<stop offset="1" stop-color="#0B2F45"/>
</linearGradient>
<linearGradient id="paint8_linear_90_2" x1="25.1675" y1="3.69965" x2="32.878" y2="2.57519" gradientUnits="userSpaceOnUse">
<stop offset="0.0397" stop-color="#06CFF1"/>
<stop offset="1" stop-color="#DEFA8E"/>
</linearGradient>
<linearGradient id="paint9_linear_90_2" x1="30.1566" y1="57.0039" x2="42.0192" y2="45.1414" gradientUnits="userSpaceOnUse">
<stop offset="0.0714" stop-color="#0DA9AB"/>
<stop offset="1" stop-color="#DEFA8E"/>
</linearGradient>
<clipPath id="clip0_90_2">
<rect width="60.8096" height="65" fill="white" transform="translate(0 0.44751)"/>
</clipPath>
</defs>
</svg>
