<svg width="76" height="76" viewBox="0 0 76 76" fill="none" xmlns="http://www.w3.org/2000/svg">
<path d="M57.1739 62.7128C62.2325 59.3043 65.377 54.5292 65.377 49.2432C65.377 38.8878 53.3096 30.4932 38.4238 30.4932C33.2707 30.4932 28.4553 31.4992 24.3613 33.2443C23.6618 31.7236 22.5409 30.4354 21.1315 29.5324C19.7221 28.6294 18.0833 28.1494 16.4095 28.1494H13.8145L17.33 37.5699C15.0076 39.5982 13.2769 41.9689 12.3198 44.5557H6.7832V51.5869L12.8129 55.1025C14.192 58.0213 16.5734 60.6238 19.6738 62.7128L16.1582 71.5088H24.3613L27.8769 66.5033C34.7679 68.4898 42.0798 68.4898 48.9707 66.5033L52.4863 71.5088H60.6895L57.1739 62.7128Z" fill="#5696FF"/>
<path d="M38.4238 41.04C42.9543 41.04 46.627 37.3674 46.627 32.8369C46.627 28.3065 42.9543 24.6338 38.4238 24.6338C33.8934 24.6338 30.2207 28.3065 30.2207 32.8369C30.2207 37.3674 33.8934 41.04 38.4238 41.04Z" fill="#5FFE7E"/>
<path d="M22.0176 41.04H18.502V43.3838H22.0176V41.04Z" fill="#91BCFB"/>
<path d="M65.377 42.2119H63.0332V39.8682H65.377C65.9986 39.8682 66.5947 39.6212 67.0342 39.1817C67.4738 38.7422 67.7207 38.146 67.7207 37.5244C67.7207 36.9028 67.4738 36.3067 67.0342 35.8671C66.5947 35.4276 65.9986 35.1807 65.377 35.1807H63.0332V32.8369H65.377C66.6202 32.8369 67.8124 33.3308 68.6915 34.2099C69.5706 35.0889 70.0645 36.2812 70.0645 37.5244C70.0645 38.7676 69.5706 39.9599 68.6915 40.839C67.8124 41.7181 66.6202 42.2119 65.377 42.2119Z" fill="#68A3F8"/>
<path d="M58.0895 47.1854C57.7973 46.0616 57.3063 44.9991 56.6396 44.0484L58.57 42.7192C59.3952 43.8998 60.0022 45.2187 60.3623 46.6135L58.0895 47.1854Z" fill="#2578FF"/>
<path d="M53.0868 60.7313L51.8857 58.7186C55.9912 56.269 58.3456 52.8153 58.3456 49.2432H60.6894C60.6894 53.661 57.9184 57.8483 53.0868 60.7313Z" fill="#2578FF"/>
<path d="M43.1113 32.8369H40.7676C40.7669 32.2155 40.5197 31.6198 40.0803 31.1804C39.6409 30.741 39.0452 30.4939 38.4238 30.4932V28.1494C39.6666 28.1508 40.8581 28.6452 41.7368 29.5239C42.6156 30.4027 43.1099 31.5941 43.1113 32.8369Z" fill="#F2C383"/>
<path d="M54.8302 12.915L33.7364 3.54004L33.5452 3.93482C33.2712 4.50045 33.1138 5.1154 33.0822 5.7431C33.0507 6.3708 33.1457 6.99844 33.3616 7.58868C33.5775 8.17892 33.9099 8.71972 34.339 9.17891C34.7682 9.63809 35.2852 10.0063 35.8595 10.2616L25.6798 5.7373L25.565 5.96222C25.2757 6.52936 25.1048 7.14951 25.063 7.78484C25.0212 8.42018 25.1092 9.05737 25.3218 9.65755C25.5343 10.2577 25.8669 10.8083 26.2993 11.2757C26.7316 11.7431 27.2547 12.1176 27.8365 12.3762L18.5021 8.22754L18.2546 8.72242C17.6987 9.83438 17.6072 11.1216 18.0003 12.301C18.3935 13.4804 19.239 14.4554 20.3509 15.0113L31.9235 20.7976L32.0318 20.7525C30.1076 21.5527 28.4635 22.9048 27.307 24.6384C26.1505 26.372 25.5333 28.4092 25.5333 30.4932V37.5244H27.8771C28.4987 37.5244 29.0948 37.2775 29.5343 36.8379C29.9739 36.3984 30.2208 35.8023 30.2208 35.1807V32.8369C30.2208 30.6613 31.0851 28.5748 32.6235 27.0364C34.1618 25.498 36.2483 24.6338 38.4239 24.6338C40.5995 24.6338 42.686 25.498 44.2244 27.0364C45.7628 28.5748 46.6271 30.6613 46.6271 32.8369V35.1807C46.6271 35.8023 46.874 36.3984 47.3135 36.8379C47.7531 37.2775 48.3492 37.5244 48.9708 37.5244H51.3146L54.3592 26.3608C54.4945 25.8648 54.7891 25.427 55.1977 25.1149C55.6063 24.8029 56.1062 24.6338 56.6203 24.6338H73.5802V12.915H54.8302Z" fill="#FFDAF5"/>
<path d="M29.3831 11.7812C28.7917 11.5184 28.0992 11.7847 27.8363 12.3761C27.5734 12.9676 27.8398 13.6601 28.4312 13.923L38.0487 18.1974C38.6401 18.4603 39.3327 18.1939 39.5955 17.6025C39.8584 17.0111 39.592 16.3186 39.0006 16.0557L29.3831 11.7812Z" fill="#FFA463"/>
<path d="M37.4065 9.6669C36.8151 9.40404 36.1226 9.6704 35.8597 10.2618C35.5969 10.8533 35.8632 11.5458 36.4547 11.8086L45.2264 15.7072C45.8179 15.9701 46.5104 15.7037 46.7732 15.1123C47.0361 14.5208 46.7697 13.8283 46.1783 13.5654L37.4065 9.6669Z" fill="#FFA463"/>
<path d="M10.2988 15.2588C10.2656 15.2589 10.2334 15.2704 10.2076 15.2913C10.1817 15.3122 10.1638 15.3413 10.1568 15.3738C9.91239 16.4553 9.36647 17.4454 8.58233 18.2294C7.7982 19.0133 6.80795 19.5589 5.72637 19.8031C5.69388 19.8101 5.66476 19.828 5.64384 19.8538C5.62292 19.8796 5.61145 19.9118 5.61133 19.9451V19.9475C5.61145 19.9808 5.62292 20.013 5.64384 20.0388C5.66476 20.0646 5.69388 20.0825 5.72637 20.0895C6.80795 20.3336 7.7982 20.8793 8.58233 21.6632C9.36647 22.4471 9.91239 23.4372 10.1568 24.5187C10.1638 24.5512 10.1817 24.5804 10.2076 24.6013C10.2334 24.6222 10.2656 24.6337 10.2988 24.6338H10.3C10.3333 24.6337 10.3655 24.6222 10.3913 24.6013C10.4171 24.5804 10.435 24.5512 10.4421 24.5187C10.6862 23.4372 11.2318 22.4469 12.0158 21.6628C12.7997 20.8786 13.7898 20.3327 14.8713 20.0883C14.9038 20.0813 14.9329 20.0634 14.9538 20.0376C14.9747 20.0117 14.9862 19.9795 14.9863 19.9463V19.9451C14.9862 19.9118 14.9747 19.8796 14.9538 19.8538C14.9329 19.828 14.9038 19.8101 14.8713 19.8031C13.7897 19.5589 12.7995 19.0133 12.0153 18.2294C11.2312 17.4454 10.6853 16.4553 10.4408 15.3738C10.4338 15.3413 10.4159 15.3122 10.3901 15.2913C10.3643 15.2704 10.3321 15.2589 10.2988 15.2588Z" fill="#5FFE7E"/>
<path d="M41.9407 49.2432H41.9382C41.905 49.2433 41.8728 49.2548 41.847 49.2757C41.8211 49.2966 41.8032 49.3257 41.7962 49.3582C41.5521 50.4398 41.0065 51.43 40.2225 52.2142C39.4386 52.9983 38.4485 53.5442 37.367 53.7887C37.3345 53.7957 37.3054 53.8136 37.2845 53.8394C37.2635 53.8652 37.2521 53.8974 37.252 53.9307V53.9319C37.2521 53.9651 37.2635 53.9973 37.2845 54.0232C37.3054 54.049 37.3345 54.0669 37.367 54.0739C38.4486 54.318 39.4388 54.8637 40.223 55.6476C41.0071 56.4315 41.553 57.4216 41.7974 58.5031C41.8045 58.5356 41.8224 58.5647 41.8482 58.5857C41.874 58.6066 41.9062 58.618 41.9395 58.6182C41.9727 58.618 42.0049 58.6066 42.0307 58.5857C42.0566 58.5647 42.0745 58.5356 42.0815 58.5031C42.3259 57.4216 42.8718 56.4315 43.6559 55.6476C44.4401 54.8637 45.4303 54.318 46.5119 54.0739C46.5444 54.0669 46.5735 54.049 46.5944 54.0232C46.6154 53.9973 46.6268 53.9651 46.627 53.9319V53.9307C46.6268 53.8974 46.6154 53.8652 46.5944 53.8394C46.5735 53.8136 46.5444 53.7957 46.5119 53.7887C45.4304 53.5442 44.4403 52.9983 43.6564 52.2142C42.8725 51.43 42.3268 50.4398 42.0827 49.3582C42.0757 49.3257 42.0578 49.2966 42.0319 49.2757C42.0061 49.2548 41.9739 49.2433 41.9407 49.2432Z" fill="#5FFE7E"/>
<path d="M22.0176 41.04H18.502V43.3838H22.0176V41.04Z" fill="#595579"/>
<path d="M54.3542 13.9859C54.504 14.0525 54.6661 14.0869 54.8301 14.0869H73.5801V11.7431H55.0787L34.2123 2.46914C33.9343 2.34569 33.6193 2.3351 33.3337 2.4396C33.0481 2.5441 32.8142 2.75551 32.6816 3.02919L32.4904 3.42401C31.9047 4.62326 31.7503 5.98773 32.0532 7.28753L26.1556 4.6664C25.8815 4.54462 25.5712 4.53256 25.2885 4.6327C25.0057 4.73284 24.7722 4.93755 24.6358 5.20471L24.5211 5.42958C23.8907 6.65322 23.7164 8.06125 24.0293 9.40168L18.9779 7.15664C18.7023 7.03419 18.3901 7.02268 18.1063 7.12451C17.8224 7.22634 17.5887 7.43367 17.4538 7.70338L17.2063 8.19834C16.5114 9.58827 16.3971 11.1973 16.8885 12.6716C17.3799 14.1458 18.4368 15.3645 19.8267 16.0594L29.4093 20.8508C27.8499 21.929 26.5757 23.3699 25.6963 25.0495C24.817 26.7291 24.3589 28.5973 24.3613 30.4931V30.9661C23.4358 29.7303 22.2356 28.7266 20.8555 28.0344C19.4755 27.3422 17.9533 26.9804 16.4094 26.9775H13.8145C13.6253 26.9775 13.4389 27.0233 13.2712 27.111C13.1036 27.1987 12.9597 27.3257 12.8518 27.4811C12.7439 27.6365 12.6752 27.8158 12.6517 28.0035C12.6281 28.1912 12.6504 28.3818 12.7165 28.5591L15.9541 37.2346C13.9694 39.0947 12.4842 41.1576 11.5268 43.3838H6.7832C6.47241 43.3838 6.17435 43.5073 5.95458 43.727C5.73481 43.9468 5.61134 44.2449 5.61133 44.5556V51.5869C5.61133 51.7918 5.66503 51.993 5.76709 52.1707C5.86915 52.3483 6.01599 52.4961 6.19297 52.5993L11.9152 55.9356C13.2601 58.6206 15.4314 61.0914 18.2412 63.1394L15.07 71.0739C14.9989 71.2517 14.9725 71.4442 14.9931 71.6346C15.0136 71.825 15.0805 72.0074 15.1879 72.1659C15.2953 72.3245 15.4398 72.4543 15.609 72.544C15.7782 72.6338 15.9667 72.6807 16.1582 72.6806H24.3613C24.5494 72.6806 24.7348 72.6354 24.9017 72.5486C25.0686 72.4619 25.2122 72.3362 25.3203 72.1823L28.3579 67.8574C34.9553 69.6009 41.8924 69.6009 48.4898 67.8574L51.5273 72.1823C51.6354 72.3362 51.779 72.4619 51.9459 72.5486C52.1129 72.6354 52.2982 72.6806 52.4863 72.6806H60.6895C60.8809 72.6807 61.0695 72.6338 61.2387 72.544C61.4078 72.4543 61.5524 72.3245 61.6598 72.1659C61.7671 72.0074 61.834 71.825 61.8546 71.6346C61.8751 71.4442 61.8487 71.2517 61.7776 71.0739L58.6066 63.1401C63.737 59.4117 66.5488 54.5069 66.5488 49.2431C66.5357 46.7877 65.9193 44.3732 64.754 42.2119H65.377C66.6202 42.2119 67.8124 41.718 68.6915 40.839C69.5706 39.9599 70.0645 38.7676 70.0645 37.5244C70.0645 36.2812 69.5706 35.0889 68.6915 34.2098C67.8124 33.3308 66.6202 32.8369 65.377 32.8369H63.0332V35.1806H65.377C65.9986 35.1806 66.5947 35.4276 67.0342 35.8671C67.4738 36.3067 67.7207 36.9028 67.7207 37.5244C67.7207 38.146 67.4738 38.7421 67.0342 39.1817C66.5947 39.6212 65.9986 39.8681 65.377 39.8681H63.2619C63.0922 39.6421 62.9182 39.4176 62.7359 39.1961C60.5517 36.542 57.502 34.2701 53.8766 32.5832L55.4896 26.6691C55.5576 26.4213 55.7051 26.2027 55.9093 26.0467C56.1135 25.8908 56.3633 25.8061 56.6202 25.8056H73.5801V23.4619H56.6202C55.8493 23.4632 55.1001 23.7173 54.4875 24.1852C53.8748 24.6532 53.4325 25.3091 53.2285 26.0526L50.4194 36.3525H48.9707C48.66 36.3522 48.3621 36.2286 48.1425 36.0089C47.9228 35.7892 47.7992 35.4913 47.7988 35.1806V32.8369C47.7988 30.3505 46.8111 27.9659 45.053 26.2078C43.2948 24.4496 40.9102 23.4619 38.4238 23.4619C35.9374 23.4619 33.5529 24.4496 31.7947 26.2078C30.0365 27.9659 29.0488 30.3505 29.0488 32.8369V35.1806C29.0485 35.4913 28.9249 35.7892 28.7052 36.0089C28.4855 36.2286 28.1876 36.3522 27.877 36.3525H26.7051V30.4931C26.701 28.1861 27.5493 25.9589 29.0871 24.2391C30.6249 22.5193 32.7438 21.4283 35.0369 21.1754L34.7795 18.8459C33.8206 18.9521 32.8785 19.1761 31.9744 19.5129L20.8749 13.9632C20.1285 13.5897 19.5392 12.9631 19.2123 12.1952C18.8853 11.4273 18.8421 10.5682 19.0902 9.77133L39.1198 18.6734L40.0716 16.5316L28.3124 11.3053C27.5665 10.9732 26.9593 10.3922 26.5945 9.66179C26.2298 8.93136 26.1302 8.09687 26.3128 7.30112L46.2975 16.1832L47.2494 14.0414L36.3356 9.19083C35.5755 8.85254 34.9599 8.25589 34.5979 7.50679C34.236 6.75768 34.1511 5.90457 34.3585 5.09885L54.3542 13.9859ZM38.4238 25.8056C39.8145 25.8056 41.1739 26.218 42.3302 26.9906C43.4865 27.7632 44.3877 28.8614 44.9199 30.1462C45.452 31.4309 45.5913 32.8447 45.32 34.2086C45.0487 35.5726 44.379 36.8254 43.3957 37.8087C42.4123 38.7921 41.1595 39.4617 39.7956 39.733C38.4316 40.0043 37.0179 39.8651 35.7331 39.3329C34.4483 38.8007 33.3502 37.8995 32.5776 36.7432C31.805 35.587 31.3926 34.2275 31.3926 32.8369C31.3947 30.9727 32.1362 29.1855 33.4543 27.8674C34.7725 26.5492 36.5597 25.8078 38.4238 25.8056ZM27.877 38.6963C28.3431 38.6965 28.8045 38.6037 29.2343 38.4234C29.6642 38.243 30.0537 37.9788 30.3801 37.6461C31.2112 39.0381 32.3893 40.1906 33.7992 40.9909C35.2091 41.7912 36.8026 42.2119 38.4238 42.2119C40.0451 42.2119 41.6385 41.7912 43.0484 40.9909C44.4584 40.1906 45.6365 39.0381 46.4676 37.6461C46.794 37.9788 47.1835 38.243 47.6133 38.4234C48.0431 38.6037 48.5046 38.6965 48.9707 38.6963H51.3145C51.5715 38.6963 51.8215 38.6117 52.0258 38.4556C52.23 38.2996 52.3774 38.0807 52.445 37.8327L53.2504 34.8793C56.3987 36.398 59.0356 38.388 60.9263 40.6854C63.0713 43.2918 64.2051 46.2509 64.2051 49.2431C64.2051 53.963 61.4755 58.4014 56.5191 61.7408C56.2969 61.8904 56.1328 62.1117 56.0539 62.3676C55.975 62.6236 55.9862 62.8989 56.0856 63.1476L58.9591 70.3369H53.0953L49.9297 65.8298C49.7887 65.6288 49.5882 65.4773 49.3564 65.3965C49.1246 65.3157 48.8733 65.3098 48.638 65.3796C41.9642 67.3018 34.8835 67.3018 28.2097 65.3796C27.9744 65.3099 27.7231 65.3159 27.4913 65.3967C27.2596 65.4774 27.059 65.6289 26.9179 65.8298L23.7524 70.3369H17.8885L20.762 63.1476C20.8614 62.8989 20.8726 62.6236 20.7938 62.3676C20.7149 62.1117 20.5507 61.8904 20.3286 61.7408C17.3696 59.7471 15.1371 57.2786 13.8725 54.602C13.7714 54.3879 13.6078 54.2094 13.4032 54.0901L7.95508 50.9137V45.7275H12.3199C12.5593 45.7275 12.793 45.6542 12.9895 45.5174C13.186 45.3805 13.3359 45.1868 13.4189 44.9622C14.2968 42.5891 15.8721 40.399 18.101 38.4525C18.2803 38.2958 18.4077 38.0883 18.4661 37.8574C18.5246 37.6265 18.5113 37.3833 18.428 37.1602L15.5026 29.3213H16.4094C17.8586 29.3238 19.2769 29.7406 20.4972 30.5224C21.7174 31.3043 22.6888 32.4186 23.2967 33.7341C23.3904 33.9376 23.5405 34.11 23.7292 34.2309C23.9179 34.3517 24.1373 34.4159 24.3613 34.4158V37.5244C24.3613 37.8352 24.4848 38.1333 24.7046 38.353C24.9243 38.5728 25.2224 38.6963 25.5332 38.6963H27.877Z" fill="#595579"/>
<path d="M9.12695 25.8057C9.12695 26.1165 9.25042 26.4145 9.47019 26.6343C9.68996 26.8541 9.98803 26.9775 10.2988 26.9775C10.6096 26.9775 10.9077 26.8541 11.1275 26.6343C11.3472 26.4145 11.4707 26.1165 11.4707 25.8057C11.4721 24.5629 11.9664 23.3714 12.8452 22.4927C13.724 21.6139 14.9154 21.1196 16.1582 21.1182C16.469 21.1182 16.7671 20.9947 16.9868 20.7749C17.2066 20.5552 17.3301 20.2571 17.3301 19.9463C17.3301 19.6355 17.2066 19.3374 16.9868 19.1176C16.7671 18.8979 16.469 18.7744 16.1582 18.7744C14.9154 18.773 13.724 18.2787 12.8452 17.3999C11.9664 16.5211 11.4721 15.3297 11.4707 14.0869C11.4707 13.7761 11.3472 13.478 11.1275 13.2583C10.9077 13.0385 10.6096 12.915 10.2988 12.915C9.98803 12.915 9.68996 13.0385 9.47019 13.2583C9.25042 13.478 9.12695 13.7761 9.12695 14.0869C9.12553 15.3297 8.63122 16.5211 7.75245 17.3999C6.87368 18.2787 5.68222 18.773 4.43945 18.7744C4.12865 18.7744 3.83058 18.8979 3.61081 19.1176C3.39104 19.3374 3.26758 19.6355 3.26758 19.9463C3.26758 20.2571 3.39104 20.5552 3.61081 20.7749C3.83058 20.9947 4.12865 21.1182 4.43945 21.1182C5.68222 21.1196 6.87368 21.6139 7.75245 22.4927C8.63122 23.3714 9.12553 24.5629 9.12695 25.8057ZM10.2988 17.9698C10.82 18.7532 11.4919 19.4252 12.2754 19.9463C11.4919 20.4674 10.82 21.1393 10.2988 21.9228C9.77769 21.1393 9.10578 20.4674 8.32229 19.9463C9.10578 19.4252 9.77769 18.7532 10.2988 17.9698Z" fill="#595579"/>
<path d="M36.0801 55.1025C37.3228 55.104 38.5143 55.5983 39.3931 56.477C40.2718 57.3558 40.7662 58.5473 40.7676 59.79C40.7676 60.1008 40.891 60.3989 41.1108 60.6187C41.3306 60.8384 41.6287 60.9619 41.9395 60.9619C42.2503 60.9619 42.5483 60.8384 42.7681 60.6187C42.9879 60.3989 43.1113 60.1008 43.1113 59.79C43.1128 58.5473 43.6071 57.3558 44.4858 56.477C45.3646 55.5983 46.5561 55.104 47.7988 55.1025C48.1096 55.1025 48.4077 54.9791 48.6275 54.7593C48.8472 54.5395 48.9707 54.2415 48.9707 53.9307C48.9707 53.6199 48.8472 53.3218 48.6275 53.102C48.4077 52.8823 48.1096 52.7588 47.7988 52.7588C46.5561 52.7574 45.3646 52.2631 44.4858 51.3843C43.6071 50.5055 43.1128 49.3141 43.1113 48.0713C43.1113 47.7605 42.9879 47.4624 42.7681 47.2426C42.5483 47.0229 42.2503 46.8994 41.9395 46.8994C41.6287 46.8994 41.3306 47.0229 41.1108 47.2426C40.891 47.4624 40.7676 47.7605 40.7676 48.0713C40.7662 49.3141 40.2718 50.5055 39.3931 51.3843C38.5143 52.2631 37.3228 52.7574 36.0801 52.7588C35.7693 52.7588 35.4712 52.8823 35.2514 53.102C35.0317 53.3218 34.9082 53.6199 34.9082 53.9307C34.9082 54.2415 35.0317 54.5395 35.2514 54.7593C35.4712 54.9791 35.7693 55.1025 36.0801 55.1025ZM41.9395 51.9541C42.4606 52.7376 43.1325 53.4095 43.916 53.9307C43.1325 54.4518 42.4606 55.1237 41.9395 55.9072C41.4183 55.1237 40.7464 54.4518 39.9629 53.9307C40.7464 53.4095 41.4183 52.7376 41.9395 51.9541Z" fill="#595579"/>
<path d="M60.3623 46.6135C60.0022 45.2187 59.3952 43.8998 58.57 42.7192L56.6396 44.0484C57.3063 44.9991 57.7973 46.0616 58.0895 47.1854L60.3623 46.6135Z" fill="#595579"/>
<path d="M60.6894 49.2432H58.3456C58.3456 52.8153 55.9912 56.269 51.8857 58.7186L53.0868 60.7313C57.9184 57.8483 60.6894 53.661 60.6894 49.2432Z" fill="#595579"/>
<path d="M40.7676 32.8369H43.1113C43.1099 31.5941 42.6156 30.4027 41.7368 29.5239C40.8581 28.6452 39.6666 28.1508 38.4238 28.1494V30.4932C39.0452 30.4939 39.6409 30.741 40.0803 31.1804C40.5197 31.6198 40.7669 32.2155 40.7676 32.8369Z" fill="#595579"/>
</svg>
