<svg width="70" height="76" viewBox="0 0 70 76" fill="none" xmlns="http://www.w3.org/2000/svg">
<path d="M0.775391 27.8831L36.6339 36.517L29.2744 53.1402L69.6605 75.0361L69.6977 27.8868L48.0067 0.0361328L0.775391 27.8831ZM44.6716 45.3111L61.6712 66.9239L34.5956 52.2421L44.6716 45.3111ZM35.3148 47.7072L39.3616 38.5665L42.6073 42.6915L35.3148 47.7072ZM47.4142 43.4182L66.1614 30.3797L66.2211 67.3301L47.4142 43.4182ZM45.3536 40.8023L40.8894 35.1233L41.2881 34.2141L40.9975 34.1433L48.3458 5.90511L64.9355 27.3241L45.3536 40.8023ZM9.54346 26.5714L44.966 5.68899L37.763 33.3682L9.54346 26.5714Z" fill="url(#paint0_radial_138_1181)"/>
<defs>
<radialGradient id="paint0_radial_138_1181" cx="0" cy="0" r="1" gradientUnits="userSpaceOnUse" gradientTransform="translate(35.2366 37.5361) rotate(47.4181) scale(50.9296 33.6351)">
<stop stop-color="#4BE96A"/>
<stop offset="1" stop-color="#A4FEB6"/>
</radialGradient>
</defs>
</svg>
