<svg width="1920" height="275" viewBox="0 0 1920 275" fill="none" xmlns="http://www.w3.org/2000/svg">
<path d="M0 5.2168L1920 85.2168V178.217L0 98.2168L0 5.2168Z" fill="#10061E"/>
<path d="M-369.716 57.617L-356.836 27.1359L-350.984 27.3403L-340.358 58.6422L-345.731 58.4546L-348.523 50.3842L-360.947 49.9503L-364.295 57.8063L-369.716 57.617ZM-359.991 45.9493L-349.245 46.3245L-354.124 31.9855L-359.991 45.9493ZM-335.216 58.8218L-334.137 27.9286L-328.908 28.1112L-329.987 59.0044L-335.216 58.8218ZM-324.505 48.2932L-324.362 44.2156L-306.038 44.8556L-306.18 48.9331L-324.505 48.2932ZM-301.486 59.9996L-300.407 29.1065L-286.64 29.5872C-284.273 29.6699 -282.338 30.1857 -280.834 31.1348C-279.33 32.0838 -278.238 33.3547 -277.557 34.9475C-276.875 36.5082 -276.569 38.28 -276.638 40.2628C-276.745 43.3329 -277.791 45.7619 -279.774 47.5498C-281.726 49.3387 -284.317 50.1768 -287.547 50.064L-295.894 49.7726L-296.257 60.1822L-301.486 59.9996ZM-295.75 45.6471L-288.362 45.9051C-286.284 45.9776 -284.698 45.4887 -283.604 44.4382C-282.511 43.3877 -281.932 41.9351 -281.867 40.0802C-281.798 38.0974 -282.256 36.5445 -283.241 35.4214C-284.195 34.2994 -285.679 33.7033 -287.694 33.6329L-295.321 33.3666L-295.75 45.6471ZM-259.536 61.9448C-264.429 61.774 -268.046 60.3669 -270.387 57.7236C-272.727 55.0483 -273.803 51.0083 -273.614 45.6036C-273.418 39.975 -272.06 35.9399 -269.541 33.4983C-267.023 31.0568 -263.317 29.9214 -258.424 30.0923C-253.499 30.2642 -249.881 31.6553 -247.571 34.2656C-245.228 36.8769 -244.156 40.9969 -244.352 46.6254C-244.541 52.0301 -245.896 55.9853 -248.417 58.4908C-250.905 60.9655 -254.611 62.1168 -259.536 61.9448ZM-259.382 57.5315C-256.152 57.6443 -253.755 56.8475 -252.19 55.1411C-250.592 53.4038 -249.723 50.5044 -249.581 46.4428C-249.431 42.1574 -250.094 39.1405 -251.57 37.3919C-253.013 35.6125 -255.349 34.6663 -258.579 34.5535C-261.778 34.4419 -264.174 35.2227 -265.77 36.896C-267.332 38.5385 -268.188 41.5025 -268.337 45.7878C-268.479 49.8494 -267.83 52.8018 -266.389 54.6452C-264.916 56.4578 -262.58 57.4199 -259.382 57.5315ZM-235.426 62.3065L-241.543 31.1621L-236.41 31.3413L-231.99 54.6938L-225.459 35.47L-225.329 31.7283L-221.059 31.8774L-215.296 55.2767L-209.162 32.2928L-204.078 32.4704L-212.304 63.1139L-217.437 62.9347L-222.87 41.0838L-230.197 62.4891L-235.426 62.3065ZM-200.017 63.543L-198.938 32.6498L-177.399 33.402L-177.541 37.4795L-193.852 36.91L-194.178 46.2643L-179.643 46.7718L-179.784 50.8014L-194.319 50.2938L-194.647 59.6961L-178.337 60.2656L-178.478 64.2952L-200.017 63.543ZM-173.642 64.464L-172.563 33.5709L-158.364 34.0667C-154.91 34.1873 -152.431 35.1704 -150.926 37.0161C-149.389 38.8308 -148.673 41.2573 -148.779 44.2955C-148.855 46.4701 -149.464 48.306 -150.605 49.8031C-151.745 51.3002 -153.35 52.3168 -155.418 52.853C-154.857 53.2888 -154.425 53.7522 -154.122 54.2431C-153.819 54.7339 -153.521 55.3847 -153.229 56.1954L-149.657 65.3016L-155.03 65.114L-158.518 56.3469C-158.84 55.5031 -159.252 54.8964 -159.751 54.5268C-160.218 54.1582 -161.044 53.9533 -162.227 53.912L-168.031 53.7093L-168.413 64.6466L-173.642 64.464ZM-167.884 49.4879L-160.305 49.7525C-158.418 49.8184 -156.915 49.4066 -155.795 48.5172C-154.675 47.6277 -154.079 46.1596 -154.008 44.1129C-153.873 40.2432 -155.676 38.2431 -159.418 38.1124L-167.477 37.831L-167.884 49.4879ZM-144.363 65.4865L-143.284 34.5933L-121.746 35.3455L-121.888 39.423L-138.198 38.8534L-138.525 48.2077L-123.989 48.7153L-124.13 52.7448L-138.665 52.2373L-138.994 61.6395L-122.684 62.2091L-122.824 66.2386L-144.363 65.4865ZM-117.989 66.4075L-116.91 35.5143L-104.389 35.9515C-99.8163 36.1112 -96.4688 37.4449 -94.347 39.9525C-92.2241 42.4281 -91.2603 46.4642 -91.4558 52.0607C-91.6401 57.3375 -92.8625 61.1692 -95.1232 63.5558C-97.3827 65.9103 -100.831 67.0067 -105.468 66.8447L-117.989 66.4075ZM-112.619 62.5605L-106.143 62.7867C-104.128 62.8571 -102.439 62.6279 -101.076 62.0991C-99.7116 61.5384 -98.6651 60.4543 -97.9366 58.8467C-97.208 57.2391 -96.7907 54.9163 -96.6846 51.8781C-96.5785 48.84 -96.8002 46.4788 -97.3498 44.7946C-97.8993 43.1104 -98.834 41.9091 -100.154 41.1906C-101.441 40.4732 -103.173 40.0765 -105.347 40.0006L-111.823 39.7744L-112.619 62.5605ZM-64.8906 68.2617L-75.6126 36.9565L-70.1919 37.1458L-61.8164 62.7497L-51.6752 37.7924L-46.2545 37.9817L-59.0382 68.4661L-64.8906 68.2617ZM-42.8938 69.0299L-41.815 38.1367L-36.5862 38.3193L-37.665 69.2125L-42.8938 69.0299ZM-31.6038 69.4241L-30.525 38.531L-16.3256 39.0268C-12.8717 39.1474 -10.3925 40.1305 -8.88804 41.9762C-7.35044 43.7909 -6.63468 46.2174 -6.74078 49.2555C-6.81672 51.4302 -7.42516 53.2661 -8.56611 54.7632C-9.70705 56.2603 -11.3115 57.2769 -13.3795 57.8131C-12.8183 58.2489 -12.3863 58.7123 -12.0832 59.2032C-11.7801 59.694 -11.4827 60.3448 -11.1908 61.1555L-7.61842 70.2617L-12.9911 70.0741L-16.4793 61.307C-16.8021 60.4632 -17.2131 59.8565 -17.7125 59.4869C-18.18 59.1183 -19.0053 58.9134 -20.1886 58.8721L-25.993 58.6694L-26.375 69.6067L-31.6038 69.4241ZM-25.8456 54.448L-18.2663 54.7126C-16.3794 54.7785 -14.8761 54.3667 -13.7564 53.4773C-12.6367 52.5878 -12.0411 51.1197 -11.9696 49.0729C-11.8345 45.2033 -13.6378 43.2032 -17.3795 43.0725L-25.4386 42.7911L-25.8456 54.448ZM5.68635 70.7263L6.62277 43.9107L-3.25921 43.5656L-3.11682 39.4881L21.828 40.3592L21.6856 44.4367L11.8516 44.0933L10.9152 70.9089L5.68635 70.7263ZM38.1151 72.3391C33.8617 72.1905 30.5874 71.0516 28.2923 68.9222C26.0292 66.7939 24.9652 63.7949 25.1004 59.9253L25.7788 40.4971L31.0076 40.6797L30.3359 59.916C30.2454 62.5064 30.8814 64.4658 32.2439 65.7942C33.6384 67.1236 35.6468 67.8342 38.2692 67.9257C40.8596 68.0162 42.8807 67.4464 44.3325 66.2163C45.8163 64.9873 46.6035 63.0777 46.6939 60.4872L47.3657 41.251L52.5465 41.4319L51.8681 60.86C51.7329 64.7297 50.4623 67.6471 48.0563 69.6123C45.6502 71.5776 42.3365 72.4865 38.1151 72.3391ZM54.1975 72.4204L67.0771 41.9393L72.9296 42.1437L83.5556 73.4456L78.1829 73.258L75.3909 65.1876L62.9664 64.7537L59.6182 72.6097L54.1975 72.4204ZM63.9226 60.7527L74.6681 61.1279L69.7896 46.7889L63.9226 60.7527ZM88.6979 73.6252L89.7767 42.732L95.0055 42.9146L94.0674 69.7782L109.898 70.331L109.757 74.3606L88.6979 73.6252ZM124.046 74.8595L136.925 44.3784L142.778 44.5828L153.404 75.8847L148.031 75.6971L145.239 67.6268L132.814 67.1929L129.466 75.0488L124.046 74.8595ZM133.771 63.1918L144.516 63.5671L139.638 49.2281L133.771 63.1918ZM165.26 76.7791C161.263 76.6395 158.066 76.0155 155.672 74.9073L155.832 70.3021C157.19 70.8618 158.646 71.3289 160.202 71.7034C161.79 72.0791 163.367 72.2943 164.934 72.349C167.397 72.435 169.246 72.2114 170.481 71.6782C171.749 71.1461 172.412 70.0165 172.473 68.2896C172.51 67.2342 172.283 66.3778 171.794 65.7203C171.305 65.0629 170.476 64.4896 169.308 64.0006C168.142 63.4795 166.528 62.9269 164.467 62.3426C161.172 61.363 158.875 60.1941 157.578 58.836C156.281 57.4459 155.674 55.5836 155.755 53.249C155.85 50.5307 156.916 48.4386 158.952 46.9728C160.989 45.5069 163.974 44.8427 167.907 44.9801C169.698 45.0426 171.373 45.2292 172.931 45.5397C174.521 45.8514 175.758 46.1828 176.643 46.5339L176.482 51.1391C174.084 50.1268 171.413 49.5692 168.471 49.4665C166.169 49.3861 164.367 49.6273 163.067 50.1903C161.766 50.7533 161.088 51.8343 161.032 53.4333C161 54.3607 161.197 55.1201 161.625 55.7114C162.053 56.3026 162.803 56.8251 163.876 57.2789C164.981 57.7337 166.499 58.251 168.432 58.8308C170.937 59.5587 172.861 60.3943 174.204 61.3378C175.581 62.2504 176.521 63.3079 177.023 64.5101C177.559 65.6815 177.801 67.0028 177.75 68.4739C177.655 71.1922 176.572 73.2997 174.503 74.7964C172.435 76.2611 169.354 76.922 165.26 76.7791ZM190.417 77.6575C186.419 77.5179 183.223 76.894 180.828 75.7858L180.989 71.1806C182.346 71.7403 183.803 72.2074 185.359 72.5819C186.947 72.9576 188.524 73.1728 190.091 73.2275C192.554 73.3135 194.402 73.0899 195.638 72.5567C196.905 72.0246 197.569 70.895 197.629 69.1681C197.666 68.1127 197.44 67.2563 196.951 66.5988C196.461 65.9414 195.633 65.3681 194.465 64.879C193.299 64.358 191.685 63.8054 189.624 63.2211C186.328 62.2415 184.032 61.0726 182.734 59.7145C181.438 58.3244 180.83 56.4621 180.912 54.1275C181.007 51.4092 182.073 49.3171 184.109 47.8513C186.145 46.3854 189.13 45.7212 193.064 45.8586C194.855 45.9211 196.529 46.1077 198.088 46.4182C199.678 46.7299 200.915 47.0613 201.799 47.4124L201.638 52.0176C199.24 51.0052 196.57 50.4477 193.628 50.345C191.325 50.2646 189.524 50.5058 188.223 51.0688C186.923 51.6318 186.245 52.7127 186.189 54.3118C186.156 55.2392 186.354 55.9986 186.782 56.5898C187.209 57.1811 187.959 57.7036 189.032 58.1573C190.137 58.6122 191.656 59.1295 193.589 59.7093C196.093 60.4372 198.017 61.2728 199.361 62.2163C200.738 63.1289 201.678 64.1863 202.18 65.3886C202.715 66.56 202.957 67.8813 202.906 69.3524C202.811 72.0707 201.729 74.1782 199.659 75.6749C197.591 77.1396 194.51 77.8005 190.417 77.6575ZM207.688 77.7804L208.767 46.8872L213.995 47.0698L212.917 77.963L207.688 77.7804ZM228.315 78.981C224.318 78.8414 221.122 78.2175 218.727 77.1092L218.888 72.504C220.245 73.0637 221.702 73.5309 223.257 73.9054C224.845 74.281 226.423 74.4962 227.99 74.5509C230.452 74.6369 232.301 74.4133 233.537 73.8801C234.804 73.348 235.468 72.2185 235.528 70.4915C235.565 69.4362 235.339 68.5798 234.849 67.9223C234.36 67.2648 233.531 66.6915 232.364 66.2025C231.197 65.6815 229.584 65.1288 227.523 64.5445C224.227 63.5649 221.93 62.3961 220.633 61.0379C219.337 59.6479 218.729 57.7855 218.811 55.451C218.906 52.7326 219.971 50.6405 222.008 49.1747C224.044 47.7089 227.029 47.0446 230.963 47.182C232.754 47.2446 234.428 47.4311 235.986 47.7417C237.576 48.0534 238.814 48.3847 239.698 48.7358L239.537 53.341C237.139 52.3287 234.469 51.7712 231.527 51.6684C229.224 51.588 227.422 51.8293 226.122 52.3922C224.822 52.9552 224.143 54.0362 224.088 55.6352C224.055 56.5627 224.253 57.322 224.68 57.9133C225.108 58.5046 225.858 59.0271 226.931 59.4808C228.036 59.9356 229.555 60.453 231.488 61.0328C233.992 61.7606 235.916 62.5963 237.26 63.5397C238.637 64.4524 239.576 65.5098 240.079 66.7121C240.614 67.8835 240.856 69.2047 240.805 70.6758C240.71 73.3942 239.628 75.5017 237.558 76.9984C235.49 78.4631 232.409 79.1239 228.315 78.981ZM251.677 79.3165L252.613 52.5009L242.731 52.1558L242.874 48.0783L267.819 48.9493L267.676 53.0269L257.842 52.6834L256.906 79.4991L251.677 79.3165ZM265.943 79.8147L278.823 49.3336L284.676 49.538L295.302 80.8399L289.929 80.6523L287.137 72.5819L274.712 72.1481L271.364 80.004L265.943 79.8147ZM275.669 68.147L286.414 68.5222L281.535 54.1832L275.669 68.147ZM300.444 81.0195L301.523 50.1263L306.128 50.2871L321.452 73.5881L322.246 50.85L327.427 51.0309L326.348 81.9241L321.743 81.7633L306.465 58.5119L305.673 81.2021L300.444 81.0195ZM340.451 82.4166L341.387 55.6009L331.505 55.2558L331.648 51.1783L356.593 52.0494L356.45 56.1269L346.616 55.7835L345.68 82.5992L340.451 82.4166Z" fill="#6100FF"/>
<path d="M493.881 87.7744L494.96 56.8813L508.728 57.362C511.094 57.4447 513.029 57.9605 514.533 58.9096C516.037 59.8586 517.129 61.1295 517.81 62.7223C518.492 64.283 518.798 66.0548 518.729 68.0376C518.622 71.1077 517.577 73.5367 515.593 75.3246C513.641 77.1135 511.051 77.9516 507.821 77.8388L499.474 77.5474L499.11 87.957L493.881 87.7744ZM499.618 73.4219L507.005 73.6799C509.084 73.7524 510.67 73.2635 511.763 72.213C512.857 71.1625 513.436 69.7099 513.5 67.855C513.57 65.8722 513.112 64.3193 512.126 63.1962C511.173 62.0742 509.689 61.4781 507.674 61.4077L500.047 61.1414L499.618 73.4219ZM522.177 88.7625L523.255 57.8693L544.794 58.6215L544.652 62.699L528.342 62.1295L528.015 71.4838L542.55 71.9913L542.41 76.0209L527.874 75.5133L527.546 84.9156L543.856 85.4851L543.715 89.5147L522.177 88.7625ZM548.551 89.6835L549.63 58.7904L563.829 59.2862C567.283 59.4068 569.762 60.39 571.267 62.2356C572.804 64.0504 573.52 66.4768 573.414 69.515C573.338 71.6896 572.73 73.5255 571.589 75.0226C570.448 76.5197 568.843 77.5363 566.775 78.0725C567.337 78.5083 567.769 78.9717 568.072 79.4626C568.375 79.9534 568.672 80.6042 568.964 81.4149L572.536 90.5211L567.164 90.3335L563.676 81.5664C563.353 80.7227 562.942 80.1159 562.442 79.7463C561.975 79.3777 561.15 79.1728 559.966 79.1315L554.162 78.9288L553.78 89.8661L548.551 89.6835ZM554.309 74.7074L561.889 74.972C563.775 75.0379 565.279 74.6262 566.398 73.7367C567.518 72.8472 568.114 71.3791 568.185 69.3324C568.32 65.4627 566.517 63.4626 562.775 63.3319L554.716 63.0505L554.309 74.7074ZM587.168 91.5124C583.17 91.3728 579.974 90.7488 577.579 89.6406L577.74 85.0354C579.097 85.5951 580.554 86.0622 582.11 86.4367C583.698 86.8124 585.275 87.0276 586.842 87.0823C589.305 87.1683 591.153 86.9447 592.389 86.4115C593.656 85.8794 594.32 84.7498 594.38 83.0229C594.417 81.9675 594.191 81.1111 593.702 80.4536C593.212 79.7962 592.384 79.2229 591.216 78.7339C590.05 78.2128 588.436 77.6602 586.375 77.0759C583.079 76.0963 580.783 74.9274 579.485 73.5693C578.189 72.1792 577.582 70.3169 577.663 67.9823C577.758 65.264 578.824 63.1719 580.86 61.7061C582.896 60.2402 585.881 59.576 589.815 59.7134C591.606 59.7759 593.28 59.9625 594.839 60.273C596.429 60.5847 597.666 60.9161 598.55 61.2672L598.389 65.8724C595.991 64.8601 593.321 64.3025 590.379 64.1998C588.076 64.1194 586.275 64.3606 584.974 64.9236C583.674 65.4866 582.996 66.5676 582.94 68.1666C582.907 69.094 583.105 69.8534 583.533 70.4447C583.96 71.0359 584.711 71.5584 585.783 72.0122C586.888 72.467 588.407 72.9843 590.34 73.5641C592.844 74.292 594.768 75.1276 596.112 76.0711C597.489 76.9837 598.429 78.0411 598.931 79.2434C599.466 80.4148 599.708 81.7361 599.657 83.2072C599.562 85.9255 598.48 88.033 596.41 89.5297C594.342 90.9944 591.261 91.6553 587.168 91.5124ZM618.094 92.5923C613.201 92.4214 609.584 91.0144 607.243 88.371C604.902 85.6957 603.827 81.6557 604.016 76.251C604.212 70.6225 605.57 66.5874 608.088 64.1458C610.607 61.7042 614.313 60.5689 619.206 60.7397C624.131 60.9117 627.749 62.3028 630.059 64.913C632.401 67.5244 633.474 71.6443 633.278 77.2729C633.089 82.6776 631.734 86.6327 629.213 89.1383C626.725 91.613 623.019 92.7643 618.094 92.5923ZM618.248 88.179C621.478 88.2918 623.875 87.495 625.44 85.7885C627.037 84.0512 627.907 81.1518 628.049 77.0903C628.199 72.8049 627.535 69.7879 626.06 68.0394C624.617 66.2599 622.28 65.3138 619.05 65.201C615.852 65.0893 613.456 65.8702 611.86 67.5435C610.298 69.186 609.442 72.1499 609.292 76.4353C609.15 80.4968 609.8 83.4493 611.24 85.2927C612.714 87.1052 615.05 88.0673 618.248 88.179ZM637.84 92.8016L638.919 61.9084L643.524 62.0692L658.849 85.3702L659.643 62.6321L664.823 62.813L663.745 93.7062L659.139 93.5454L643.862 70.294L643.069 92.9842L637.84 92.8016ZM668.925 93.8871L681.805 63.406L687.657 63.6104L698.283 94.9123L692.91 94.7247L690.118 86.6543L677.694 86.2205L674.346 94.0764L668.925 93.8871ZM678.65 82.2194L689.396 82.5946L684.517 68.2556L678.65 82.2194ZM703.425 95.0919L704.504 64.1987L709.733 64.3813L708.795 91.2449L724.625 91.7977L724.485 95.8273L703.425 95.0919ZM728.629 95.972L729.708 65.0788L734.936 65.2614L733.858 96.1546L728.629 95.972ZM738.959 96.3327L739.057 93.5504L756.487 70.2886L740.705 69.7374L740.854 65.468L763.352 66.2537L763.24 69.4677L745.96 92.5427L762.654 93.1257L762.513 97.1553L738.959 96.3327ZM767.511 97.3298L768.59 66.4366L790.129 67.1888L789.987 71.2663L773.677 70.6967L773.35 80.051L787.885 80.5586L787.744 84.5882L773.209 84.0806L772.881 93.4829L789.191 94.0524L789.05 98.082L767.511 97.3298ZM793.886 98.2508L794.965 67.3576L807.485 67.7949C812.058 67.9546 815.406 69.2882 817.528 71.7958C819.65 74.2714 820.614 78.3075 820.419 83.9041C820.235 89.1808 819.012 93.0125 816.751 95.3991C814.492 97.7537 811.043 98.85 806.406 98.688L793.886 98.2508ZM799.255 94.4039L805.731 94.63C807.746 94.7004 809.435 94.4712 810.799 93.9424C812.163 93.3817 813.209 92.2976 813.938 90.69C814.667 89.0825 815.084 86.7596 815.19 83.7215C815.296 80.6833 815.074 78.3221 814.525 76.6379C813.975 74.9537 813.041 73.7524 811.721 73.0339C810.433 72.3165 808.702 71.9198 806.527 71.8439L800.051 71.6178L799.255 94.4039ZM850.565 100.71C845.48 100.533 841.675 99.0071 839.15 96.1332C836.657 93.2605 835.493 89.4575 835.658 84.7244C835.776 81.3345 836.421 78.4432 837.594 76.0507C838.799 73.6273 840.56 71.7996 842.876 70.5677C845.194 69.3038 848.111 68.7333 851.629 68.8561C853.42 68.9187 855.046 69.1195 856.507 69.4587C858.001 69.7671 859.38 70.1674 860.644 70.6598L860.485 75.2171C859.223 74.6607 857.862 74.2289 856.399 73.9217C854.97 73.5836 853.456 73.3866 851.857 73.3308C848.02 73.1968 845.266 74.1252 843.595 76.1162C841.957 78.1082 841.07 81.039 840.935 84.9087C840.808 88.5225 841.576 91.3029 843.237 93.2501C844.899 95.1653 847.537 96.186 851.151 96.3122C852.622 96.3635 854.097 96.303 855.576 96.1305C857.088 95.9271 858.508 95.5925 859.837 95.1266L859.677 99.7318C858.383 100.103 856.981 100.374 855.47 100.545C853.991 100.718 852.356 100.773 850.565 100.71ZM864.718 100.724L865.797 69.8311L871.025 70.0137L870.556 83.4456L885.427 83.9649L885.896 70.533L891.125 70.7156L890.046 101.609L884.817 101.426L885.287 87.9944L870.416 87.4751L869.947 100.907L864.718 100.724ZM895.193 101.789L908.073 71.3075L913.925 71.5118L924.552 102.814L919.179 102.626L916.387 94.5558L903.962 94.1219L900.614 101.978L895.193 101.789ZM904.919 90.1208L915.664 90.4961L910.785 76.1571L904.919 90.1208ZM933.629 103.131L934.566 76.3151L924.684 75.97L924.826 71.8925L949.771 72.7636L949.628 76.8411L939.794 76.4977L938.858 103.313L933.629 103.131ZM963.939 104.189L965.017 73.296L986.556 74.0482L986.414 78.1257L970.104 77.5561L969.777 86.9104L984.312 87.418L984.172 91.4475L969.636 90.94L969.308 100.342L985.618 100.912L985.477 104.941L963.939 104.189ZM988.136 105.034L999.707 90.0208L989.454 74.1494L995.499 74.3604L1002.97 86.1002L1011.23 74.9099L1017.33 75.1226L1005.94 90.2386L1016.44 106.023L1010.3 105.808L1002.68 94.2072L994.276 105.249L988.136 105.034ZM1020.62 106.169L1021.7 75.2755L1035.47 75.7562C1037.84 75.8389 1039.77 76.3547 1041.27 77.3038C1042.78 78.2529 1043.87 79.5238 1044.55 81.1165C1045.23 82.6772 1045.54 84.449 1045.47 86.4318C1045.36 89.5019 1044.32 91.9309 1042.33 93.7188C1040.38 95.5078 1037.79 96.3459 1034.56 96.2331L1026.22 95.9416L1025.85 106.351L1020.62 106.169ZM1026.36 91.8161L1033.75 92.0741C1035.83 92.1467 1037.41 91.6577 1038.5 90.6072C1039.6 89.5568 1040.18 88.1041 1040.24 86.2492C1040.31 84.2664 1039.85 82.7135 1038.87 81.5904C1037.91 80.4684 1036.43 79.8723 1034.42 79.8019L1026.79 79.5356L1026.36 91.8161ZM1048.92 107.157L1050 76.2636L1071.54 77.0157L1071.39 81.0932L1055.08 80.5237L1054.76 89.878L1069.29 90.3855L1069.15 94.4151L1054.62 93.9075L1054.29 103.31L1070.6 103.879L1070.46 107.909L1048.92 107.157ZM1075.29 108.078L1076.37 77.1846L1090.57 77.6804C1094.02 77.801 1096.5 78.7842 1098.01 80.6298C1099.55 82.4446 1100.26 84.871 1100.16 87.9092C1100.08 90.0838 1099.47 91.9197 1098.33 93.4168C1097.19 94.9139 1095.58 95.9305 1093.52 96.4667C1094.08 96.9025 1094.51 97.3659 1094.81 97.8568C1095.12 98.3477 1095.41 98.9984 1095.71 99.8091L1099.28 108.915L1093.91 108.728L1090.42 99.9606C1090.09 99.1169 1089.68 98.5102 1089.18 98.1405C1088.72 97.772 1087.89 97.567 1086.71 97.5257L1080.9 97.323L1080.52 108.26L1075.29 108.078ZM1081.05 93.1016L1088.63 93.3663C1090.52 93.4322 1092.02 93.0204 1093.14 92.1309C1094.26 91.2414 1094.86 89.7733 1094.93 87.7266C1095.06 83.8569 1093.26 81.8568 1089.52 81.7261L1081.46 81.4447L1081.05 93.1016ZM1104.57 109.1L1105.65 78.207L1110.88 78.3896L1109.8 109.283L1104.57 109.1ZM1115.86 109.494L1116.94 78.6013L1138.48 79.3534L1138.34 83.431L1122.03 82.8614L1121.7 92.2157L1136.24 92.7233L1136.09 96.7528L1121.56 96.2452L1121.23 105.648L1137.54 106.217L1137.4 110.247L1115.86 109.494ZM1142.24 110.415L1143.31 79.5223L1147.92 79.6831L1163.24 102.984L1164.04 80.246L1169.22 80.4269L1168.14 111.32L1163.54 111.159L1148.26 87.9079L1147.46 110.598L1142.24 110.415ZM1188.7 112.518C1183.62 112.341 1179.81 110.815 1177.29 107.941C1174.79 105.068 1173.63 101.266 1173.8 96.5324C1173.91 93.1425 1174.56 90.2512 1175.73 87.8587C1176.94 85.4353 1178.7 83.6076 1181.01 82.3757C1183.33 81.1118 1186.25 80.5413 1189.77 80.6642C1191.56 80.7267 1193.18 80.9276 1194.64 81.2668C1196.14 81.5751 1197.52 81.9755 1198.78 82.4679L1198.62 87.0251C1197.36 86.4687 1196 86.0369 1194.54 85.7297C1193.11 85.3916 1191.59 85.1947 1189.99 85.1388C1186.16 85.0048 1183.4 85.9333 1181.73 87.9242C1180.09 89.9162 1179.21 92.8471 1179.07 96.7167C1178.95 100.33 1179.71 103.111 1181.37 105.058C1183.04 106.973 1185.67 107.994 1189.29 108.12C1190.76 108.172 1192.23 108.111 1193.71 107.939C1195.23 107.735 1196.65 107.401 1197.98 106.935L1197.81 111.54C1196.52 111.911 1195.12 112.182 1193.61 112.353C1192.13 112.526 1190.49 112.581 1188.7 112.518ZM1202.86 112.532L1203.93 81.6392L1225.47 82.3913L1225.33 86.4688L1209.02 85.8993L1208.69 95.2536L1223.23 95.7612L1223.09 99.7907L1208.55 99.2831L1208.22 108.685L1224.53 109.255L1224.39 113.285L1202.86 112.532ZM1237.63 114.227C1233.63 114.087 1230.44 113.463 1228.04 112.355L1228.2 107.75C1229.56 108.31 1231.02 108.777 1232.57 109.151C1234.16 109.527 1235.74 109.742 1237.3 109.797C1239.77 109.883 1241.62 109.659 1242.85 109.126C1244.12 108.594 1244.78 107.465 1244.84 105.738C1244.88 104.682 1244.65 103.826 1244.16 103.168C1243.68 102.511 1242.85 101.938 1241.68 101.449C1240.51 100.927 1238.9 100.375 1236.84 99.7906C1233.54 98.8109 1231.25 97.6421 1229.95 96.284C1228.65 94.8939 1228.04 93.0316 1228.13 90.697C1228.22 87.9786 1229.29 85.8865 1231.32 84.4207C1233.36 82.9549 1236.34 82.2907 1240.28 82.428C1242.07 82.4906 1243.74 82.6771 1245.3 82.9877C1246.89 83.2994 1248.13 83.6308 1249.01 83.9818L1248.85 88.587C1246.45 87.5747 1243.78 87.0172 1240.84 86.9144C1238.54 86.834 1236.74 87.0753 1235.44 87.6383C1234.14 88.2012 1233.46 89.2822 1233.4 90.8812C1233.37 91.8087 1233.57 92.568 1234 93.1593C1234.42 93.7506 1235.17 94.2731 1236.25 94.7268C1237.35 95.1817 1238.87 95.699 1240.8 96.2788C1243.31 97.0066 1245.23 97.8423 1246.57 98.7858C1247.95 99.6984 1248.89 100.756 1249.39 101.958C1249.93 103.129 1250.17 104.451 1250.12 105.922C1250.03 108.64 1248.94 110.748 1246.87 112.244C1244.8 113.709 1241.72 114.37 1237.63 114.227Z" fill="#E2E8FF"/>
<path d="M1334.55 117.131L1335.62 86.2378L1340.85 86.4204L1339.77 117.314L1334.55 117.131ZM1345.84 117.525L1346.91 86.6321L1351.52 86.7929L1366.84 110.094L1367.64 87.3558L1372.82 87.5367L1371.74 118.43L1367.13 118.269L1351.86 95.0177L1351.06 117.708L1345.84 117.525ZM1385.84 118.922L1386.78 92.1067L1376.9 91.7616L1377.04 87.6841L1401.98 88.5552L1401.84 92.6327L1392.01 92.2893L1391.07 119.105L1385.84 118.922ZM1405.1 119.595L1406.18 88.7015L1427.71 89.4537L1427.57 93.5312L1411.26 92.9616L1410.93 102.316L1425.47 102.823L1425.33 106.853L1410.79 106.345L1410.47 115.748L1426.78 116.317L1426.64 120.347L1405.1 119.595ZM1431.47 120.516L1432.55 89.6225L1437.78 89.8051L1436.84 116.669L1452.67 117.222L1452.53 121.251L1431.47 120.516ZM1456.67 121.396L1457.75 90.5026L1462.98 90.6852L1462.04 117.549L1477.87 118.102L1477.73 122.131L1456.67 121.396ZM1481.88 122.276L1482.96 91.3828L1488.19 91.5654L1487.11 122.459L1481.88 122.276ZM1507.54 123.652C1502.46 123.475 1498.67 121.966 1496.17 119.125C1493.71 116.285 1492.56 112.515 1492.73 107.814C1492.84 104.424 1493.51 101.517 1494.71 99.0937C1495.92 96.6383 1497.68 94.7787 1500 93.5148C1502.35 92.252 1505.28 91.6821 1508.8 91.8049C1510.62 91.8686 1512.26 92.054 1513.73 92.3612C1515.22 92.6376 1516.62 93.0225 1517.91 93.516L1517.75 98.0253C1515.17 96.9743 1512.27 96.3929 1509.07 96.2813C1505.14 96.1439 1502.34 97.0867 1500.67 99.1096C1499.03 101.134 1498.14 104.096 1498 107.998C1497.88 111.548 1498.62 114.279 1500.21 116.192C1501.81 118.105 1504.35 119.122 1507.84 119.244C1510.59 119.34 1512.82 119.098 1514.54 118.518L1514.84 109.883L1507.12 109.613L1507.24 106.207L1519.42 106.633L1518.9 121.504C1517.89 122.109 1516.45 122.651 1514.57 123.13C1512.73 123.578 1510.39 123.752 1507.54 123.652ZM1523.9 123.743L1524.98 92.8502L1546.52 93.6023L1546.37 97.6799L1530.06 97.1103L1529.74 106.465L1544.27 106.972L1544.13 111.002L1529.6 110.494L1529.27 119.896L1545.58 120.466L1545.44 124.496L1523.9 123.743ZM1550.27 124.664L1551.35 93.7712L1555.96 93.932L1571.28 117.233L1572.08 94.4949L1577.26 94.6758L1576.18 125.569L1571.57 125.408L1556.29 102.157L1555.5 124.847L1550.27 124.664ZM1590.28 126.061L1591.22 99.2458L1581.34 98.9007L1581.48 94.8232L1606.42 95.6943L1606.28 99.7718L1596.45 99.4284L1595.51 126.244L1590.28 126.061ZM1620.59 127.12L1621.67 96.2267L1635.87 96.7226C1639.32 96.8432 1641.8 97.8263 1643.31 99.6719C1644.84 101.487 1645.56 103.913 1645.45 106.951C1645.38 109.126 1644.77 110.962 1643.63 112.459C1642.49 113.956 1640.88 114.973 1638.81 115.509C1639.38 115.945 1639.81 116.408 1640.11 116.899C1640.41 117.39 1640.71 118.041 1641 118.851L1644.58 127.957L1639.2 127.77L1635.71 119.003C1635.39 118.159 1634.98 117.552 1634.48 117.183C1634.01 116.814 1633.19 116.609 1632.01 116.568L1626.2 116.365L1625.82 127.302L1620.59 127.12ZM1626.35 112.144L1633.93 112.408C1635.81 112.474 1637.32 112.062 1638.44 111.173C1639.56 110.284 1640.15 108.815 1640.22 106.769C1640.36 102.899 1638.56 100.899 1634.81 100.768L1626.76 100.487L1626.35 112.144ZM1649.87 128.142L1650.95 97.2492L1672.49 98.0013L1672.34 102.079L1656.03 101.509L1655.71 110.864L1670.24 111.371L1670.1 115.401L1655.57 114.893L1655.24 124.295L1671.55 124.865L1671.41 128.894L1649.87 128.142ZM1684.64 129.837C1680.65 129.697 1677.45 129.073 1675.06 127.965L1675.22 123.36C1676.57 123.92 1678.03 124.387 1679.59 124.761C1681.17 125.137 1682.75 125.352 1684.32 125.407C1686.78 125.493 1688.63 125.269 1689.87 124.736C1691.13 124.204 1691.8 123.074 1691.86 121.348C1691.89 120.292 1691.67 119.436 1691.18 118.778C1690.69 118.121 1689.86 117.548 1688.69 117.059C1687.53 116.537 1685.91 115.985 1683.85 115.401C1680.56 114.421 1678.26 113.252 1676.96 111.894C1675.67 110.504 1675.06 108.642 1675.14 106.307C1675.23 103.589 1676.3 101.497 1678.34 100.031C1680.37 98.5649 1683.36 97.9007 1687.29 98.038C1689.08 98.1006 1690.76 98.2871 1692.32 98.5977C1693.91 98.9094 1695.14 99.2407 1696.03 99.5918L1695.87 104.197C1693.47 103.185 1690.8 102.627 1687.86 102.524C1685.55 102.444 1683.75 102.685 1682.45 103.248C1681.15 103.811 1680.47 104.892 1680.42 106.491C1680.38 107.419 1680.58 108.178 1681.01 108.769C1681.44 109.361 1682.19 109.883 1683.26 110.337C1684.36 110.792 1685.88 111.309 1687.82 111.889C1690.32 112.617 1692.24 113.452 1693.59 114.396C1694.97 115.308 1695.91 116.366 1696.41 117.568C1696.94 118.739 1697.19 120.061 1697.13 121.532C1697.04 124.25 1695.96 126.358 1693.89 127.854C1691.82 129.319 1688.74 129.98 1684.64 129.837ZM1701.92 129.96L1702.99 99.0667L1716.76 99.5474C1719.13 99.6301 1721.06 100.146 1722.57 101.095C1724.07 102.044 1725.16 103.315 1725.84 104.908C1726.53 106.468 1726.83 108.24 1726.76 110.223C1726.66 113.293 1725.61 115.722 1723.63 117.51C1721.68 119.299 1719.08 120.137 1715.85 120.024L1707.51 119.733L1707.14 130.142L1701.92 129.96ZM1707.65 115.607L1715.04 115.865C1717.12 115.938 1718.7 115.449 1719.8 114.398C1720.89 113.348 1721.47 111.895 1721.53 110.04C1721.6 108.058 1721.15 106.505 1720.16 105.382C1719.21 104.26 1717.72 103.663 1715.71 103.593L1708.08 103.327L1707.65 115.607ZM1743.87 131.905C1738.97 131.734 1735.36 130.327 1733.01 127.684C1730.67 125.008 1729.6 120.968 1729.79 115.564C1729.98 109.935 1731.34 105.9 1733.86 103.459C1736.38 101.017 1740.08 99.8816 1744.98 100.052C1749.9 100.224 1753.52 101.616 1755.83 104.226C1758.17 106.837 1759.25 110.957 1759.05 116.586C1758.86 121.99 1757.51 125.945 1754.98 128.451C1752.5 130.926 1748.79 132.077 1743.87 131.905ZM1744.02 127.492C1747.25 127.605 1749.65 126.808 1751.21 125.101C1752.81 123.364 1753.68 120.465 1753.82 116.403C1753.97 112.118 1753.31 109.101 1751.83 107.352C1750.39 105.573 1748.05 104.627 1744.82 104.514C1741.62 104.402 1739.23 105.183 1737.63 106.856C1736.07 108.499 1735.21 111.463 1735.06 115.748C1734.92 119.81 1735.57 122.762 1737.01 124.605C1738.49 126.418 1740.82 127.38 1744.02 127.492ZM1763.61 132.114L1764.69 101.221L1769.3 101.382L1784.62 124.683L1785.41 101.945L1790.6 102.126L1789.52 133.019L1784.91 132.858L1769.63 109.607L1768.84 132.297L1763.61 132.114ZM1804.95 134.038C1800.95 133.898 1797.75 133.275 1795.36 132.166L1795.52 127.561C1796.88 128.121 1798.33 128.588 1799.89 128.962C1801.48 129.338 1803.05 129.553 1804.62 129.608C1807.08 129.694 1808.93 129.47 1810.17 128.937C1811.43 128.405 1812.1 127.276 1812.16 125.549C1812.2 124.493 1811.97 123.637 1811.48 122.979C1810.99 122.322 1810.16 121.749 1808.99 121.26C1807.83 120.739 1806.21 120.186 1804.15 119.602C1800.86 118.622 1798.56 117.453 1797.26 116.095C1795.97 114.705 1795.36 112.843 1795.44 110.508C1795.54 107.79 1796.6 105.698 1798.64 104.232C1800.67 102.766 1803.66 102.102 1807.59 102.239C1809.38 102.302 1811.06 102.488 1812.62 102.799C1814.21 103.11 1815.44 103.442 1816.33 103.793L1816.17 108.398C1813.77 107.386 1811.1 106.828 1808.16 106.725C1805.85 106.645 1804.05 106.886 1802.75 107.449C1801.45 108.012 1800.77 109.093 1800.72 110.692C1800.69 111.62 1800.88 112.379 1801.31 112.97C1801.74 113.562 1802.49 114.084 1803.56 114.538C1804.67 114.993 1806.19 115.51 1808.12 116.09C1810.62 116.818 1812.55 117.653 1813.89 118.597C1815.27 119.509 1816.21 120.567 1816.71 121.769C1817.24 122.94 1817.49 124.262 1817.44 125.733C1817.34 128.451 1816.26 130.559 1814.19 132.055C1812.12 133.52 1809.04 134.181 1804.95 134.038ZM1822.22 134.161L1823.3 103.268L1844.83 104.02L1844.69 108.097L1828.38 107.528L1828.06 116.882L1842.59 117.39L1842.45 121.419L1827.91 120.912L1827.59 130.314L1843.9 130.883L1843.76 134.913L1822.22 134.161ZM1868.98 136.274C1864.99 136.135 1861.79 135.511 1859.4 134.403L1859.56 129.797C1860.91 130.357 1862.37 130.824 1863.93 131.199C1865.51 131.574 1867.09 131.79 1868.66 131.844C1871.12 131.93 1872.97 131.707 1874.21 131.173C1875.47 130.641 1876.14 129.512 1876.2 127.785C1876.23 126.73 1876.01 125.873 1875.52 125.216C1875.03 124.558 1874.2 123.985 1873.03 123.496C1871.87 122.975 1870.25 122.422 1868.19 121.838C1864.9 120.858 1862.6 119.689 1861.3 118.331C1860.01 116.941 1859.4 115.079 1859.48 112.744C1859.58 110.026 1860.64 107.934 1862.68 106.468C1864.71 105.002 1867.7 104.338 1871.63 104.475C1873.42 104.538 1875.1 104.724 1876.66 105.035C1878.25 105.347 1879.48 105.678 1880.37 106.029L1880.21 110.634C1877.81 109.622 1875.14 109.064 1872.2 108.962C1869.89 108.881 1868.09 109.123 1866.79 109.686C1865.49 110.249 1864.81 111.33 1864.76 112.929C1864.72 113.856 1864.92 114.615 1865.35 115.207C1865.78 115.798 1866.53 116.32 1867.6 116.774C1868.71 117.229 1870.22 117.746 1872.16 118.326C1874.66 119.054 1876.59 119.89 1877.93 120.833C1879.31 121.746 1880.25 122.803 1880.75 124.005C1881.28 125.177 1881.53 126.498 1881.47 127.969C1881.38 130.687 1880.3 132.795 1878.23 134.292C1876.16 135.756 1873.08 136.417 1868.98 136.274ZM1892.77 136.625L1893.17 125.16L1882.77 105.345L1888.19 105.534L1895.92 120.837L1904.69 106.11L1910.11 106.299L1898.35 125.341L1897.95 136.806L1892.77 136.625ZM1920.33 138.067C1916.33 137.928 1913.13 137.304 1910.74 136.196L1910.9 131.59C1912.26 132.15 1913.71 132.617 1915.27 132.992C1916.86 133.367 1918.44 133.582 1920 133.637C1922.47 133.723 1924.31 133.5 1925.55 132.966C1926.82 132.434 1927.48 131.305 1927.54 129.578C1927.58 128.522 1927.35 127.666 1926.86 127.009C1926.37 126.351 1925.54 125.778 1924.38 125.289C1923.21 124.768 1921.6 124.215 1919.54 123.631C1916.24 122.651 1913.94 121.482 1912.65 120.124C1911.35 118.734 1910.74 116.872 1910.82 114.537C1910.92 111.819 1911.98 109.727 1914.02 108.261C1916.06 106.795 1919.04 106.131 1922.98 106.268C1924.77 106.331 1926.44 106.517 1928 106.828C1929.59 107.14 1930.83 107.471 1931.71 107.822L1931.55 112.427C1929.15 111.415 1926.48 110.857 1923.54 110.755C1921.24 110.674 1919.44 110.916 1918.14 111.479C1916.83 112.041 1916.16 113.122 1916.1 114.722C1916.07 115.649 1916.27 116.408 1916.69 117C1917.12 117.591 1917.87 118.113 1918.94 118.567C1920.05 119.022 1921.57 119.539 1923.5 120.119C1926.01 120.847 1927.93 121.683 1929.27 122.626C1930.65 123.539 1931.59 124.596 1932.09 125.798C1932.63 126.97 1932.87 128.291 1932.82 129.762C1932.72 132.48 1931.64 134.588 1929.57 136.085C1927.5 137.549 1924.42 138.21 1920.33 138.067ZM1943.69 138.403L1944.63 111.587L1934.74 111.242L1934.89 107.165L1959.83 108.036L1959.69 112.113L1949.86 111.77L1948.92 138.585L1943.69 138.403ZM1962.94 139.075L1964.02 108.182L1985.56 108.934L1985.42 113.012L1969.11 112.442L1968.78 121.796L1983.32 122.304L1983.18 126.334L1968.64 125.826L1968.31 135.228L1984.62 135.798L1984.48 139.827L1962.94 139.075ZM1989.32 139.996L1990.4 109.103L1995.77 109.291L2004.86 129.636L2015.29 109.972L2020.67 110.16L2019.59 141.053L2014.41 140.872L2015.19 118.47L2006.25 135.256L2003.08 135.145L1995.28 117.775L1994.5 140.177L1989.32 139.996ZM2034.96 142.07C2030.96 141.931 2027.77 141.307 2025.37 140.199L2025.53 135.593C2026.89 136.153 2028.35 136.62 2029.9 136.995C2031.49 137.37 2033.07 137.586 2034.64 137.64C2037.1 137.726 2038.95 137.503 2040.18 136.969C2041.45 136.437 2042.11 135.308 2042.17 133.581C2042.21 132.526 2041.99 131.669 2041.5 131.012C2041.01 130.354 2040.18 129.781 2039.01 129.292C2037.84 128.771 2036.23 128.218 2034.17 127.634C2030.87 126.654 2028.58 125.485 2027.28 124.127C2025.98 122.737 2025.38 120.875 2025.46 118.54C2025.55 115.822 2026.62 113.73 2028.65 112.264C2030.69 110.798 2033.68 110.134 2037.61 110.271C2039.4 110.334 2041.07 110.52 2042.63 110.831C2044.22 111.143 2045.46 111.474 2046.34 111.825L2046.18 116.43C2043.79 115.418 2041.12 114.861 2038.17 114.758C2035.87 114.677 2034.07 114.919 2032.77 115.482C2031.47 116.045 2030.79 117.126 2030.73 118.725C2030.7 119.652 2030.9 120.411 2031.33 121.003C2031.75 121.594 2032.5 122.116 2033.58 122.57C2034.68 123.025 2036.2 123.542 2038.13 124.122C2040.64 124.85 2042.56 125.686 2043.91 126.629C2045.28 127.542 2046.22 128.599 2046.73 129.801C2047.26 130.973 2047.5 132.294 2047.45 133.765C2047.36 136.484 2046.27 138.591 2044.2 140.088C2042.14 141.552 2039.06 142.213 2034.96 142.07Z" fill="#6100FF"/>
<g clip-path="url(#clip0_154_149)">
<path d="M427.013 76.0651C426.931 76.2398 426.774 76.5821 426.54 77.0934C426.307 77.6048 426.12 78.0601 425.98 78.4607C425.839 78.8613 425.764 79.2006 425.754 79.4787C425.727 80.2634 425.896 80.8705 426.261 81.3014C426.626 81.732 427.15 81.9594 427.833 81.9833C428.465 82.0054 429.011 81.7899 429.47 81.3376C429.929 80.8853 430.289 80.3716 430.55 79.7983C430.81 79.2251 431.108 78.488 431.444 77.5878L438.697 58.1203C439.536 55.8697 441.043 54.7824 443.219 54.8584C444.231 54.8937 445.091 55.2915 445.799 56.0503C446.507 56.8095 446.838 57.847 446.792 59.1628C446.771 59.7701 446.605 60.3721 446.292 60.9692C445.98 61.5664 445.518 62.272 444.907 63.0867L444.467 63.7172L432.848 80.9045C431.886 82.3404 431.029 83.2795 430.28 83.7216C429.53 84.1638 428.636 84.3671 427.599 84.3309C426.612 84.2964 425.73 83.9741 424.954 83.3646C424.177 82.7552 423.646 81.8247 423.36 80.5732L419.122 61.5785C418.768 60.0966 418.602 59.0402 418.625 58.4071C418.67 57.117 419.143 56.076 420.045 55.2841C420.946 54.4923 421.992 54.1171 423.181 54.1586C424.218 54.1948 425.061 54.5405 425.709 55.197C426.358 55.8534 426.664 56.6998 426.628 57.7369C426.604 58.42 426.285 59.188 425.673 60.0404C425.061 60.8929 424.372 61.7495 423.608 62.609C422.923 63.3707 422.571 64.0166 422.552 64.5481C422.543 64.8015 422.624 65.019 422.795 65.2025C423.015 65.4381 423.226 65.5595 423.428 65.5666C423.606 65.5728 423.81 65.5105 424.043 65.3789C424.276 65.2473 424.477 65.1156 424.646 64.9821C424.815 64.8483 424.951 64.7459 425.055 64.6733L427.747 62.6774C428.683 61.9756 429.372 61.4925 429.811 61.2294C430.251 60.9663 430.711 60.843 431.192 60.8598C431.8 60.881 432.286 61.0879 432.652 61.4807C433.019 61.8736 433.193 62.3357 433.174 62.8669C433.163 63.1704 433.096 63.4654 432.972 63.7529C432.848 64.04 432.637 64.444 432.341 64.9659C432.098 65.3876 431.8 65.9605 431.445 66.6826L427.013 76.0651Z" fill="#8C7BFF"/>
</g>
<g clip-path="url(#clip1_154_149)">
<path d="M1262.72 105.248C1262.63 105.423 1262.48 105.765 1262.24 106.277C1262.01 106.788 1261.82 107.243 1261.68 107.644C1261.54 108.045 1261.47 108.384 1261.46 108.662C1261.43 109.447 1261.6 110.054 1261.96 110.485C1262.33 110.915 1262.85 111.143 1263.54 111.167C1264.17 111.189 1264.71 110.973 1265.17 110.521C1265.63 110.069 1265.99 109.555 1266.25 108.982C1266.51 108.408 1266.81 107.671 1267.15 106.771L1274.4 87.3036C1275.24 85.053 1276.75 83.9657 1278.92 84.0417C1279.93 84.0771 1280.79 84.4748 1281.5 85.2336C1282.21 85.9928 1282.54 87.0303 1282.49 88.3461C1282.47 88.9535 1282.31 89.5554 1281.99 90.1526C1281.68 90.7497 1281.22 91.4553 1280.61 92.2701L1280.17 92.9006L1268.55 110.088C1267.59 111.524 1266.73 112.463 1265.98 112.905C1265.23 113.347 1264.34 113.55 1263.3 113.514C1262.31 113.48 1261.43 113.157 1260.66 112.548C1259.88 111.939 1259.35 111.008 1259.06 109.757L1254.82 90.7619C1254.47 89.28 1254.31 88.2235 1254.33 87.5905C1254.37 86.3004 1254.85 85.2594 1255.75 84.4675C1256.65 83.6756 1257.69 83.3005 1258.88 83.342C1259.92 83.3782 1260.76 83.7239 1261.41 84.3803C1262.06 85.0368 1262.37 85.8832 1262.33 86.9202C1262.31 87.6034 1261.99 88.3713 1261.38 89.2238C1260.76 90.0762 1260.07 90.9328 1259.31 91.7924C1258.63 92.554 1258.27 93.2 1258.25 93.7315C1258.25 93.9849 1258.33 94.2023 1258.5 94.3858C1258.72 94.6215 1258.93 94.7429 1259.13 94.7499C1259.31 94.7561 1259.51 94.6939 1259.75 94.5623C1259.98 94.4307 1260.18 94.299 1260.35 94.1655C1260.52 94.0317 1260.65 93.9293 1260.76 93.8567L1263.45 91.8607C1264.39 91.159 1265.07 90.6759 1265.51 90.4128C1265.95 90.1497 1266.41 90.0263 1266.89 90.0431C1267.5 90.0643 1267.99 90.2712 1268.36 90.6641C1268.72 91.057 1268.9 91.519 1268.88 92.0502C1268.87 92.3537 1268.8 92.6487 1268.67 92.9362C1268.55 93.2234 1268.34 93.6274 1268.04 94.1492C1267.8 94.571 1267.5 95.1439 1267.15 95.8659L1262.72 105.248Z" fill="#8C7BFF"/>
</g>
<path d="M0 181.366L1920 61.366V154.366L0 274.366L0 181.366Z" fill="#240E44"/>
<path d="M26.1588 242.576L24.2716 211.721L28.871 211.44L46.3579 233.165L44.969 210.455L50.1433 210.139L52.0304 240.993L47.431 241.275L29.995 219.595L31.381 242.256L26.1588 242.576ZM57.2044 240.677L67.1032 209.102L72.9483 208.744L86.5256 238.883L81.1596 239.212L77.6069 231.446L65.1981 232.205L62.6183 240.346L57.2044 240.677ZM65.7664 228.131L76.4984 227.474L70.268 213.669L65.7664 228.131ZM95.5919 238.329L93.9538 211.547L84.0843 212.151L83.8352 208.078L108.749 206.554L108.998 210.627L99.1761 211.228L100.814 238.01L95.5919 238.329ZM128.026 236.826C123.778 237.086 120.41 236.266 117.921 234.366C115.464 232.465 114.118 229.582 113.881 225.717L112.695 206.313L117.917 205.994L119.092 225.206C119.25 227.793 120.071 229.682 121.554 230.874C123.07 232.064 125.137 232.579 127.756 232.418C130.343 232.26 132.301 231.499 133.628 230.136C134.987 228.77 135.588 226.794 135.429 224.207L134.254 204.994L139.429 204.678L140.615 224.082C140.852 227.947 139.867 230.972 137.66 233.159C135.453 235.346 132.242 236.568 128.026 236.826ZM147.105 235.178L145.218 204.324L159.399 203.457C162.849 203.246 165.411 203.987 167.085 205.679C168.79 207.339 169.735 209.685 169.92 212.72C170.053 214.891 169.623 216.777 168.631 218.377C167.639 219.976 166.139 221.142 164.132 221.874C164.733 222.254 165.207 222.674 165.556 223.133C165.904 223.593 166.263 224.212 166.631 224.991L171.06 233.713L165.694 234.041L161.382 225.649C160.979 224.84 160.512 224.275 159.98 223.955C159.479 223.633 158.638 223.508 157.456 223.581L151.659 223.935L152.327 234.859L147.105 235.178ZM151.401 219.719L158.971 219.256C160.855 219.141 162.312 218.587 163.341 217.594C164.371 216.602 164.823 215.083 164.698 213.039C164.462 209.174 162.475 207.356 158.738 207.585L150.689 208.077L151.401 219.719ZM173.284 233.577L183.183 202.002L189.028 201.644L202.606 231.784L197.24 232.112L193.687 224.346L181.278 225.105L178.698 233.246L173.284 233.577ZM181.846 221.031L192.578 220.375L186.348 206.569L181.846 221.031ZM207.741 231.47L205.854 200.615L211.076 200.296L212.717 227.126L228.528 226.159L228.774 230.183L207.741 231.47ZM243.955 229.255L242.068 198.4L247.29 198.081L248.931 224.911L264.741 223.944L264.988 227.968L243.955 229.255ZM268.216 227.771L278.115 196.196L283.96 195.838L297.538 225.977L292.172 226.306L288.619 218.54L276.21 219.299L273.63 227.44L268.216 227.771ZM276.778 215.225L287.51 214.568L281.28 200.763L276.778 215.225ZM302.673 225.663L300.786 194.809L305.386 194.528L322.872 216.253L321.484 193.543L326.658 193.227L328.545 224.081L323.946 224.362L306.51 202.682L307.896 225.344L302.673 225.663ZM349.032 223.309C343.953 223.619 340.036 222.48 337.281 219.892C334.558 217.301 333.053 213.658 332.766 208.963C332.558 205.577 332.939 202.621 333.906 200.093C334.872 197.533 336.447 195.513 338.633 194.033C340.851 192.551 343.716 191.702 347.23 191.487C349.05 191.376 350.703 191.403 352.188 191.569C353.703 191.701 355.129 191.95 356.466 192.317L356.741 196.821C354.063 196.023 351.127 195.721 347.933 195.917C344.005 196.157 341.305 197.364 339.835 199.538C338.397 201.71 337.797 204.744 338.036 208.641C338.253 212.186 339.248 214.834 341.022 216.585C342.796 218.336 345.424 219.105 348.906 218.892C351.653 218.724 353.853 218.269 355.507 217.527L354.979 208.903L347.266 209.375L347.058 205.973L359.227 205.229L360.135 220.081C359.184 220.78 357.799 221.458 355.98 222.114C354.19 222.737 351.874 223.135 349.032 223.309ZM378.527 221.505C374.278 221.765 370.91 220.945 368.422 219.045C365.965 217.144 364.618 214.26 364.382 210.396L363.195 190.992L368.417 190.672L369.592 209.885C369.751 212.472 370.572 214.361 372.055 215.553C373.571 216.742 375.638 217.257 378.257 217.097C380.844 216.939 382.801 216.178 384.129 214.814C385.488 213.449 386.088 211.472 385.93 208.885L384.755 189.673L389.929 189.357L391.116 208.76C391.352 212.625 390.367 215.651 388.161 217.838C385.954 220.025 382.743 221.247 378.527 221.505ZM394.543 220.044L404.442 188.469L410.287 188.112L423.864 218.251L418.498 218.579L414.945 210.814L402.536 211.573L399.957 219.713L394.543 220.044ZM403.105 207.498L413.837 206.842L407.606 193.036L403.105 207.498ZM440.782 217.697C435.704 218.008 431.787 216.869 429.032 214.28C426.308 211.689 424.803 208.047 424.516 203.351C424.309 199.966 424.689 197.009 425.657 194.481C426.622 191.921 428.198 189.902 430.383 188.421C432.601 186.939 435.467 186.091 438.98 185.876C440.801 185.764 442.453 185.792 443.938 185.957C445.453 186.089 446.879 186.338 448.216 186.705L448.491 191.209C445.814 190.411 442.878 190.11 439.684 190.305C435.755 190.545 433.056 191.752 431.586 193.926C430.148 196.098 429.548 199.132 429.786 203.029C430.003 206.574 430.998 209.223 432.773 210.974C434.547 212.724 437.175 213.493 440.656 213.281C443.403 213.113 445.603 212.657 447.257 211.915L446.73 203.291L439.016 203.763L438.808 200.361L450.977 199.617L451.886 214.469C450.935 215.169 449.549 215.846 447.73 216.503C445.941 217.125 443.625 217.523 440.782 217.697ZM457.072 216.22L455.185 185.366L476.697 184.05L476.946 188.122L460.656 189.118L461.228 198.461L475.745 197.573L475.991 201.598L461.474 202.486L462.048 211.876L478.338 210.88L478.584 214.904L457.072 216.22ZM494.456 213.933L492.568 183.079L506.319 182.238C508.682 182.093 510.658 182.421 512.246 183.222C513.834 184.023 515.043 185.183 515.873 186.703C516.702 188.191 517.176 189.926 517.297 191.906C517.485 194.972 516.677 197.49 514.874 199.46C513.103 201.428 510.604 202.51 507.378 202.708L499.042 203.217L499.678 213.614L494.456 213.933ZM498.79 199.097L506.168 198.646C508.244 198.519 509.776 197.88 510.764 196.73C511.751 195.579 512.188 194.078 512.075 192.225C511.954 190.245 511.349 188.743 510.261 187.72C509.204 186.694 507.67 186.243 505.658 186.366L498.04 186.832L498.79 199.097ZM522.715 212.205L520.828 181.351L535.01 180.483C538.459 180.272 541.021 181.013 542.696 182.706C544.4 184.365 545.345 186.712 545.531 189.746C545.664 191.918 545.234 193.804 544.242 195.403C543.25 197.003 541.75 198.169 539.743 198.901C540.343 199.281 540.818 199.701 541.166 200.16C541.515 200.62 541.874 201.239 542.242 202.018L546.671 210.74L541.305 211.068L536.992 202.676C536.59 201.867 536.123 201.302 535.59 200.982C535.09 200.66 534.248 200.535 533.067 200.607L527.269 200.962L527.938 211.886L522.715 212.205ZM527.012 196.746L534.581 196.283C536.466 196.168 537.923 195.614 538.952 194.621C539.981 193.628 540.434 192.11 540.309 190.066C540.072 186.201 538.085 184.383 534.348 184.611L526.299 185.104L527.012 196.746ZM564.939 210.103C560.053 210.402 556.317 209.348 553.734 206.942C551.148 204.503 549.69 200.585 549.36 195.187C549.016 189.565 549.981 185.418 552.254 182.747C554.527 180.075 558.107 178.59 562.994 178.291C567.913 177.99 571.647 179.028 574.197 181.405C576.779 183.779 578.241 187.778 578.585 193.399C578.915 198.797 577.946 202.864 575.677 205.599C573.437 208.301 569.858 209.802 564.939 210.103ZM564.67 205.696C567.896 205.498 570.206 204.475 571.599 202.627C573.023 200.744 573.611 197.775 573.363 193.719C573.101 189.439 572.152 186.499 570.515 184.9C568.909 183.267 566.492 182.549 563.266 182.746C560.072 182.942 557.761 183.949 556.334 185.767C554.936 187.552 554.368 190.584 554.63 194.864C554.878 198.921 555.807 201.797 557.418 203.494C559.059 205.157 561.476 205.891 564.67 205.696ZM599.113 208.013C594.035 208.324 590.101 207.17 587.312 204.551C584.555 201.931 583.032 198.257 582.743 193.53C582.536 190.144 582.901 187.204 583.838 184.71C584.806 182.182 586.383 180.194 588.571 178.746C590.757 177.266 593.606 176.418 597.12 176.204C598.908 176.094 600.546 176.138 602.033 176.336C603.55 176.5 604.961 176.766 606.266 177.135L606.544 181.686C605.235 181.253 603.838 180.954 602.354 180.789C600.899 180.589 599.373 180.538 597.776 180.636C593.943 180.87 591.29 182.058 589.818 184.2C588.378 186.34 587.777 189.342 588.013 193.207C588.234 196.816 589.264 199.511 591.104 201.29C592.942 203.037 595.666 203.8 599.275 203.579C600.744 203.489 602.207 203.287 603.662 202.974C605.148 202.627 606.53 202.157 607.808 201.566L608.089 206.166C606.837 206.659 605.467 207.063 603.98 207.379C602.524 207.692 600.902 207.904 599.113 208.013ZM613.202 206.671L611.315 175.816L632.827 174.5L633.076 178.573L616.787 179.569L617.358 188.912L631.875 188.024L632.121 192.048L617.604 192.936L618.179 202.327L634.468 201.33L634.714 205.355L613.202 206.671ZM647.98 205.024C643.987 205.269 640.746 204.954 638.256 204.08L637.975 199.481C639.38 199.908 640.874 200.233 642.459 200.457C644.075 200.679 645.666 200.742 647.231 200.646C649.691 200.495 651.51 200.096 652.688 199.447C653.899 198.795 654.451 197.607 654.346 195.883C654.281 194.829 653.974 193.998 653.424 193.39C652.874 192.783 651.994 192.292 650.785 191.917C649.574 191.51 647.915 191.114 645.807 190.73C642.433 190.071 640.035 189.128 638.613 187.9C637.19 186.641 636.406 184.845 636.264 182.514C636.098 179.799 636.958 177.614 638.845 175.96C640.731 174.306 643.639 173.358 647.567 173.118C649.356 173.009 651.041 173.034 652.621 173.194C654.234 173.351 655.497 173.563 656.411 173.827L656.692 178.427C654.208 177.649 651.497 177.35 648.558 177.53C646.259 177.67 644.489 178.083 643.248 178.768C642.008 179.453 641.436 180.594 641.534 182.191C641.591 183.118 641.86 183.854 642.342 184.402C642.825 184.95 643.622 185.398 644.733 185.747C645.876 186.093 647.438 186.463 649.417 186.855C651.98 187.339 653.975 187.987 655.403 188.797C656.861 189.573 657.898 190.536 658.513 191.684C659.158 192.799 659.526 194.091 659.616 195.56C659.782 198.275 658.907 200.477 656.99 202.165C655.072 203.821 652.068 204.774 647.98 205.024ZM673.105 203.488C669.112 203.732 665.871 203.417 663.381 202.543L663.1 197.944C664.504 198.371 665.999 198.696 667.584 198.92C669.2 199.142 670.791 199.205 672.356 199.109C674.816 198.959 676.635 198.559 677.813 197.91C679.024 197.259 679.576 196.071 679.471 194.346C679.406 193.292 679.099 192.461 678.549 191.854C677.999 191.246 677.119 190.755 675.91 190.38C674.699 189.973 673.04 189.578 670.932 189.194C667.558 188.534 665.16 187.591 663.738 186.364C662.314 185.104 661.531 183.309 661.389 180.977C661.223 178.262 662.083 176.077 663.969 174.423C665.856 172.769 668.764 171.822 672.692 171.581C674.481 171.472 676.166 171.497 677.746 171.657C679.359 171.815 680.622 172.026 681.536 172.291L681.817 176.89C679.333 176.112 676.622 175.813 673.683 175.993C671.384 176.134 669.614 176.547 668.373 177.232C667.133 177.917 666.561 179.058 666.659 180.655C666.716 181.581 666.985 182.318 667.467 182.865C667.95 183.413 668.747 183.861 669.858 184.21C671.001 184.557 672.563 184.926 674.542 185.318C677.105 185.802 679.1 186.45 680.528 187.26C681.986 188.037 683.023 188.999 683.638 190.148C684.283 191.262 684.651 192.554 684.741 194.024C684.907 196.739 684.032 198.94 682.115 200.628C680.197 202.284 677.193 203.238 673.105 203.488ZM690.308 201.955L688.421 171.1L693.643 170.781L695.531 201.635L690.308 201.955ZM701.584 201.265L699.697 170.411L704.296 170.129L721.783 191.854L720.394 169.145L725.569 168.828L727.456 199.682L722.856 199.964L705.42 178.284L706.806 200.945L701.584 201.265ZM747.943 198.91C742.864 199.221 738.947 198.082 736.192 195.493C733.469 192.903 731.964 189.26 731.676 184.565C731.469 181.179 731.85 178.222 732.817 175.694C733.783 173.135 735.358 171.115 737.544 169.635C739.762 168.152 742.627 167.304 746.14 167.089C747.961 166.978 749.614 167.005 751.099 167.17C752.614 167.302 754.039 167.552 755.376 167.919L755.652 172.422C752.974 171.624 750.038 171.323 746.844 171.518C742.916 171.759 740.216 172.966 738.746 175.139C737.308 177.311 736.708 180.346 736.947 184.242C737.163 187.788 738.159 190.436 739.933 192.187C741.707 193.938 744.335 194.707 747.817 194.494C750.564 194.326 752.764 193.871 754.418 193.128L753.89 184.504L746.177 184.976L745.968 181.575L758.138 180.83L759.046 195.682C758.095 196.382 756.71 197.06 754.891 197.716C753.101 198.338 750.785 198.737 747.943 198.91Z" fill="#6100FF"/>
<path d="M902.259 189.472C897.18 189.783 893.246 188.629 890.457 186.01C887.7 183.389 886.177 179.715 885.888 174.988C885.681 171.603 886.046 168.663 886.983 166.169C887.951 163.641 889.529 161.653 891.716 160.205C893.902 158.725 896.752 157.877 900.265 157.662C902.054 157.553 903.691 157.597 905.178 157.795C906.695 157.958 908.106 158.225 909.411 158.594L909.689 163.145C908.38 162.712 906.984 162.413 905.499 162.247C904.044 162.048 902.518 161.997 900.921 162.095C897.088 162.329 894.436 163.517 892.964 165.659C891.523 167.799 890.922 170.801 891.158 174.666C891.379 178.275 892.409 180.969 894.249 182.748C896.087 184.495 898.811 185.259 902.42 185.038C903.889 184.948 905.352 184.746 906.807 184.433C908.293 184.085 909.675 183.616 910.953 183.025L911.235 187.625C909.982 188.118 908.612 188.522 907.125 188.838C905.669 189.151 904.047 189.363 902.259 189.472ZM929.096 187.831C924.209 188.129 920.473 187.075 917.89 184.669C915.304 182.23 913.846 178.312 913.516 172.914C913.172 167.292 914.137 163.146 916.41 160.474C918.683 157.802 922.263 156.317 927.15 156.018C932.069 155.717 935.803 156.755 938.353 159.132C940.935 161.507 942.397 165.505 942.741 171.126C943.071 176.524 942.102 180.591 939.833 183.327C937.593 186.028 934.014 187.53 929.096 187.831ZM928.826 183.423C932.052 183.225 934.362 182.203 935.756 180.354C937.179 178.472 937.767 175.502 937.519 171.446C937.257 167.166 936.308 164.226 934.671 162.627C933.065 160.994 930.648 160.276 927.422 160.474C924.228 160.669 921.917 161.676 920.49 163.494C919.092 165.279 918.524 168.311 918.786 172.591C919.034 176.648 919.963 179.525 921.574 181.221C923.215 182.884 925.632 183.618 928.826 183.423ZM948.771 186.146L946.884 155.292L951.484 155.011L968.97 176.736L967.582 154.026L972.756 153.709L974.643 184.564L970.044 184.845L952.608 163.165L953.994 185.827L948.771 186.146ZM990.901 183.569L977.228 153.436L982.642 153.105L993.433 177.788L1001.14 151.974L1006.55 151.643L996.746 183.212L990.901 183.569ZM1012.87 182.226L1010.98 151.371L1032.49 150.056L1032.74 154.128L1016.45 155.124L1017.03 164.467L1031.54 163.579L1031.79 167.603L1017.27 168.491L1017.85 177.882L1034.14 176.886L1034.38 180.91L1012.87 182.226ZM1039.21 180.615L1037.32 149.76L1051.51 148.893C1054.96 148.682 1057.52 149.423 1059.19 151.116C1060.9 152.775 1061.84 155.122 1062.03 158.156C1062.16 160.328 1061.73 162.214 1060.74 163.813C1059.75 165.413 1058.25 166.578 1056.24 167.31C1056.84 167.69 1057.31 168.11 1057.66 168.57C1058.01 169.029 1058.37 169.649 1058.74 170.428L1063.17 179.149L1057.8 179.478L1053.49 171.085C1053.09 170.276 1052.62 169.712 1052.09 169.392C1051.59 169.07 1050.74 168.945 1049.56 169.017L1043.77 169.372L1044.43 180.295L1039.21 180.615ZM1043.51 165.155L1051.08 164.693C1052.96 164.577 1054.42 164.023 1055.45 163.031C1056.48 162.038 1056.93 160.519 1056.8 158.475C1056.57 154.61 1054.58 152.792 1050.84 153.021L1042.8 153.513L1043.51 165.155ZM1077.83 178.734C1073.83 178.978 1070.59 178.663 1068.1 177.79L1067.82 173.19C1069.23 173.617 1070.72 173.943 1072.3 174.166C1073.92 174.388 1075.51 174.451 1077.08 174.355C1079.54 174.205 1081.36 173.805 1082.53 173.156C1083.74 172.505 1084.3 171.317 1084.19 169.592C1084.13 168.538 1083.82 167.707 1083.27 167.1C1082.72 166.492 1081.84 166.001 1080.63 165.626C1079.42 165.219 1077.76 164.824 1075.65 164.44C1072.28 163.781 1069.88 162.837 1068.46 161.61C1067.04 160.35 1066.25 158.555 1066.11 156.223C1065.94 153.508 1066.8 151.324 1068.69 149.669C1070.58 148.015 1073.48 147.068 1077.41 146.827C1079.2 146.718 1080.89 146.743 1082.47 146.903C1084.08 147.061 1085.34 147.272 1086.26 147.537L1086.54 152.136C1084.05 151.358 1081.34 151.059 1078.4 151.239C1076.1 151.38 1074.33 151.793 1073.09 152.478C1071.85 153.163 1071.28 154.304 1071.38 155.901C1071.44 156.827 1071.71 157.564 1072.19 158.111C1072.67 158.659 1073.47 159.107 1074.58 159.456C1075.72 159.803 1077.28 160.172 1079.26 160.564C1081.83 161.049 1083.82 161.696 1085.25 162.506C1086.71 163.283 1087.74 164.245 1088.36 165.394C1089 166.509 1089.37 167.801 1089.46 169.27C1089.63 171.985 1088.75 174.186 1086.84 175.874C1084.92 177.531 1081.91 178.484 1077.83 178.734ZM1091.5 177.417L1101.4 145.841L1107.24 145.484L1120.82 175.623L1115.45 175.951L1111.9 168.186L1099.49 168.945L1096.91 177.085L1091.5 177.417ZM1100.06 164.87L1110.79 164.214L1104.56 150.409L1100.06 164.87ZM1129.89 175.069L1128.25 148.287L1118.38 148.89L1118.13 144.818L1143.04 143.294L1143.29 147.367L1133.47 147.967L1135.11 174.749L1129.89 175.069ZM1149.12 173.893L1147.23 143.038L1152.45 142.719L1154.34 173.573L1149.12 173.893ZM1174.08 172.847C1169.19 173.146 1165.45 172.092 1162.87 169.685C1160.28 167.246 1158.83 163.328 1158.5 157.93C1158.15 152.309 1159.12 148.162 1161.39 145.49C1163.66 142.819 1167.24 141.333 1172.13 141.034C1177.05 140.733 1180.78 141.771 1183.33 144.148C1185.91 146.523 1187.38 150.521 1187.72 156.143C1188.05 161.541 1187.08 165.607 1184.81 168.343C1182.57 171.045 1178.99 172.546 1174.08 172.847ZM1173.81 168.439C1177.03 168.242 1179.34 167.219 1180.74 165.37C1182.16 163.488 1182.75 160.519 1182.5 156.462C1182.24 152.182 1181.29 149.243 1179.65 147.643C1178.04 146.011 1175.63 145.293 1172.4 145.49C1169.21 145.685 1166.9 146.692 1165.47 148.511C1164.07 150.296 1163.5 153.328 1163.77 157.608C1164.01 161.664 1164.94 164.541 1166.55 166.238C1168.19 167.901 1170.61 168.634 1173.81 168.439ZM1193.75 171.163L1191.86 140.308L1196.46 140.027L1213.95 161.752L1212.56 139.042L1217.74 138.726L1219.62 169.58L1215.02 169.862L1197.59 148.182L1198.97 170.843L1193.75 171.163ZM1224.8 169.264L1234.7 137.689L1240.54 137.331L1254.12 167.47L1248.75 167.799L1245.2 160.033L1232.79 160.792L1230.21 168.933L1224.8 169.264ZM1233.36 156.718L1244.09 156.061L1237.86 142.256L1233.36 156.718ZM1259.25 167.156L1257.37 136.302L1262.59 135.983L1264.23 162.812L1280.04 161.845L1280.29 165.87L1259.25 167.156ZM1294.56 164.997L1304.46 133.422L1310.3 133.064L1323.88 163.204L1318.51 163.532L1314.96 155.766L1302.55 156.525L1299.97 164.666L1294.56 164.997ZM1303.12 152.451L1313.85 151.795L1307.62 137.989L1303.12 152.451ZM1329.01 162.89L1327.13 132.035L1332.35 131.716L1334.24 162.57L1329.01 162.89ZM1360.7 161.432C1356.71 161.676 1353.47 161.362 1350.98 160.488L1350.7 155.889C1352.1 156.316 1353.6 156.641 1355.18 156.865C1356.8 157.086 1358.39 157.149 1359.95 157.054C1362.41 156.903 1364.23 156.504 1365.41 155.854C1366.62 155.203 1367.17 154.015 1367.07 152.291C1367 151.237 1366.7 150.406 1366.15 149.798C1365.6 149.191 1364.72 148.699 1363.51 148.325C1362.3 147.918 1360.64 147.522 1358.53 147.138C1355.16 146.479 1352.76 145.536 1351.34 144.308C1349.91 143.049 1349.13 141.253 1348.99 138.921C1348.82 136.207 1349.68 134.022 1351.57 132.368C1353.45 130.713 1356.36 129.766 1360.29 129.526C1362.08 129.417 1363.76 129.442 1365.34 129.602C1366.96 129.759 1368.22 129.971 1369.13 130.235L1369.42 134.835C1366.93 134.057 1364.22 133.758 1361.28 133.938C1358.98 134.078 1357.21 134.491 1355.97 135.176C1354.73 135.861 1354.16 137.002 1354.26 138.599C1354.31 139.525 1354.58 140.262 1355.07 140.81C1355.55 141.358 1356.35 141.806 1357.46 142.154C1358.6 142.501 1360.16 142.871 1362.14 143.263C1364.7 143.747 1366.7 144.394 1368.13 145.205C1369.58 145.981 1370.62 146.944 1371.24 148.092C1371.88 149.207 1372.25 150.499 1372.34 151.968C1372.51 154.683 1371.63 156.885 1369.71 158.573C1367.8 160.229 1364.79 161.182 1360.7 161.432ZM1391.59 159.543C1386.7 159.842 1382.97 158.788 1380.38 156.381C1377.8 153.943 1376.34 150.024 1376.01 144.626C1375.67 139.005 1376.63 134.858 1378.9 132.187C1381.18 129.515 1384.76 128.029 1389.64 127.731C1394.56 127.43 1398.3 128.468 1400.85 130.844C1403.43 133.219 1404.89 137.217 1405.24 142.839C1405.57 148.237 1404.6 152.304 1402.33 155.039C1400.09 157.741 1396.51 159.242 1391.59 159.543ZM1391.32 155.135C1394.55 154.938 1396.86 153.915 1398.25 152.067C1399.67 150.184 1400.26 147.215 1400.01 143.158C1399.75 138.878 1398.8 135.939 1397.17 134.34C1395.56 132.707 1393.14 131.989 1389.92 132.186C1386.72 132.382 1384.41 133.389 1382.98 135.207C1381.59 136.992 1381.02 140.024 1381.28 144.304C1381.53 148.36 1382.46 151.237 1384.07 152.934C1385.71 154.597 1388.13 155.331 1391.32 155.135ZM1411.27 157.859L1409.38 127.004L1414.6 126.685L1416.24 153.515L1432.05 152.548L1432.3 156.572L1411.27 157.859ZM1449.64 155.992C1445.39 156.252 1442.03 155.432 1439.54 153.533C1437.08 151.631 1435.73 148.748 1435.5 144.883L1434.31 125.48L1439.53 125.16L1440.71 144.372C1440.87 146.959 1441.69 148.849 1443.17 150.04C1444.69 151.23 1446.75 151.745 1449.37 151.585C1451.96 151.426 1453.92 150.666 1455.24 149.302C1456.6 147.936 1457.2 145.96 1457.05 143.373L1455.87 124.161L1461.05 123.844L1462.23 143.248C1462.47 147.113 1461.48 150.139 1459.28 152.325C1457.07 154.512 1453.86 155.735 1449.64 155.992ZM1476.72 153.855L1475.08 127.073L1465.22 127.677L1464.97 123.605L1489.88 122.081L1490.13 126.153L1480.31 126.754L1481.94 153.536L1476.72 153.855ZM1495.95 152.679L1494.06 121.825L1499.29 121.505L1501.17 152.36L1495.95 152.679ZM1520.91 151.633C1516.02 151.932 1512.29 150.878 1509.71 148.472C1507.12 146.033 1505.66 142.115 1505.33 136.717C1504.99 131.095 1505.95 126.949 1508.23 124.277C1510.5 121.605 1514.08 120.12 1518.97 119.821C1523.88 119.52 1527.62 120.558 1530.17 122.935C1532.75 125.31 1534.21 129.308 1534.56 134.929C1534.89 140.327 1533.92 144.394 1531.65 147.13C1529.41 149.831 1525.83 151.333 1520.91 151.633ZM1520.64 147.226C1523.87 147.028 1526.18 146.005 1527.57 144.157C1529 142.275 1529.58 139.305 1529.34 135.249C1529.07 130.969 1528.12 128.029 1526.49 126.43C1524.88 124.797 1522.46 124.079 1519.24 124.277C1516.04 124.472 1513.73 125.479 1512.31 127.297C1510.91 129.082 1510.34 132.114 1510.6 136.394C1510.85 140.451 1511.78 143.327 1513.39 145.024C1515.03 146.687 1517.45 147.421 1520.64 147.226ZM1540.59 149.949L1538.7 119.095L1543.3 118.814L1560.79 140.538L1559.4 117.829L1564.57 117.512L1566.46 148.367L1561.86 148.648L1544.42 126.968L1545.81 149.63L1540.59 149.949ZM1581.92 147.902C1577.92 148.147 1574.68 147.832 1572.19 146.958L1571.91 142.359C1573.31 142.786 1574.81 143.111 1576.39 143.335C1578.01 143.557 1579.6 143.62 1581.17 143.524C1583.63 143.373 1585.44 142.974 1586.62 142.325C1587.83 141.673 1588.39 140.485 1588.28 138.761C1588.22 137.707 1587.91 136.876 1587.36 136.268C1586.81 135.661 1585.93 135.17 1584.72 134.795C1583.51 134.388 1581.85 133.992 1579.74 133.608C1576.37 132.949 1573.97 132.006 1572.55 130.778C1571.12 129.519 1570.34 127.723 1570.2 125.392C1570.03 122.677 1570.89 120.492 1572.78 118.838C1574.67 117.184 1577.57 116.236 1581.5 115.996C1583.29 115.887 1584.98 115.912 1586.56 116.072C1588.17 116.229 1589.43 116.441 1590.35 116.705L1590.63 121.305C1588.14 120.527 1585.43 120.228 1582.49 120.408C1580.19 120.548 1578.42 120.961 1577.18 121.646C1575.94 122.331 1575.37 123.472 1575.47 125.069C1575.53 125.996 1575.8 126.732 1576.28 127.28C1576.76 127.828 1577.56 128.276 1578.67 128.625C1579.81 128.971 1581.37 129.341 1583.35 129.733C1585.91 130.217 1587.91 130.865 1589.34 131.675C1590.8 132.451 1591.83 133.414 1592.45 134.562C1593.09 135.677 1593.46 136.969 1593.55 138.438C1593.72 141.153 1592.84 143.355 1590.93 145.043C1589.01 146.699 1586 147.652 1581.92 147.902Z" fill="white"/>
<path d="M1735.37 138.036L1733.73 111.254L1723.86 111.857L1723.61 107.785L1748.53 106.261L1748.78 110.334L1738.95 110.934L1740.59 137.716L1735.37 138.036ZM1749.62 137.164L1759.52 105.589L1765.36 105.232L1778.94 135.371L1773.57 135.699L1770.02 127.934L1757.61 128.692L1755.03 136.833L1749.62 137.164ZM1758.18 124.618L1768.91 123.962L1762.68 110.156L1758.18 124.618ZM1790.83 135.125C1786.83 135.369 1783.59 135.054 1781.1 134.181L1780.82 129.581C1782.23 130.008 1783.72 130.334 1785.31 130.557C1786.92 130.779 1788.51 130.842 1790.08 130.746C1792.54 130.596 1794.36 130.196 1795.53 129.547C1796.75 128.896 1797.3 127.708 1797.19 125.983C1797.13 124.929 1796.82 124.098 1796.27 123.491C1795.72 122.883 1794.84 122.392 1793.63 122.017C1792.42 121.61 1790.76 121.215 1788.65 120.831C1785.28 120.171 1782.88 119.228 1781.46 118.001C1780.04 116.741 1779.25 114.946 1779.11 112.614C1778.94 109.899 1779.8 107.714 1781.69 106.06C1783.58 104.406 1786.49 103.459 1790.41 103.218C1792.2 103.109 1793.89 103.134 1795.47 103.294C1797.08 103.452 1798.34 103.663 1799.26 103.928L1799.54 108.527C1797.05 107.749 1794.34 107.45 1791.41 107.63C1789.11 107.771 1787.34 108.184 1786.09 108.869C1784.85 109.554 1784.28 110.695 1784.38 112.292C1784.44 113.218 1784.71 113.955 1785.19 114.502C1785.67 115.05 1786.47 115.498 1787.58 115.847C1788.72 116.194 1790.28 116.563 1792.26 116.955C1794.83 117.44 1796.82 118.087 1798.25 118.897C1799.71 119.674 1800.74 120.636 1801.36 121.785C1802.01 122.9 1802.37 124.191 1802.46 125.661C1802.63 128.376 1801.75 130.577 1799.84 132.265C1797.92 133.922 1794.91 134.875 1790.83 135.125ZM1808.03 133.592L1806.14 102.737L1811.37 102.418L1812.23 116.599L1824.49 101.615L1830.53 101.246L1819.94 114.397L1832.9 132.071L1827.34 132.411L1816.88 117.902L1812.63 123.067L1813.25 133.272L1808.03 133.592ZM1848.11 131.141L1858 99.5653L1863.85 99.2078L1877.43 129.347L1872.06 129.675L1868.51 121.91L1856.1 122.669L1853.52 130.809L1848.11 131.141ZM1856.67 118.594L1867.4 117.938L1861.17 104.133L1856.67 118.594ZM1893.62 128.838C1889.37 129.098 1886 128.278 1883.51 126.378C1881.05 124.477 1879.71 121.593 1879.47 117.729L1878.28 98.325L1883.51 98.0056L1884.68 117.218C1884.84 119.805 1885.66 121.694 1887.14 122.886C1888.66 124.076 1890.73 124.59 1893.35 124.43C1895.93 124.272 1897.89 123.511 1899.22 122.147C1900.58 120.782 1901.18 118.806 1901.02 116.218L1899.84 97.0063L1905.02 96.6898L1906.2 116.094C1906.44 119.958 1905.46 122.984 1903.25 125.171C1901.04 127.358 1897.83 128.58 1893.62 128.838ZM1920.69 126.701L1919.06 99.9188L1909.19 100.522L1908.94 96.4501L1933.85 94.9263L1934.1 98.9987L1924.28 99.5994L1925.92 126.381L1920.69 126.701ZM1953.14 125.197C1948.25 125.496 1944.52 124.442 1941.93 122.035C1939.35 119.597 1937.89 115.678 1937.56 110.281C1937.22 104.659 1938.18 100.512 1940.45 97.8406C1942.73 95.1689 1946.31 93.6836 1951.19 93.3847C1956.11 93.0838 1959.85 94.1218 1962.4 96.4985C1964.98 98.8734 1966.44 102.872 1966.79 108.493C1967.12 113.891 1966.15 117.958 1963.88 120.693C1961.64 123.395 1958.06 124.896 1953.14 125.197ZM1952.87 120.789C1956.1 120.592 1958.41 119.569 1959.8 117.721C1961.22 115.838 1961.81 112.869 1961.56 108.812C1961.3 104.532 1960.35 101.593 1958.72 99.9938C1957.11 98.3608 1954.69 97.643 1951.47 97.8403C1948.27 98.0357 1945.96 99.0426 1944.53 100.861C1943.14 102.646 1942.57 105.678 1942.83 109.958C1943.08 114.015 1944.01 116.891 1945.62 118.588C1947.26 120.251 1949.68 120.985 1952.87 120.789ZM1972.82 123.513L1970.93 92.6586L1976.29 92.3304L1987.29 111.711L1995.79 91.1377L2001.16 90.8095L2003.05 121.664L1997.87 121.98L1996.5 99.6061L1989.21 117.172L1986.05 117.366L1976.62 100.822L1977.99 123.196L1972.82 123.513ZM2008.17 121.351L2018.06 89.7756L2023.91 89.4181L2037.49 119.557L2032.12 119.886L2028.57 112.12L2016.16 112.879L2013.58 121.02L2008.17 121.351ZM2016.73 108.805L2027.46 108.148L2021.23 94.3429L2016.73 108.805ZM2046.55 119.003L2044.92 92.221L2035.05 92.8246L2034.8 88.7522L2059.71 87.2284L2059.96 91.3008L2050.14 91.9016L2051.78 118.684L2046.55 119.003ZM2065.78 117.827L2063.9 86.9725L2069.12 86.653L2071 117.507L2065.78 117.827ZM2090.74 116.781C2085.86 117.08 2082.12 116.026 2079.54 113.619C2076.95 111.181 2075.49 107.262 2075.16 101.864C2074.82 96.2429 2075.78 92.0963 2078.06 89.4245C2080.33 86.7528 2083.91 85.2674 2088.8 84.9685C2093.72 84.6677 2097.45 85.7057 2100 88.0824C2102.58 90.4572 2104.04 94.4554 2104.39 100.077C2104.72 105.475 2103.75 109.542 2101.48 112.277C2099.24 114.979 2095.66 116.48 2090.74 116.781ZM2090.47 112.373C2093.7 112.176 2096.01 111.153 2097.4 109.305C2098.83 107.422 2099.41 104.453 2099.17 100.396C2098.9 96.1163 2097.95 93.1768 2096.32 91.5777C2094.71 89.9447 2092.3 89.2269 2089.07 89.4242C2085.88 89.6196 2083.56 90.6265 2082.14 92.4451C2080.74 94.2297 2080.17 97.2621 2080.43 101.542C2080.68 105.598 2081.61 108.475 2083.22 110.172C2084.86 111.835 2087.28 112.569 2090.47 112.373ZM2110.42 115.097L2108.53 84.2424L2113.13 83.9611L2130.62 105.686L2129.23 82.9765L2134.4 82.6601L2136.29 113.514L2131.69 113.796L2114.25 92.1157L2115.64 114.777L2110.42 115.097ZM2159.69 112.083L2150.62 81.6683L2155.74 81.3547L2162.38 104.176L2167.04 84.4148L2166.81 80.6778L2171.08 80.417L2179.06 103.156L2182.96 79.6903L2188.04 79.3797L2182.78 110.671L2177.66 110.984L2170.16 89.7546L2164.91 111.764L2159.69 112.083ZM2195.06 109.92L2193.17 79.0657L2198.39 78.7463L2200.28 109.601L2195.06 109.92ZM2214.33 108.741L2212.7 81.9591L2202.83 82.5627L2202.58 78.4903L2227.49 76.9666L2227.74 81.039L2217.92 81.6397L2219.56 108.422L2214.33 108.741ZM2233.56 107.565L2231.68 76.7106L2236.9 76.3912L2237.72 89.8061L2252.57 88.8977L2251.75 75.4828L2256.97 75.1634L2258.86 106.018L2253.64 106.337L2252.82 92.9222L2237.96 93.8306L2238.79 107.246L2233.56 107.565ZM2290.45 104.566C2285.37 104.877 2281.44 103.723 2278.65 101.104C2275.89 98.4838 2274.37 94.81 2274.08 90.0828C2273.87 86.6971 2274.24 83.7574 2275.18 81.2635C2276.14 78.7357 2277.72 76.7477 2279.91 75.2994C2282.09 73.8192 2284.94 72.9717 2288.46 72.7568C2290.25 72.6474 2291.88 72.6915 2293.37 72.8891C2294.89 73.0528 2296.3 73.3192 2297.6 73.6882L2297.88 78.2397C2296.57 77.8068 2295.18 77.5075 2293.69 77.3418C2292.24 77.1423 2290.71 77.0913 2289.11 77.189C2285.28 77.4234 2282.63 78.6116 2281.16 80.7534C2279.72 82.8933 2279.11 85.8957 2279.35 89.7605C2279.57 93.3697 2280.6 96.0638 2282.44 97.8428C2284.28 99.5899 2287 100.353 2290.61 100.132C2292.08 100.042 2293.54 99.8408 2295 99.5273C2296.49 99.18 2297.87 98.7107 2299.15 98.1196L2299.43 102.719C2298.17 103.212 2296.8 103.617 2295.32 103.932C2293.86 104.246 2292.24 104.457 2290.45 104.566ZM2304.54 103.224L2302.65 72.3694L2307.87 72.05L2308.7 85.465L2323.55 84.5566L2322.73 71.1416L2327.95 70.8222L2329.84 101.677L2324.61 101.996L2323.79 88.5811L2308.94 89.4895L2309.76 102.904L2304.54 103.224ZM2334.98 101.362L2344.88 69.787L2350.72 69.4295L2364.3 99.5688L2358.93 99.897L2355.38 92.1314L2342.97 92.8904L2340.39 101.031L2334.98 101.362ZM2343.54 88.8161L2354.27 88.1597L2348.04 74.3543L2343.54 88.8161ZM2373.36 99.0143L2371.73 72.2323L2361.86 72.836L2361.61 68.7636L2386.52 67.2398L2386.77 71.3122L2376.95 71.9129L2378.59 98.6949L2373.36 99.0143ZM2392.59 97.8382L2390.71 66.9838L2405.65 66.0696C2408.72 65.882 2411.03 66.462 2412.59 67.8094C2414.15 69.1569 2415.01 71.1402 2415.17 73.7593C2415.27 75.4202 2415.02 76.846 2414.42 78.0369C2413.82 79.1959 2412.97 80.097 2411.89 80.7403C2413.42 81.0637 2414.64 81.742 2415.57 82.7752C2416.53 83.7746 2417.07 85.3123 2417.2 87.3884C2417.39 90.3908 2416.71 92.6764 2415.17 94.2453C2413.66 95.8122 2411.34 96.6914 2408.21 96.8829L2392.59 97.8382ZM2396.73 79.8398L2405.74 79.2889C2407.5 79.1815 2408.72 78.706 2409.41 77.8626C2410.12 76.9852 2410.44 75.8599 2410.35 74.4864C2410.26 72.8894 2409.8 71.7311 2408.99 71.0114C2408.17 70.2597 2406.71 69.9484 2404.6 70.0773L2396.17 70.5931L2396.73 79.8398ZM2397.58 93.6859L2406.88 93.1174C2408.73 93.0041 2410.06 92.5378 2410.88 91.7185C2411.69 90.8673 2412.04 89.4675 2411.92 87.5191C2411.82 85.9221 2411.32 84.7667 2410.41 84.0528C2409.53 83.3051 2407.97 82.9996 2405.74 83.1364L2396.97 83.6726L2397.58 93.6859ZM2436.5 95.6335C2431.62 95.9324 2427.88 94.8785 2425.3 92.4717C2422.71 90.033 2421.25 86.1147 2420.92 80.7168C2420.58 75.0953 2421.54 70.9487 2423.82 68.2769C2426.09 65.6052 2429.67 64.1198 2434.56 63.8209C2439.48 63.5201 2443.21 64.5581 2445.76 66.9348C2448.34 69.3096 2449.8 73.3078 2450.15 78.9293C2450.48 84.3272 2449.51 88.394 2447.24 91.1296C2445 93.8314 2441.42 95.3327 2436.5 95.6335ZM2436.23 91.2257C2439.46 91.0284 2441.77 90.0055 2443.16 88.157C2444.59 86.2745 2445.17 83.3051 2444.93 79.2487C2444.66 74.9687 2443.71 72.0292 2442.08 70.4301C2440.47 68.7971 2438.06 68.0793 2434.83 68.2766C2431.64 68.472 2429.32 69.4789 2427.9 71.2975C2426.5 73.0821 2425.93 76.1145 2426.19 80.3945C2426.44 84.4509 2427.37 87.3275 2428.98 89.0244C2430.62 90.6873 2433.04 91.4211 2436.23 91.2257ZM2463.71 93.4884L2462.07 66.7065L2452.2 67.3101L2451.95 63.2377L2476.87 61.714L2477.12 65.7864L2467.3 66.3871L2468.93 93.169L2463.71 93.4884ZM2490.86 92.3087C2486.87 92.5529 2483.63 92.2382 2481.14 91.3646L2480.86 86.7652C2482.26 87.1922 2483.76 87.5176 2485.34 87.7413C2486.96 87.963 2488.55 88.026 2490.11 87.9303C2492.57 87.7798 2494.39 87.38 2495.57 86.7309C2496.78 86.0798 2497.33 84.8918 2497.23 83.1671C2497.16 82.113 2496.86 81.2822 2496.31 80.6747C2495.76 80.0671 2494.88 79.5759 2493.67 79.201C2492.46 78.7942 2490.8 78.3988 2488.69 78.0147C2485.31 77.3555 2482.92 76.4121 2481.5 75.1846C2480.07 73.9252 2479.29 72.1296 2479.15 69.798C2478.98 67.0831 2479.84 64.8985 2481.73 63.2442C2483.61 61.59 2486.52 60.6427 2490.45 60.4024C2492.24 60.293 2493.92 60.3182 2495.5 60.478C2497.12 60.6358 2498.38 60.8471 2499.29 61.1118L2499.57 65.7112C2497.09 64.9334 2494.38 64.6344 2491.44 64.8141C2489.14 64.9548 2487.37 65.3676 2486.13 66.0526C2484.89 66.7376 2484.32 67.8786 2484.42 69.4757C2484.47 70.4019 2484.74 71.1388 2485.22 71.6864C2485.71 72.234 2486.5 72.6822 2487.62 73.031C2488.76 73.3778 2490.32 73.7472 2492.3 74.1391C2494.86 74.6236 2496.86 75.271 2498.29 76.0813C2499.74 76.8577 2500.78 77.8202 2501.4 78.9688C2502.04 80.0835 2502.41 81.3755 2502.5 82.8447C2502.66 85.5596 2501.79 87.7612 2499.87 89.4493C2497.95 91.1055 2494.95 92.0587 2490.86 92.3087Z" fill="#6100FF"/>
<g clip-path="url(#clip2_154_149)">
<path d="M820.078 184.631C820.013 184.813 819.889 185.169 819.706 185.7C819.523 186.232 819.38 186.703 819.279 187.115C819.178 187.527 819.135 187.872 819.152 188.15C819.2 188.934 819.426 189.522 819.831 189.916C820.235 190.309 820.779 190.486 821.461 190.444C822.093 190.405 822.615 190.138 823.029 189.644C823.443 189.15 823.752 188.604 823.956 188.008C824.16 187.413 824.387 186.651 824.634 185.722L829.988 165.649C830.607 163.329 832.004 162.102 834.176 161.969C835.188 161.907 836.082 162.221 836.859 162.908C837.637 163.596 838.066 164.597 838.146 165.911C838.183 166.518 838.075 167.133 837.821 167.757C837.568 168.382 837.176 169.128 836.646 169.998L836.268 170.667L826.35 188.889C825.53 190.411 824.767 191.428 824.063 191.94C823.359 192.452 822.489 192.74 821.453 192.803C820.468 192.863 819.559 192.627 818.727 192.095C817.896 191.563 817.278 190.687 816.874 189.469L810.835 170.968C810.34 169.527 810.074 168.491 810.036 167.859C809.957 166.57 810.328 165.489 811.15 164.614C811.971 163.739 812.976 163.266 814.163 163.193C815.199 163.13 816.071 163.393 816.78 163.984C817.488 164.576 817.874 165.389 817.937 166.425C817.979 167.107 817.736 167.902 817.208 168.809C816.681 169.716 816.077 170.635 815.398 171.564C814.79 172.387 814.501 173.064 814.533 173.595C814.549 173.848 814.65 174.057 814.838 174.223C815.08 174.437 815.302 174.537 815.503 174.525C815.68 174.514 815.878 174.432 816.097 174.279C816.316 174.126 816.504 173.975 816.659 173.826C816.815 173.677 816.941 173.562 817.037 173.48L819.525 171.235C820.39 170.447 821.029 169.9 821.441 169.596C821.853 169.292 822.3 169.125 822.78 169.096C823.387 169.058 823.891 169.218 824.293 169.574C824.696 169.93 824.913 170.373 824.945 170.903C824.964 171.207 824.925 171.507 824.829 171.805C824.733 172.102 824.562 172.525 824.317 173.073C824.116 173.516 823.874 174.115 823.59 174.867L820.078 184.631Z" fill="#8C7BFF"/>
</g>
<g clip-path="url(#clip3_154_149)">
<path d="M1654.73 133.582C1654.67 133.764 1654.54 134.119 1654.36 134.651C1654.17 135.182 1654.03 135.653 1653.93 136.065C1653.83 136.478 1653.79 136.823 1653.8 137.1C1653.85 137.884 1654.08 138.472 1654.48 138.866C1654.89 139.26 1655.43 139.436 1656.11 139.394C1656.74 139.356 1657.27 139.089 1657.68 138.595C1658.09 138.1 1658.4 137.554 1658.61 136.959C1658.81 136.363 1659.04 135.601 1659.29 134.673L1664.64 114.6C1665.26 112.279 1666.66 111.052 1668.83 110.92C1669.84 110.858 1670.73 111.171 1671.51 111.859C1672.29 112.546 1672.72 113.547 1672.8 114.862C1672.83 115.468 1672.73 116.083 1672.47 116.708C1672.22 117.332 1671.83 118.079 1671.3 118.948L1670.92 119.618L1661 137.84C1660.18 139.361 1659.42 140.378 1658.72 140.89C1658.01 141.402 1657.14 141.69 1656.1 141.753C1655.12 141.814 1654.21 141.577 1653.38 141.045C1652.55 140.513 1651.93 139.638 1651.53 138.419L1645.49 119.918C1644.99 118.477 1644.73 117.441 1644.69 116.809C1644.61 115.521 1644.98 114.439 1645.8 113.564C1646.62 112.69 1647.63 112.216 1648.82 112.144C1649.85 112.08 1650.72 112.344 1651.43 112.935C1652.14 113.526 1652.53 114.339 1652.59 115.375C1652.63 116.057 1652.39 116.852 1651.86 117.759C1651.33 118.667 1650.73 119.585 1650.05 120.514C1649.44 121.338 1649.15 122.015 1649.19 122.546C1649.2 122.799 1649.3 123.007 1649.49 123.174C1649.73 123.387 1649.95 123.488 1650.16 123.475C1650.33 123.464 1650.53 123.383 1650.75 123.23C1650.97 123.076 1651.16 122.926 1651.31 122.777C1651.47 122.627 1651.59 122.512 1651.69 122.43L1654.18 120.185C1655.04 119.397 1655.68 118.85 1656.09 118.546C1656.51 118.242 1656.95 118.075 1657.43 118.046C1658.04 118.009 1658.54 118.168 1658.95 118.524C1659.35 118.88 1659.56 119.323 1659.6 119.854C1659.62 120.157 1659.58 120.457 1659.48 120.755C1659.39 121.053 1659.21 121.475 1658.97 122.023C1658.77 122.466 1658.53 123.065 1658.24 123.818L1654.73 133.582Z" fill="#8C7BFF"/>
</g>
<defs>
<clipPath id="clip0_154_149">
<rect width="28.1772" height="30" fill="white" transform="translate(418.778 54.0049) rotate(2)"/>
</clipPath>
<clipPath id="clip1_154_149">
<rect width="28.1772" height="30" fill="white" transform="translate(1254.48 83.1882) rotate(2)"/>
</clipPath>
<clipPath id="clip2_154_149">
<rect width="28.1772" height="30" fill="white" transform="translate(809.767 163.462) rotate(-3.5)"/>
</clipPath>
<clipPath id="clip3_154_149">
<rect width="28.1772" height="30" fill="white" transform="translate(1644.42 112.412) rotate(-3.5)"/>
</clipPath>
</defs>
</svg>
