<svg width="115" height="41" viewBox="0 0 115 41" fill="none" xmlns="http://www.w3.org/2000/svg">
<path d="M52.2523 28.5005V16.4045H47.9083V13.0445H61.1083V16.4045H56.7643V28.5005H52.2523ZM64.2797 28.7405C63.5597 28.7405 62.8877 28.6125 62.2637 28.3565C61.6557 28.1005 61.1677 27.7005 60.7997 27.1565C60.4317 26.6125 60.2477 25.9245 60.2477 25.0925C60.2477 23.8925 60.6477 22.9645 61.4477 22.3085C62.2477 21.6365 63.4557 21.3005 65.0717 21.3005H68.0237V21.0845C68.0237 20.6365 67.8397 20.3085 67.4717 20.1005C67.1037 19.8925 66.4557 19.7885 65.5277 19.7885C64.2157 19.7885 62.9197 19.9885 61.6397 20.3885V17.6765C62.2157 17.4525 62.9357 17.2685 63.7997 17.1245C64.6637 16.9645 65.5437 16.8845 66.4397 16.8845C68.2477 16.8845 69.6797 17.2525 70.7357 17.9885C71.7917 18.7245 72.3197 19.8925 72.3197 21.4925V28.5005H68.3837L68.1677 27.5885C67.7677 27.9405 67.2477 28.2205 66.6077 28.4285C65.9837 28.6365 65.2077 28.7405 64.2797 28.7405ZM65.8157 26.1005C66.3277 26.1005 66.7597 26.0125 67.1117 25.8365C67.4797 25.6605 67.7837 25.4445 68.0237 25.1885V23.7725H65.8397C64.8477 23.7725 64.3517 24.1645 64.3517 24.9485C64.3517 25.7165 64.8397 26.1005 65.8157 26.1005ZM74.3683 28.5005V17.1245H78.5923L78.7123 17.9885C79.1443 17.7005 79.7123 17.4445 80.4163 17.2205C81.1363 16.9965 81.9043 16.8845 82.7203 16.8845C84.1443 16.8845 85.1843 17.2365 85.8403 17.9405C86.4963 18.6445 86.8243 19.7325 86.8243 21.2045V28.5005H82.3123V21.6605C82.3123 21.1485 82.2003 20.7805 81.9763 20.5565C81.7523 20.3325 81.3603 20.2205 80.8003 20.2205C80.4643 20.2205 80.1123 20.3005 79.7443 20.4605C79.3923 20.6205 79.1043 20.8125 78.8803 21.0365V28.5005H74.3683ZM92.9807 28.7405C91.6527 28.7405 90.6127 28.3645 89.8607 27.6125C89.1087 26.8605 88.7327 25.7565 88.7327 24.3005V17.1245H93.2447V23.9405C93.2447 24.9325 93.7487 25.4285 94.7567 25.4285C95.1247 25.4285 95.4847 25.3485 95.8367 25.1885C96.1887 25.0285 96.4687 24.8285 96.6767 24.5885V17.1245H101.189V28.5005H96.9647L96.8447 27.6365C96.3967 27.9565 95.8447 28.2205 95.1887 28.4285C94.5487 28.6365 93.8127 28.7405 92.9807 28.7405ZM107.777 28.7405C106.801 28.7405 105.881 28.6685 105.017 28.5245C104.169 28.3965 103.497 28.2285 103.001 28.0205V24.7805C103.561 25.0365 104.225 25.2365 104.993 25.3805C105.777 25.5245 106.441 25.5965 106.985 25.5965C107.561 25.5965 107.993 25.5805 108.281 25.5485C108.585 25.5165 108.737 25.3805 108.737 25.1405C108.737 24.8685 108.473 24.6605 107.945 24.5165C107.417 24.3725 106.753 24.1645 105.953 23.8925C104.913 23.5245 104.137 23.0925 103.625 22.5965C103.113 22.1005 102.857 21.3805 102.857 20.4365C102.857 19.3005 103.305 18.4285 104.201 17.8205C105.097 17.1965 106.505 16.8845 108.425 16.8845C109.161 16.8845 109.921 16.9405 110.705 17.0525C111.489 17.1645 112.105 17.2925 112.553 17.4365V20.6045C112.073 20.3965 111.545 20.2445 110.969 20.1485C110.409 20.0525 109.897 20.0045 109.433 20.0045C108.921 20.0045 108.465 20.0285 108.065 20.0765C107.665 20.1245 107.465 20.2605 107.465 20.4845C107.465 20.7405 107.689 20.9245 108.137 21.0365C108.601 21.1485 109.217 21.3245 109.985 21.5645C110.849 21.8205 111.521 22.1005 112.001 22.4045C112.497 22.7085 112.841 23.0765 113.033 23.5085C113.241 23.9405 113.345 24.4765 113.345 25.1165C113.345 26.2685 112.873 27.1645 111.929 27.8045C111.001 28.4285 109.617 28.7405 107.777 28.7405Z" fill="white"/>
<g clip-path="url(#clip0_65_26)">
<path d="M12 29.513C11.8988 29.7496 11.7048 30.2131 11.4175 30.9053C11.1302 31.5975 10.9024 32.2129 10.734 32.7532C10.5656 33.2936 10.481 33.7493 10.481 34.1203C10.481 35.1671 10.734 35.9683 11.2405 36.5255C11.7469 37.0823 12.4557 37.361 13.367 37.361C14.2112 37.361 14.9277 37.0485 15.5188 36.4244C16.1099 35.8003 16.5656 35.099 16.8859 34.323C17.2062 33.547 17.5694 32.551 17.9743 31.3358L26.7341 5.05743C27.7466 2.01947 29.7048 0.500488 32.6073 0.500488C33.9579 0.500488 35.1223 0.990468 36.101 1.96869C37.0797 2.94735 37.5692 4.31444 37.5692 6.06994C37.5692 6.88021 37.3756 7.69005 36.9868 8.50032C36.5984 9.31058 36.0159 10.2723 35.2399 11.3864L34.6831 12.247L19.9998 35.6901C18.7846 37.6483 17.687 38.9394 16.7088 39.5635C15.7301 40.1876 14.5479 40.5001 13.1644 40.5001C11.8481 40.5001 10.658 40.1116 9.59476 39.3356C8.53147 38.5597 7.78066 37.3445 7.34146 35.6901L0.810268 10.5765C0.269511 8.61836 0 7.21829 0 6.37374C0 4.65252 0.582421 3.24334 1.74683 2.1462C2.91124 1.04906 4.28744 0.500488 5.87325 0.500488C7.25683 0.500488 8.39606 0.921897 9.29096 1.76645C10.1859 2.61101 10.6329 3.72464 10.6329 5.10821C10.6329 6.0196 10.2444 7.05772 9.46846 8.22212C8.69248 9.38653 7.81408 10.5601 6.83542 11.741C5.95831 12.7878 5.51911 13.6649 5.51911 14.374C5.51911 14.7121 5.63672 14.9981 5.87369 15.2346C6.17748 15.5384 6.46479 15.6903 6.7343 15.6903C6.97082 15.6903 7.24077 15.5979 7.54457 15.4117C7.84836 15.2255 8.1105 15.0406 8.32923 14.8549C8.5484 14.6687 8.72547 14.5259 8.86087 14.4243L12.3545 11.6394C13.5697 10.6607 14.4646 9.98501 15.0379 9.61395C15.6112 9.24288 16.2188 9.05713 16.8607 9.05713C17.671 9.05713 18.3289 9.31015 18.8354 9.81662C19.3418 10.3231 19.5949 10.9307 19.5949 11.6394C19.5949 12.0443 19.5189 12.4406 19.367 12.8294C19.2151 13.2178 18.953 13.766 18.5824 14.4751C18.2786 15.0484 17.9075 15.8257 17.4683 16.8044L12 29.513Z" fill="#8C7BFF"/>
</g>
<defs>
<clipPath id="clip0_65_26">
<rect width="37.5696" height="40" fill="white" transform="translate(0 0.500488)"/>
</clipPath>
</defs>
</svg>
