<svg width="106" height="51" viewBox="0 0 106 51" fill="none" xmlns="http://www.w3.org/2000/svg">
<g clip-path="url(#clip0_37_37)">
<path d="M28.2161 40.854L28.0139 39.6504H24.7158L24.0901 40.854H21.6447L26.2666 32.4915H28.9867L30.6596 40.854H28.2161ZM27.2585 34.6222L25.6371 37.7696H27.7564L27.2585 34.6222Z" fill="#7C7D81"/>
<path d="M32.981 40.854L31.3081 32.4915H33.7535L34.7588 38.523L37.8795 32.4915H40.325L35.703 40.854H32.981Z" fill="#7C7D81"/>
<path d="M44.5922 40.854L44.39 39.6504H41.0919L40.4662 40.854H38.0208L42.6427 32.4915H45.3628L47.0357 40.854H44.5922ZM43.6346 34.6222L42.0132 37.7696H44.1325L43.6346 34.6222Z" fill="#7C7D81"/>
<path d="M48.7429 40.854L49.8855 34.3723H47.5411L47.873 32.4915H54.7077L54.3758 34.3723H52.0429L50.9003 40.854H48.7429Z" fill="#7C7D81"/>
<path d="M54.2595 40.854L55.734 32.4915H57.8914L56.4169 40.854H54.2595Z" fill="#7C7D81"/>
<path d="M58.2309 36.6786C58.6792 34.1339 60.911 32.3523 63.469 32.3523C66.0269 32.3523 67.6178 34.132 67.1696 36.6786C66.7213 39.2232 64.5009 41.0048 61.9429 41.0048C59.385 41.0048 57.7807 39.2232 58.2309 36.6786ZM64.9759 36.6786C65.2162 35.3109 64.5124 34.2579 63.1332 34.2579C61.7541 34.2579 60.6649 35.3109 60.4245 36.6786C60.1861 38.0329 60.9014 39.0992 62.2806 39.0992C63.6597 39.0973 64.7375 38.0329 64.9759 36.6786Z" fill="#7C7D81"/>
<path d="M73.2165 40.854L70.5345 36.0147L69.6818 40.854H67.5244L68.9989 32.4915H71.2174L73.7925 37.0943L74.6032 32.4915H76.7721L75.2976 40.854H73.2165Z" fill="#7C7D81"/>
<path d="M47.5679 50.8152L49.0424 42.4526H49.7577L48.2832 50.8152H47.5679Z" fill="#7C7D81"/>
<path d="M56.3444 50.8152L52.3443 43.6315L51.0777 50.8152H50.3624L51.8369 42.4526H52.5637L56.5562 49.5372L57.8056 42.4526H58.5209L57.0464 50.8152H56.3444Z" fill="#7C7D81"/>
<path d="M59.1274 50.8152L60.602 42.4526H63.2725C65.8686 42.4526 67.1638 44.3468 66.7594 46.6396C66.3512 48.9592 64.3922 50.8152 61.798 50.8152H59.1274ZM66.0079 46.6396C66.3531 44.6844 65.3784 43.1031 63.158 43.1031H61.2028L59.9572 50.1628H61.9124C64.1194 50.1628 65.6626 48.5968 66.0079 46.6396Z" fill="#7C7D81"/>
<path d="M68.3694 47.6051L69.2773 42.4509H70.006L69.0999 47.5917C68.8024 49.2856 69.5101 50.3137 71.1524 50.3137C72.7948 50.3137 73.8668 49.2856 74.1644 47.5917L75.0705 42.4509H75.7972L74.8893 47.6051C74.5249 49.6747 73.1935 50.9661 71.0361 50.9661C68.8939 50.9661 68.0069 49.6633 68.3694 47.6051Z" fill="#7C7D81"/>
<path d="M76.1501 49.6365L76.7091 49.0966C77.1402 49.7109 77.9108 50.3136 79.1144 50.3136C80.8198 50.3136 81.476 49.3599 81.6019 48.6465C82.0349 46.1896 76.7949 47.4676 77.3099 44.5453C77.5503 43.1795 78.9332 42.3135 80.4497 42.3135C81.6915 42.3135 82.5671 42.7522 83.0764 43.4923L82.5079 44.0188C82.0349 43.292 81.2394 42.9658 80.299 42.9658C79.1831 42.9658 78.2313 43.6049 78.071 44.5071C77.6933 46.6512 82.9161 45.4723 82.3649 48.595C82.1741 49.6727 81.2318 50.9641 78.9752 50.9641C77.596 50.966 76.6537 50.4014 76.1501 49.6365Z" fill="#7C7D81"/>
<path d="M85.785 50.8154L87.1451 43.1033H84.4116L84.5261 42.4509H90.7198L90.6054 43.1033H87.8719L86.5118 50.8154H85.785Z" fill="#7C7D81"/>
<path d="M95.6279 50.8152L93.894 47.355H92.0513L91.4409 50.8152H90.7256L92.2001 42.4526H95.3227C96.7648 42.4526 97.7071 43.3682 97.4363 44.8981C97.1692 46.4146 95.9541 47.2558 94.6913 47.3054L96.492 50.8152H95.6279ZM96.6828 44.8981C96.8678 43.8451 96.2593 43.105 95.1434 43.105H92.7991L92.1639 46.7045H94.5082C95.626 46.7026 96.4978 45.951 96.6828 44.8981Z" fill="#7C7D81"/>
<path d="M100.454 50.8152L101.083 47.2424L98.6056 42.4526H99.4697L101.566 46.5653L105.112 42.4526H105.978L101.81 47.2424L101.181 50.8152H100.454Z" fill="#7C7D81"/>
<path d="M0 30.0345L99.815 15.0566L81.2739 37.573L87.3321 22.2556L0 30.0345Z" fill="#7C7D81"/>
<path d="M54.7555 28.892L73.6838 0.96582L78.5232 19.3715L72.7358 9.25782L54.7555 28.892Z" fill="#7C7D81"/>
</g>
<defs>
<clipPath id="clip0_37_37">
<rect width="105.98" height="50" fill="white" transform="translate(0 0.96582)"/>
</clipPath>
</defs>
</svg>
