<svg width="83" height="51" viewBox="0 0 83 51" fill="none" xmlns="http://www.w3.org/2000/svg">
<path d="M60.8436 9.14506C60.7798 9.14506 60.713 9.14506 60.6491 9.14506C59.5692 7.51353 58.2164 6.3494 56.6922 6.01845C55.2697 5.71072 54.1956 7.69062 56.0216 7.69062C56.7067 7.69062 57.2641 8.32349 57.7083 9.21474C55.2697 9.31925 52.776 9.53988 50.2619 9.86793C50.2619 10.1844 50.2503 10.5066 50.23 10.8347C50.2155 11.0727 50.1951 11.3137 50.1719 11.5546C52.9618 11.1366 55.7023 10.8956 58.3325 10.8521C58.6373 11.8711 58.8376 12.9394 58.9392 13.7145C59.7869 20.1361 57.6619 26.7377 55.4846 32.0213C53.3798 37.122 50.7932 41.9208 47.8437 45.9358C47.8437 40.5012 50.5261 34.8634 52.0183 30.114C52.7731 27.7103 53.4988 25.7362 52.5495 23.2163C52.2592 22.4383 49.6813 17.7062 49.6813 20.9461C47.173 25.202 44.6532 29.4434 42.1101 33.65C40.0663 37.032 38.069 40.9425 35.7088 43.8252C35.7088 41.7408 37.9122 38.3587 38.667 36.7359C39.9531 33.9722 41.2508 31.223 42.502 28.4215C44.7577 23.3643 48.073 16.9863 48.4707 10.6663C48.912 3.63792 43.968 0.842257 40.1911 0.969993C36.0281 1.11224 31.8796 2.71184 28.0998 5.34784C24.3781 7.94609 19.0074 13.729 16.8446 20.3626C12.3071 22.8128 8.43726 25.5417 5.60676 28.4157C-4.86755 39.0613 2.87786 47.6892 22.9091 47.6892C25.6351 47.6892 28.4453 47.5296 31.299 47.2247C31.4384 48.0608 31.7229 48.8447 32.199 49.5443C32.7593 50.3688 34.0018 51.5184 34.7914 50.6649C35.2443 50.1743 35.7204 48.4005 36.1094 47.6399C37.3374 45.239 38.609 42.8876 39.9124 40.5854C42.7284 35.6153 45.6054 30.744 48.6826 26.1484C46.7144 31.0169 44.1742 37.2149 43.669 43.0792C42.4962 43.413 41.3204 43.7207 40.1418 44.0023C39.7615 44.6962 39.387 45.3871 39.0183 46.0809C40.5482 45.7906 42.0752 45.4655 43.5935 45.1055C43.6429 47.1783 44.0929 49.3962 45.2657 50.5255C46.6505 51.861 47.7653 49.3527 48.7175 48.0173C51.8644 43.6046 54.8865 38.9887 57.6735 34.0361C60.0366 29.8353 63.5609 24.1017 63.3519 18.1649C63.2619 15.6509 62.6406 13.0555 61.6333 10.9072C75.9513 11.6707 80.3581 19.2187 71.3034 28.4157C67.9475 31.8268 63.1864 35.0115 57.717 37.7056C56.9535 39.0003 56.1581 40.298 55.3249 41.6102C64.818 38.1613 73.1208 33.5193 78.146 28.4128C88.6232 17.773 80.8749 9.14506 60.8436 9.14506ZM31.2003 45.5961C28.9388 45.8545 26.7208 45.9909 24.5813 45.9909C8.32984 45.9909 2.89818 38.1236 12.4493 28.4157C13.477 27.3735 14.6324 26.3516 15.9011 25.3588C15.7762 28.2154 16.4062 31.1214 18.1306 33.9112C20.8944 38.3849 25.7512 39.5287 29.2756 36.5269C29.981 35.926 30.7474 35.0783 30.7474 33.7109C30.7474 32.2594 30.1175 32.9619 29.5978 33.438C27.9489 34.9534 26.3899 36.4108 24.4042 36.4108C19.2861 36.4108 19.0945 29.0718 20.8334 23.5298C22.764 17.3811 26.1954 12.2688 29.92 8.60799C33.3428 5.24332 37.9471 2.17187 42.1188 3.13859C43.939 3.55954 45.9683 5.62363 45.7302 8.79669C45.6838 9.41215 45.5909 10.0189 45.4602 10.6169C38.9283 11.8043 32.3935 13.6535 26.4102 15.976C25.5567 17.2969 24.7903 18.6788 24.1226 20.1013C30.3439 16.8005 37.6567 14.1326 44.9319 12.5242C44.4906 13.8597 43.9419 15.1341 43.4542 16.3273C40.9721 22.415 38.0109 28.0122 35.3111 33.8706C34.0656 36.5879 31.3338 41.4679 31.2003 45.5961Z" fill="#7C7D81"/>
</svg>
