<svg width="131" height="51" viewBox="0 0 131 51" fill="none" xmlns="http://www.w3.org/2000/svg">
<g clip-path="url(#clip0_37_60)">
<path d="M36.0612 7.55544L39.1 0.96582L17.6047 25.7126L27.4066 25.7238L19.1465 44.1523L39.4778 20.2142H30.5769L35.1238 9.97024C41.0167 13.7533 44.9509 20.1443 44.9509 27.6545C44.9509 39.3843 35.4093 48.8308 23.6766 48.8308C11.9468 48.8308 2.40517 39.2388 2.40517 27.5118C2.40517 15.782 11.9468 6.21514 23.6766 6.21514C25.9375 6.21514 28.1117 6.5621 30.1571 7.21967L31.7185 5.41487C29.2058 4.49708 26.5056 3.96543 23.6766 3.96543C10.7184 3.96543 0.175049 14.506 0.175049 27.467C0.175049 40.4252 10.7184 50.9658 23.6766 50.9658C36.6348 50.9658 47.1782 40.4252 47.1782 27.4642C47.1754 19.0586 42.718 11.7051 36.0612 7.55544Z" fill="#7C7D81"/>
<path d="M63.2004 23.3789H71.3934V25.1166H65.1423V27.9902H70.6827V29.7251H65.1423V32.6939H71.4717V34.4316H63.2004V23.3789Z" fill="#7C7D81"/>
<path d="M73.6459 23.3789H75.4451L81.3659 31.0206V23.3789H83.2743V34.4316H81.6486L75.557 26.5688V34.4316H73.6459V23.3789Z" fill="#7C7D81"/>
<path d="M85.9857 23.3789H94.1787V25.1166H87.9276V27.9902H93.4679V29.7251H87.9276V32.6939H94.2598V34.4316H85.9857V23.3789Z" fill="#7C7D81"/>
<path d="M96.4312 23.3789H101.356C102.747 23.3789 103.835 23.7902 104.546 24.487C105.128 25.0858 105.461 25.9056 105.461 26.871V26.9018C105.461 28.715 104.372 29.8062 102.822 30.2455L105.805 34.4316H103.516L100.802 30.5785H98.3703V34.4316H96.4312V23.3789ZM101.216 28.8577C102.604 28.8577 103.491 28.133 103.491 27.0109V26.9773C103.491 25.7937 102.637 25.1473 101.202 25.1473H98.3759V28.8549H101.216V28.8577Z" fill="#7C7D81"/>
<path d="M107.226 28.936V28.9052C107.226 25.8105 109.594 23.1914 112.923 23.1914C114.849 23.1914 116.035 23.7286 117.171 24.6912L115.94 26.1602C115.086 25.4355 114.25 24.9766 112.845 24.9766C110.808 24.9766 109.261 26.7618 109.261 28.8744V28.908C109.261 31.1829 110.76 32.8534 113.019 32.8534C114.062 32.8534 115.008 32.5204 115.685 32.0167V29.9517H112.859V28.2616H117.563V32.901C116.474 33.8299 114.913 34.6218 112.954 34.6218C109.499 34.619 107.226 32.1567 107.226 28.936Z" fill="#7C7D81"/>
<path d="M124.136 30.0721L119.748 23.3789H122.037L125.132 28.2757L128.257 23.3789H130.482L126.094 30.0245V34.4288H124.136V30.0721Z" fill="#7C7D81"/>
</g>
<defs>
<clipPath id="clip0_37_60">
<rect width="130.307" height="50" fill="white" transform="translate(0.175049 0.96582)"/>
</clipPath>
</defs>
</svg>
