<svg width="133" height="51" viewBox="0 0 133 51" fill="none" xmlns="http://www.w3.org/2000/svg">
<g clip-path="url(#clip0_37_69)">
<path d="M27.9121 31.9023V33.6578C27.9121 33.6891 28.9462 33.7613 29.8192 33.8767C30.6922 33.9921 31.3126 34.1653 31.8225 34.3961C32.378 34.6294 32.9167 34.995 33.0971 35.4976C33.2774 36.0002 33.5396 36.5774 33.5396 37.2243V39.0304C33.5396 39.6027 33.3231 40.2977 33.3183 41.1178C33.3087 41.9379 33.1379 42.7483 33.0153 43.554C32.5511 44.0181 31.707 44.4558 30.5864 44.8742C29.4657 45.2903 28.1959 45.4995 26.8323 45.4995C25.0094 45.4995 23.3597 45.1051 21.924 44.3163C20.4858 43.5275 19.2786 42.4453 18.3214 41.0697C17.3619 39.7254 16.626 38.1285 16.1234 36.2816C15.7434 34.8795 15.5173 33.3981 15.4284 31.8566L26.4596 15.1595C27.8328 15.1979 29.0352 15.4745 30.0429 16.0108C31.1347 16.5904 32.0557 17.3671 32.8157 18.3411C33.5732 19.3127 34.1913 20.3901 34.6723 21.619C35.1532 22.8455 35.5549 24.399 35.8795 25.3369H37.7794L37.5701 14.0821H35.7184L34.7685 15.5611C33.7175 14.9286 32.5055 14.3394 31.1299 13.8897C30.1342 13.565 29.0015 13.339 27.7534 13.2572L35.0426 2.19231L33.2005 0.96582L0.967773 49.7562L2.80751 50.9658L11.2799 38.1382C12.1192 40.0308 13.2062 41.6637 14.5578 43.0177C16.0103 44.4702 17.7082 45.5909 19.6561 46.3773C21.6017 47.1661 23.6266 47.5605 25.7261 47.5605C27.6909 47.5605 29.6893 47.3128 31.7287 46.8174C33.768 46.322 35.8146 45.6149 37.8708 44.6843C37.8419 44.2658 37.5822 43.7343 37.5605 43.0874C37.5365 42.4381 37.2936 41.1851 37.2936 39.331V36.7818C37.2936 36.2094 37.6231 35.7092 37.813 35.286C38.0054 34.8603 38.4479 34.5332 38.9121 34.3024C39.3017 34.1148 39.8331 33.9753 40.4608 33.8743C41.0861 33.7733 41.9831 33.7011 41.9831 33.6554V31.8999H27.9121V31.9023Z" fill="#7C7D81"/>
<path d="M71.3998 31.4093C71.2531 31.4285 71.0559 31.4574 70.8082 31.4982C70.5605 31.5367 70.3609 31.5944 70.2094 31.6666C70.0266 31.758 69.8967 31.8878 69.8174 32.0562C69.7428 32.2221 69.7043 32.4217 69.7043 32.6454V33.653C69.7043 34.3865 69.7067 34.8795 69.7163 35.1368C69.726 35.3942 69.7356 35.6034 69.75 35.7693C68.9372 36.1349 68.1291 36.4162 67.3235 36.611C66.5179 36.8082 65.7266 36.9044 64.9523 36.9044C64.1202 36.9044 63.3218 36.7481 62.5522 36.4379C61.7826 36.1277 61.1117 35.6827 60.5369 35.1104C59.9549 34.5308 59.4956 33.8238 59.1541 32.9941C58.8102 32.162 58.6418 31.2337 58.6418 30.2068C58.6418 29.216 58.8054 28.2973 59.1324 27.4508C59.4595 26.6043 59.9212 25.8708 60.5201 25.2479C61.0996 24.6371 61.7922 24.1609 62.5931 23.8218C63.3963 23.4828 64.2573 23.312 65.1711 23.312C65.9046 23.312 66.5419 23.401 67.0854 23.5765C67.6265 23.7545 68.1075 23.9661 68.5235 24.2187L68.8987 23.5958H69.6322L69.7139 28.1386H68.9636C68.8362 27.6384 68.675 27.1454 68.485 26.6596C68.2951 26.1738 68.0522 25.7385 67.7516 25.3538C67.4509 24.969 67.0854 24.6636 66.6573 24.4351C66.2269 24.2066 65.7098 24.0912 65.111 24.0912C64.4569 24.0912 63.8749 24.2259 63.3602 24.4904C62.848 24.7549 62.4007 25.1518 62.0207 25.6784C61.648 26.1859 61.3618 26.8183 61.1598 27.5759C60.9577 28.3334 60.8567 29.1799 60.8567 30.1154C60.8567 30.9403 60.9553 31.7171 61.1525 32.4482C61.3521 33.1793 61.6431 33.8093 62.0207 34.3408C62.3983 34.8843 62.872 35.3124 63.442 35.625C64.0096 35.9353 64.6541 36.0916 65.3755 36.0916C65.9142 36.0916 66.4048 36.0098 66.8473 35.8439C67.2898 35.6779 67.6049 35.5048 67.7876 35.322C67.8357 35.0046 67.8622 34.6847 67.8646 34.3601C67.867 34.0354 67.8694 33.7612 67.8694 33.5352V32.8209C67.8694 32.5636 67.8357 32.3376 67.7636 32.1404C67.6938 31.9407 67.5495 31.7965 67.3283 31.7051C67.1263 31.6137 66.8545 31.5463 66.5082 31.5007C66.1643 31.455 65.8926 31.4261 65.6978 31.4117V30.7431H71.395V31.4093H71.3998Z" fill="#7C7D81"/>
<path d="M83.4338 34.4684C83.0539 35.1875 82.5464 35.7646 81.9139 36.1903C81.2791 36.6184 80.548 36.8324 79.7255 36.8324C78.9992 36.8324 78.3619 36.7049 77.8136 36.4476C77.2677 36.1903 76.818 35.844 76.4645 35.4039C76.1086 34.9638 75.8464 34.4516 75.6709 33.8648C75.4977 33.278 75.4111 32.6599 75.4111 32.0058C75.4111 31.419 75.5049 30.8442 75.6901 30.2815C75.8777 29.7139 76.1494 29.2089 76.5102 28.7544C76.8589 28.3215 77.2918 27.9728 77.8064 27.7059C78.3235 27.4389 78.9006 27.3066 79.5427 27.3066C80.2041 27.3066 80.7668 27.4101 81.2382 27.6169C81.7071 27.8237 82.0895 28.1075 82.3829 28.4682C82.6643 28.8097 82.8735 29.2137 83.0106 29.6779C83.1477 30.142 83.2174 30.6446 83.2174 31.1881V31.7918H77.2364C77.2364 32.3858 77.2942 32.9245 77.4048 33.4078C77.5178 33.8912 77.6958 34.3169 77.9411 34.6848C78.1792 35.0384 78.4918 35.3197 78.8742 35.5241C79.259 35.7286 79.7159 35.832 80.2474 35.832C80.7885 35.832 81.2598 35.7045 81.6518 35.452C82.0462 35.1947 82.4262 34.7377 82.7941 34.074L83.4338 34.4684ZM81.4113 31.0246C81.4113 30.6831 81.3825 30.32 81.3223 29.9304C81.2646 29.5408 81.1708 29.2161 81.0434 28.954C80.9015 28.6726 80.7091 28.4442 80.4662 28.2686C80.2209 28.0906 79.9083 28.0017 79.5235 28.0017C78.8814 28.0017 78.3499 28.2686 77.9242 28.8001C77.501 29.334 77.2701 30.0747 77.234 31.0246H81.4113Z" fill="#7C7D81"/>
<path d="M96.5116 31.9865C96.5116 32.6214 96.4106 33.2466 96.2086 33.8599C96.0042 34.4731 95.718 34.9926 95.3452 35.4207C94.9244 35.9113 94.4338 36.272 93.8783 36.5101C93.3227 36.7482 92.6999 36.866 92.0073 36.866C91.4349 36.866 90.8866 36.7578 90.3647 36.5413C89.8477 36.3225 89.3859 36.0074 88.9795 35.5914C88.5827 35.1826 88.2677 34.6824 88.0296 34.0956C87.7963 33.5064 87.6785 32.845 87.6785 32.1115C87.6785 30.6999 88.0897 29.5479 88.9122 28.6485C89.7346 27.7515 90.812 27.3018 92.1443 27.3018C93.4093 27.3018 94.4554 27.7274 95.2779 28.5812C96.1004 29.4349 96.5116 30.57 96.5116 31.9865ZM94.6166 32.0033C94.6166 31.5464 94.5709 31.063 94.4795 30.5532C94.3881 30.0409 94.2486 29.6104 94.0658 29.2569C93.871 28.877 93.6137 28.5763 93.2939 28.3455C92.9764 28.117 92.5892 28.0016 92.1299 28.0016C91.6586 28.0016 91.2569 28.117 90.9251 28.3503C90.5908 28.5836 90.3214 28.901 90.1122 29.3026C89.915 29.6754 89.7779 30.0986 89.701 30.5748C89.6192 31.051 89.5831 31.5127 89.5831 31.9576C89.5831 32.5444 89.6312 33.0855 89.7226 33.5833C89.8188 34.0787 89.9703 34.526 90.1771 34.9156C90.3864 35.3052 90.6485 35.613 90.9635 35.8367C91.2786 36.058 91.6682 36.1686 92.1323 36.1686C92.8971 36.1686 93.5031 35.7982 93.9504 35.0599C94.3929 34.324 94.6166 33.3044 94.6166 32.0033Z" fill="#7C7D81"/>
<path d="M107.952 28.7254C107.952 29.0356 107.875 29.3146 107.723 29.5551C107.569 29.7955 107.334 29.9158 107.018 29.9158C106.675 29.9158 106.415 29.8268 106.234 29.6513C106.054 29.4733 105.965 29.2785 105.965 29.0645C105.965 28.9298 105.975 28.8071 105.996 28.6989C106.018 28.5883 106.037 28.4801 106.057 28.3695C105.768 28.3695 105.434 28.4849 105.049 28.7182C104.664 28.9514 104.337 29.2809 104.068 29.7066V34.9637C104.068 35.1777 104.109 35.3532 104.19 35.4855C104.272 35.6202 104.402 35.7188 104.58 35.7885C104.731 35.8487 104.931 35.8943 105.169 35.9256C105.412 35.9569 105.621 35.9761 105.797 35.9905V36.5942H101.035V35.9905C101.175 35.9785 101.321 35.9665 101.47 35.9545C101.622 35.9424 101.749 35.9184 101.86 35.8823C102.031 35.827 102.158 35.7332 102.24 35.5937C102.322 35.4567 102.365 35.2787 102.365 35.0598V29.4877C102.365 29.2977 102.322 29.115 102.23 28.9298C102.141 28.747 102.019 28.6003 101.86 28.4897C101.742 28.4175 101.605 28.3622 101.449 28.331C101.29 28.2973 101.119 28.2733 100.937 28.2612V27.6576L103.94 27.4556L104.068 27.5831V28.8552H104.113C104.491 28.3598 104.912 27.9847 105.376 27.7298C105.84 27.4724 106.266 27.345 106.651 27.345C107.035 27.345 107.348 27.47 107.588 27.7201C107.831 27.9678 107.952 28.3021 107.952 28.7254Z" fill="#7C7D81"/>
<path d="M119.683 35.6588C119.926 35.892 120.118 36.1542 120.26 36.4476C120.399 36.741 120.472 37.1041 120.472 37.537C120.472 37.9699 120.375 38.3787 120.188 38.7611C119.998 39.1411 119.712 39.4729 119.327 39.7543C118.916 40.0429 118.43 40.2641 117.862 40.4229C117.295 40.5816 116.59 40.6609 115.756 40.6609C114.387 40.6609 113.365 40.4613 112.687 40.0621C112.009 39.6605 111.67 39.0761 111.67 38.3066C111.67 37.6837 111.913 37.1931 112.403 36.8324C112.889 36.4716 113.514 36.2768 114.272 36.2456V36.1181C114.089 36.0628 113.899 35.9955 113.704 35.9137C113.507 35.8319 113.339 35.7333 113.199 35.6227C113.04 35.4952 112.913 35.3437 112.814 35.1706C112.716 34.9974 112.668 34.781 112.668 34.5237C112.668 34.199 112.781 33.9032 113.009 33.6315C113.238 33.3597 113.584 33.1264 114.051 32.9292V32.7922C113.464 32.518 113.009 32.1645 112.687 31.734C112.362 31.3035 112.201 30.8033 112.201 30.2358C112.201 29.3796 112.521 28.6798 113.158 28.1291C113.798 27.5784 114.613 27.3042 115.609 27.3042C115.883 27.3042 116.157 27.3307 116.427 27.386C116.698 27.4413 116.975 27.511 117.256 27.5976H120.407V28.4778H118.281V28.5331C118.507 28.7952 118.675 29.0862 118.783 29.4037C118.894 29.7211 118.949 30.0313 118.949 30.3368C118.949 31.1304 118.627 31.8013 117.983 32.3521C117.34 32.9004 116.588 33.1769 115.734 33.1769H114.625C114.483 33.2274 114.337 33.314 114.185 33.4415C114.031 33.5689 113.957 33.7445 113.957 33.9633C113.957 34.1894 114.022 34.3625 114.149 34.4804C114.277 34.6006 114.433 34.68 114.616 34.7233C114.791 34.7738 114.998 34.8026 115.234 34.8147C115.469 34.8267 115.712 34.8363 115.962 34.8435C116.229 34.8483 116.597 34.8676 117.066 34.8988C117.533 34.9301 117.865 34.9493 118.062 34.9541C118.341 34.9662 118.625 35.0335 118.908 35.1562C119.192 35.2764 119.449 35.4447 119.683 35.6588ZM118.969 37.8737C118.969 37.5322 118.887 37.2508 118.73 37.032C118.572 36.8131 118.329 36.6616 118.007 36.5823C117.833 36.5582 117.485 36.5317 116.953 36.5005C116.422 36.4692 115.806 36.4548 115.104 36.4548C114.445 36.5823 113.976 36.7987 113.697 37.1017C113.42 37.4047 113.281 37.7919 113.281 38.2681C113.281 38.4821 113.327 38.6865 113.418 38.8813C113.509 39.0785 113.666 39.2565 113.894 39.4224C114.106 39.5811 114.394 39.711 114.755 39.812C115.113 39.913 115.554 39.9611 116.073 39.9611C116.97 39.9611 117.677 39.7904 118.192 39.4441C118.711 39.1002 118.969 38.5759 118.969 37.8737ZM117.211 30.3007C117.211 29.5864 117.066 29.0165 116.775 28.5932C116.487 28.1676 116.078 27.9559 115.554 27.9559C115.265 27.9559 115.02 28.016 114.815 28.1363C114.611 28.2565 114.445 28.4249 114.317 28.6437C114.195 28.8457 114.108 29.0886 114.055 29.3724C114.005 29.6562 113.978 29.9472 113.978 30.2454C113.978 30.9236 114.127 31.4767 114.421 31.9023C114.719 32.3304 115.101 32.5444 115.573 32.5444C116.097 32.5444 116.501 32.3328 116.785 31.9096C117.066 31.4839 117.211 30.9476 117.211 30.3007Z" fill="#7C7D81"/>
<path d="M132.744 34.4684C132.364 35.1875 131.856 35.7646 131.224 36.1903C130.589 36.6184 129.86 36.8324 129.035 36.8324C128.307 36.8324 127.672 36.7049 127.123 36.4476C126.578 36.1903 126.128 35.844 125.774 35.4039C125.418 34.9638 125.154 34.4516 124.981 33.8648C124.805 33.278 124.721 32.6599 124.721 32.0058C124.721 31.419 124.815 30.8442 125 30.2815C125.187 29.7139 125.459 29.2089 125.82 28.7544C126.169 28.3215 126.602 27.9728 127.116 27.7059C127.633 27.4389 128.213 27.3066 128.853 27.3066C129.511 27.3066 130.077 27.4101 130.548 27.6169C131.017 27.8237 131.399 28.1075 131.693 28.4682C131.974 28.8097 132.183 29.2137 132.32 29.6779C132.457 30.142 132.527 30.6446 132.527 31.1881V31.7918H126.546C126.546 32.3858 126.604 32.9245 126.715 33.4078C126.828 33.8912 127.006 34.3169 127.251 34.6848C127.489 35.0384 127.799 35.3197 128.184 35.5241C128.569 35.7286 129.026 35.832 129.557 35.832C130.101 35.832 130.57 35.7045 130.962 35.452C131.356 35.1947 131.736 34.7377 132.104 34.074L132.744 34.4684ZM130.719 31.0246C130.719 30.6831 130.69 30.32 130.63 29.9304C130.572 29.5408 130.478 29.2161 130.351 28.954C130.209 28.6726 130.019 28.4442 129.774 28.2686C129.528 28.0906 129.216 28.0017 128.831 28.0017C128.189 28.0017 127.657 28.2686 127.232 28.8001C126.808 29.334 126.578 30.0747 126.541 31.0246H130.719Z" fill="#7C7D81"/>
</g>
<defs>
<clipPath id="clip0_37_69">
<rect width="131.776" height="50" fill="white" transform="translate(0.967773 0.96582)"/>
</clipPath>
</defs>
</svg>
