<svg width="106" height="51" viewBox="0 0 106 51" fill="none" xmlns="http://www.w3.org/2000/svg">
<g clip-path="url(#clip0_37_91)">
<path d="M88.9876 17.8142C89.3078 22.3707 86.9421 25.9239 82.1064 27.0072C80.5206 27.3627 78.7915 27.4222 76.9879 27.2287C85.6634 19.2102 90.2775 9.1257 87.3869 3.98108C85.0715 -0.134249 78.6146 0.0798003 71.3854 3.90476C76.9413 1.90573 81.5704 2.38222 83.4521 5.73442C86.1008 10.4509 82.4396 19.32 75.1247 26.9439C68.3626 25.6056 60.9267 20.9617 56.2977 14.6649C54.7119 12.5077 53.6063 10.3635 52.9641 8.33093C53.167 11.2457 54.4699 14.5719 56.9361 17.9278C60.8579 23.2585 66.7917 27.4074 72.625 29.3673C72.169 29.7786 71.7074 30.1844 71.2327 30.5827C68.7665 32.6469 66.2594 34.3314 63.8378 35.6138C67.0299 34.4654 70.5236 32.4961 73.9819 29.7824C77.0865 30.6441 80.1148 30.8601 82.743 30.27C88.6842 28.9373 90.9048 23.8821 88.9876 17.8142Z" fill="#7C7D81"/>
<path d="M5.64812 31.292H7.84631L9.10827 39.4538H6.74815L6.55271 38.0057H3.42573L2.45227 39.4538H0.0102539L5.64812 31.292ZM6.36658 36.2579L6.07808 33.9313L4.56112 36.2579H6.36658Z" fill="#7C7D81"/>
<path d="M13.0318 31.3496H19.5259L19.0066 33.2593H14.7461L14.411 34.4878H18.2788L17.8042 36.2578H13.9345L13.5865 37.544H17.9177L17.4077 39.4537H10.856L13.0318 31.3496Z" fill="#7C7D81"/>
<path d="M21.9326 31.3496H24.9888C26.3439 31.3496 27.2354 31.6511 27.7789 32.1946C28.207 32.6227 28.4043 33.2035 28.4043 33.8512C28.4043 35.2062 27.63 36.2709 25.9735 36.7232L27.2243 39.4556H24.745L23.6692 37.0005H22.6734L22.0126 39.4556H19.7549L21.9326 31.3496ZM24.423 35.2397C25.43 35.2397 26.0907 34.8098 26.0907 34.1174C26.0907 33.8959 26.0219 33.7228 25.8823 33.5739C25.6961 33.3877 25.3611 33.2965 24.8865 33.2965H23.6692L23.1369 35.2416H24.423V35.2397Z" fill="#7C7D81"/>
<path d="M31.481 31.3496H33.7276L31.5499 39.4537H29.3052L31.481 31.3496Z" fill="#7C7D81"/>
<path d="M39.0864 31.292H41.2864L42.5465 39.4538H40.1864L39.9891 38.0057H36.864L35.8924 39.4538H33.4485L39.0864 31.292ZM39.8048 36.2579L39.5163 33.9313L38.0012 36.2579H39.8048Z" fill="#7C7D81"/>
<path d="M46.47 31.3496H48.7278L47.0843 37.4863H50.9502L50.4179 39.4537H44.2942L46.47 31.3496Z" fill="#7C7D81"/>
<path d="M15.3696 43.5543H12.6372L12.868 42.7092H19.2485L19.0159 43.5543H16.2835L14.3384 50.8152H13.4245L15.3696 43.5543Z" fill="#7C7D81"/>
<path d="M21.966 42.7092H27.7658L27.535 43.5431H22.6491L21.9083 46.3108H26.2749L26.0422 47.1447H21.6905L20.9255 49.9813H25.8691L25.6495 50.8152H19.792L21.966 42.7092Z" fill="#7C7D81"/>
<path d="M29.1431 47.6082C29.1431 44.9912 31.3189 42.5715 34.0066 42.5715C35.5124 42.5715 36.5194 43.3012 37.0629 44.3081L36.2756 44.7939C35.7786 43.9489 35.1178 43.4166 33.9247 43.4166C31.8177 43.4166 30.1035 45.4305 30.1035 47.5728C30.1035 49.1345 31.1682 50.1098 32.6386 50.1098C33.7274 50.1098 34.4571 49.6798 35.1513 49.0098L35.7656 49.611C35.0136 50.3629 34.0532 50.966 32.5939 50.966C30.6824 50.966 29.1431 49.691 29.1431 47.6082Z" fill="#7C7D81"/>
<path d="M40.3463 42.7092H41.2602L40.2998 46.3108H44.9195L45.88 42.7092H46.805L44.6292 50.8152H43.7022L44.6869 47.167H40.0671L39.0825 50.8152H38.1667L40.3463 42.7092Z" fill="#7C7D81"/>
<path d="M50.254 42.7092H51.0991L54.3973 49.287L56.1692 42.7092H57.0608L54.8831 50.8152H54.1535L50.7715 44.0884L48.966 50.8152H48.0745L50.254 42.7092Z" fill="#7C7D81"/>
<path d="M59.0039 47.4443C59.0039 44.9427 61.055 42.5696 63.7279 42.5696C65.8237 42.5696 67.2829 44.1089 67.2829 46.0781C67.2829 48.5909 65.2337 50.964 62.559 50.964C60.4632 50.9659 59.0039 49.4266 59.0039 47.4443ZM66.3207 46.1135C66.3207 44.5854 65.2895 43.4165 63.6702 43.4165C61.552 43.4165 59.9643 45.4081 59.9643 47.4238C59.9643 48.952 60.9955 50.1227 62.6148 50.1227C64.7348 50.1209 66.3207 48.1274 66.3207 46.1135Z" fill="#7C7D81"/>
<path d="M71.4133 42.7092H72.3272L70.3821 49.9683H74.9442L74.7115 50.8152H69.2356L71.4133 42.7092Z" fill="#7C7D81"/>
<path d="M77.2224 47.4443C77.2224 44.9427 79.2717 42.5696 81.9464 42.5696C84.0422 42.5696 85.4996 44.1089 85.4996 46.0781C85.4996 48.5909 83.4503 50.964 80.7775 50.964C78.6817 50.9659 77.2224 49.4266 77.2224 47.4443ZM84.541 46.1135C84.541 44.5854 83.5099 43.4165 81.8905 43.4165C79.7705 43.4165 78.1866 45.4081 78.1866 47.4238C78.1866 48.952 79.2159 50.1227 80.8389 50.1227C82.9533 50.1209 84.541 48.1274 84.541 46.1135Z" fill="#7C7D81"/>
<path d="M88.1035 47.5151C88.1035 45.0136 90.2328 42.5715 93.0825 42.5715C94.7502 42.5715 95.6306 43.29 96.1387 44.055L95.4445 44.5985C94.9698 43.9396 94.3221 43.4054 93.0006 43.4054C90.7559 43.4054 89.0639 45.4305 89.0639 47.4816C89.0639 49.1494 90.1751 50.121 91.7517 50.121C92.6321 50.121 93.3263 49.8771 93.8475 49.5533L94.484 47.3067H92.0402L92.2598 46.484H95.6064L94.5752 50.121C93.719 50.6533 92.8163 50.966 91.6921 50.966C89.7247 50.966 88.1035 49.691 88.1035 47.5151Z" fill="#7C7D81"/>
<path d="M100.373 47.5505L98.3704 42.7092H99.3903L101.012 46.7966L104.833 42.7092H106.002L101.255 47.6994L100.422 50.8133H99.4964L100.373 47.5505Z" fill="#7C7D81"/>
</g>
<defs>
<clipPath id="clip0_37_91">
<rect width="105.99" height="50" fill="white" transform="translate(0.0102539 0.96582)"/>
</clipPath>
</defs>
</svg>
