<svg width="72" height="51" viewBox="0 0 72 51" fill="none" xmlns="http://www.w3.org/2000/svg">
<g clip-path="url(#clip0_37_79)">
<path d="M29.1251 0.96582H17.6702V28.6254H29.123C37.5971 28.6254 42.8152 22.2209 42.8152 14.6323V14.5549C42.8152 6.9684 37.5992 0.96582 29.1251 0.96582ZM30.7907 20.1277C27.7862 20.1277 25.3491 17.6927 25.3491 14.686C25.3491 11.6815 27.7841 9.24435 30.7907 9.24435C33.7952 9.24435 36.2302 11.6815 36.2302 14.686C36.2302 17.6905 33.7952 20.1277 30.7907 20.1277Z" fill="#7C7D81"/>
<path d="M54.8655 9.24438C51.861 9.24438 49.4238 11.6815 49.4238 14.686C49.4238 17.6927 51.861 20.1277 54.8655 20.1277C57.8721 20.1277 60.3071 17.6927 60.3071 14.686C60.3071 11.6815 57.87 9.24438 54.8655 9.24438Z" fill="#7C7D81"/>
<path d="M0.676758 39.0271H5.25445C8.94239 39.0271 11.4913 41.5588 11.4913 44.862V44.8943C11.4913 48.1975 8.94239 50.7636 5.25445 50.7636H0.676758V39.0271ZM5.25445 48.4318C7.36706 48.4318 8.79195 47.0069 8.79195 44.9287V44.8943C8.79195 42.8161 7.36706 41.3568 5.25445 41.3568H3.25789V48.4318H5.25445Z" fill="#7C7D81"/>
<path d="M21.6482 44.9288V44.8944C21.6482 41.5589 24.2809 38.8252 27.9022 38.8252C31.5235 38.8252 34.1219 41.5245 34.1219 44.8622V44.8944C34.1219 48.232 31.4892 50.9657 27.8678 50.9657C24.2465 50.9657 21.6482 48.2664 21.6482 44.9288ZM31.4225 44.9288V44.8944C31.4225 42.8828 29.9482 41.2065 27.8678 41.2065C25.7875 41.2065 24.3454 42.8506 24.3454 44.8622V44.8944C24.3454 46.906 25.8218 48.5845 27.9001 48.5845C29.9826 48.5845 31.4225 46.9425 31.4225 44.9288Z" fill="#7C7D81"/>
<path d="M47.0297 41.4084H43.4578V39.0271H53.1827V41.4084H49.6108V50.7636H47.0275V41.4084H47.0297Z" fill="#7C7D81"/>
<path d="M62.4841 49.053L64.01 47.2263C65.0653 48.0988 66.1721 48.6512 67.5153 48.6512C68.5727 48.6512 69.2088 48.2321 69.2088 47.5443V47.51C69.2088 46.8566 68.8069 46.5213 66.8448 46.0184C64.4807 45.4145 62.9548 44.7612 62.9548 42.4315V42.3971C62.9548 40.2673 64.6655 38.8596 67.064 38.8596C68.7747 38.8596 70.2318 39.3969 71.4246 40.3511L70.0835 42.2961C69.0433 41.574 68.0225 41.1399 67.0317 41.1399C66.0431 41.1399 65.523 41.5933 65.523 42.1629V42.1951C65.523 42.9666 66.0259 43.2181 68.0547 43.7382C70.436 44.3593 71.7771 45.2147 71.7771 47.2585V47.2929C71.7771 49.6226 69.9997 50.9314 67.468 50.9314C65.6864 50.9314 63.8918 50.3124 62.4841 49.053Z" fill="#7C7D81"/>
</g>
<defs>
<clipPath id="clip0_37_79">
<rect width="71.0961" height="50" fill="white" transform="translate(0.676758 0.96582)"/>
</clipPath>
</defs>
</svg>
